M48
; DRILL file {KiCad 5.99.0-unknown-29c2f3b7d4~131~ubuntu20.04.1} date Mon Sep 13 23:51:04 2021
; FORMAT={-:-/ absolute / inch / decimal}
; #@! TF.CreationDate,2021-09-13T23:51:04+03:00
; #@! TF.GenerationSoftware,Kicad,Pcbnew,5.99.0-unknown-29c2f3b7d4~131~ubuntu20.04.1
; #@! TF.FileFunction,Plated,1,4,PTH
FMAT,2
INCH
; #@! TA.AperFunction,Plated,PTH,ViaDrill
T1C0.0157
; #@! TA.AperFunction,Plated,PTH,ComponentDrill
T2C0.0236
; #@! TA.AperFunction,Plated,PTH,ComponentDrill
T3C0.0335
; #@! TA.AperFunction,Plated,PTH,ComponentDrill
T4C0.0394
%
G90
G05
T1
X-1.063Y-0.2724
X-0.9471Y-0.7406
X-0.9339Y-0.8487
X-0.8913Y-0.8935
X-0.8861Y-0.7534
X-0.8398Y-0.9433
X-0.8281Y-0.131
X-0.7997Y-0.7987
X-0.7927Y-0.9827
X-0.728Y-0.2173
X-0.7248Y-0.024
X-0.6946Y0.238
X-0.6917Y-0.2199
X-0.6582Y0.2397
X-0.6067Y-0.1378
X-0.6004Y0.0956
X-0.597Y-0.3055
X-0.5709Y0.1264
X-0.5574Y-0.3472
X-0.5334Y0.318
X-0.5015Y0.35
X-0.4295Y-0.3125
X-0.423Y-0.0936
X-0.4095Y-0.4295
X-0.3803Y-0.0046
X-0.37Y0.465
X-0.3485Y-0.0225
X-0.325Y0.4836
X-0.3156Y0.1696
X-0.3138Y0.5349
X-0.3138Y-0.5253
X-0.3093Y0.3843
X-0.3075Y0.6833
X-0.3Y-0.1
X-0.2741Y-0.6664
X-0.2727Y-0.2082
X-0.2691Y1.0685
X-0.2647Y-0.0404
X-0.2487Y-0.4576
X-0.238Y-0.6309
X-0.2328Y-0.1259
X-0.2294Y0.6918
X-0.2193Y-0.4833
X-0.2154Y-0.0262
X-0.2154Y-0.0627
X-0.207Y0.7206
X-0.1752Y-0.1699
X-0.1644Y0.1471
X-0.1638Y0.9468
X-0.1482Y0.1798
X-0.1466Y0.9952
X-0.1453Y-0.13
X-0.1436Y0.607
X-0.1433Y-0.1876
X-0.137Y-0.5531
X-0.1281Y0.3319
X-0.1083Y-0.5756
X-0.0966Y-0.2238
X-0.089Y-0.4213
X-0.08Y0.32
X-0.0315Y-0.1406
X-0.0275Y0.2275
X-0.0026Y-0.3536
X0.0023Y0.3906
X0.0031Y0.7429
X0.0122Y0.3504
X0.0304Y-0.7213
X0.0464Y0.2675
X0.0475Y0.0903
X0.0851Y-0.0047
X0.0943Y0.0306
X0.098Y-0.4205
X0.1091Y0.5906
X0.12Y0.34
X0.1349Y0.8993
X0.1394Y-0.6059
X0.1398Y0.5665
X0.1677Y0.3485
X0.1856Y0.1296
X0.1972Y-0.7059
X0.2116Y0.7317
X0.2118Y-0.6551
X0.2399Y0.1501
X0.2458Y0.6962
X0.2535Y0.6548
X0.2541Y-0.0675
X0.2722Y0.3976
X0.2787Y-0.0347
X0.2803Y0.1905
X0.2857Y-0.3906
X0.2911Y0.0009
X0.3235Y-0.6547
X0.3412Y0.4759
X0.349Y0.0095
X0.3553Y-0.3574
X0.3575Y-0.4574
X0.3651Y0.3459
X0.3822Y0.3829
X0.3997Y0.2715
X0.4Y-0.495
X0.4068Y-0.7166
X0.4159Y-0.3066
X0.441Y-0.52
X0.4545Y0.0173
X0.4818Y0.0415
X0.4833Y0.4858
X0.4972Y-0.7035
X0.4996Y0.2419
X0.5129Y0.399
X0.525Y-0.675
X0.525Y-0.775
X0.5285Y-0.9272
X0.5355Y-1.0607
X0.57Y-0.525
X0.5732Y-0.9673
X0.5803Y-0.1417
X0.583Y-0.791
X0.5895Y-0.1064
X0.5984Y-0.5692
X0.6133Y0.1399
X0.625Y-0.8505
X0.6476Y-0.2135
X0.6679Y-0.547
X0.6866Y0.2118
X0.6886Y0.0024
X0.6909Y-0.2189
X0.6931Y-0.8819
X0.6982Y-0.6658
X0.702Y-1.0161
X0.7226Y0.2059
X0.725Y-0.925
X0.775Y0.9851
X0.7758Y-0.4975
X0.8077Y-0.5423
X0.83Y-0.505
X0.8511Y-0.6739
X0.8529Y-0.5471
X0.925Y-0.85
X1.025Y-0.62
X1.0297Y-0.7777
T3
X-0.9289Y-0.7897
X-0.7897Y-0.9289
X0.7897Y0.9281
X0.9289Y0.789
T4
X-1.225Y0.45
X-1.225Y0.35
X-1.225Y0.25
X-1.225Y0.15
X-1.225Y0.05
X-1.225Y-0.05
X-1.225Y-0.15
X-1.225Y-0.25
X-1.225Y-0.35
X-1.225Y-0.45
X-1.125Y0.45
X-1.125Y0.35
X-1.125Y0.25
X-1.125Y0.15
X-1.125Y0.05
X-1.125Y-0.05
X-1.125Y-0.15
X-1.125Y-0.25
X-1.125Y-0.35
X-1.125Y-0.45
X-1.1121Y0.7586
X-1.1Y-0.775
X-1.0414Y0.8293
X-1.0414Y0.6879
X-1.0293Y-0.7043
X-0.976Y0.0508
X-0.976Y-0.0492
X-0.9707Y0.9
X-0.9707Y0.7586
X-0.955Y0.375
X-0.955Y-0.375
X-0.9Y0.9707
X-0.9Y0.8293
X-0.855Y0.375
X-0.855Y-0.375
X-0.8293Y1.0414
X-0.8293Y0.9
X-0.775Y-1.1
X-0.7586Y1.1121
X-0.7586Y0.9707
X-0.7043Y-1.0293
X-0.6879Y1.0414
X-0.45Y1.225
X-0.45Y1.125
X-0.45Y-1.125
X-0.45Y-1.225
X-0.375Y0.955
X-0.375Y0.855
X-0.375Y-0.85
X-0.375Y-0.95
X-0.35Y1.225
X-0.35Y1.125
X-0.35Y-1.125
X-0.35Y-1.225
X-0.25Y1.225
X-0.25Y1.125
X-0.25Y-1.125
X-0.25Y-1.225
X-0.15Y1.225
X-0.15Y1.125
X-0.15Y-1.125
X-0.15Y-1.225
X-0.0508Y-0.976
X-0.05Y1.225
X-0.05Y1.125
X-0.05Y-1.125
X-0.05Y-1.225
X0.0492Y-0.976
X0.05Y1.225
X0.05Y1.125
X0.05Y-1.125
X0.05Y-1.225
X0.15Y1.225
X0.15Y1.125
X0.15Y-1.125
X0.15Y-1.225
X0.25Y1.225
X0.25Y1.125
X0.25Y-1.125
X0.25Y-1.225
X0.35Y1.225
X0.35Y1.125
X0.35Y-1.125
X0.35Y-1.225
X0.375Y0.955
X0.375Y0.855
X0.375Y-0.85
X0.375Y-0.95
X0.45Y1.225
X0.45Y1.125
X0.45Y-1.125
X0.45Y-1.225
X0.5586Y-1.175
X0.6293Y-1.1043
X0.6293Y-1.2457
X0.7Y-1.175
X0.7043Y1.0293
X0.775Y1.1
X0.855Y0.375
X0.855Y-0.375
X0.955Y0.375
X0.955Y-0.375
X0.976Y0.0492
X0.976Y-0.0508
X1.0293Y0.7043
X1.1Y0.775
X1.1043Y-0.6293
X1.125Y0.45
X1.125Y0.35
X1.125Y0.25
X1.125Y0.15
X1.125Y0.05
X1.125Y-0.05
X1.125Y-0.15
X1.125Y-0.25
X1.125Y-0.35
X1.125Y-0.45
X1.175Y-0.5586
X1.175Y-0.7
X1.225Y0.45
X1.225Y0.35
X1.225Y0.25
X1.225Y0.15
X1.225Y0.05
X1.225Y-0.05
X1.225Y-0.15
X1.225Y-0.25
X1.225Y-0.35
X1.225Y-0.45
X1.2457Y-0.6293
T2
G00X-1.0416Y-0.8468
M15
G01X-1.0221Y-0.8273
M16
G05
G00X-0.8273Y-1.0221
M15
G01X-0.8468Y-1.0416
M16
G05
G00X0.8273Y1.0214
M15
G01X0.8468Y1.0409
M16
G05
G00X1.0416Y0.846
M15
G01X1.0221Y0.8265
M16
G05
T0
M30
