G04 #@! TF.GenerationSoftware,KiCad,Pcbnew,5.99.0-unknown-29c2f3b7d4~131~ubuntu20.04.1*
G04 #@! TF.CreationDate,2021-09-13T23:51:00+03:00*
G04 #@! TF.ProjectId,FreeEEG32-alpha131,46726565-4545-4473-9332-2d616c706861,rev?*
G04 #@! TF.SameCoordinates,Original*
G04 #@! TF.FileFunction,Copper,L4,Bot*
G04 #@! TF.FilePolarity,Positive*
%FSLAX46Y46*%
G04 Gerber Fmt 4.6, Leading zero omitted, Abs format (unit mm)*
G04 Created by KiCad (PCBNEW 5.99.0-unknown-29c2f3b7d4~131~ubuntu20.04.1) date 2021-09-13 23:51:00*
%MOMM*%
%LPD*%
G01*
G04 APERTURE LIST*
G04 Aperture macros list*
%AMRoundRect*
0 Rectangle with rounded corners*
0 $1 Rounding radius*
0 $2 $3 $4 $5 $6 $7 $8 $9 X,Y pos of 4 corners*
0 Add a 4 corners polygon primitive as box body*
4,1,4,$2,$3,$4,$5,$6,$7,$8,$9,$2,$3,0*
0 Add four circle primitives for the rounded corners*
1,1,$1+$1,$2,$3*
1,1,$1+$1,$4,$5*
1,1,$1+$1,$6,$7*
1,1,$1+$1,$8,$9*
0 Add four rect primitives between the rounded corners*
20,1,$1+$1,$2,$3,$4,$5,0*
20,1,$1+$1,$4,$5,$6,$7,0*
20,1,$1+$1,$6,$7,$8,$9,0*
20,1,$1+$1,$8,$9,$2,$3,0*%
%AMHorizOval*
0 Thick line with rounded ends*
0 $1 width*
0 $2 $3 position (X,Y) of the first rounded end (center of the circle)*
0 $4 $5 position (X,Y) of the second rounded end (center of the circle)*
0 Add line between two ends*
20,1,$1,$2,$3,$4,$5,0*
0 Add two circle primitives to create the rounded ends*
1,1,$1,$2,$3*
1,1,$1,$4,$5*%
%AMRotRect*
0 Rectangle, with rotation*
0 The origin of the aperture is its center*
0 $1 length*
0 $2 width*
0 $3 Rotation angle, in degrees counterclockwise*
0 Add horizontal line*
21,1,$1,$2,0,0,$3*%
G04 Aperture macros list end*
G04 #@! TA.AperFunction,ComponentPad*
%ADD10RotRect,1.700000X1.700000X45.000000*%
G04 #@! TD*
G04 #@! TA.AperFunction,ComponentPad*
%ADD11HorizOval,1.700000X0.000000X0.000000X0.000000X0.000000X0*%
G04 #@! TD*
G04 #@! TA.AperFunction,ComponentPad*
%ADD12C,1.450000*%
G04 #@! TD*
G04 #@! TA.AperFunction,ComponentPad*
%ADD13HorizOval,1.200000X-0.247487X-0.247487X0.247487X0.247487X0*%
G04 #@! TD*
G04 #@! TA.AperFunction,ComponentPad*
%ADD14HorizOval,1.200000X0.247487X0.247487X-0.247487X-0.247487X0*%
G04 #@! TD*
G04 #@! TA.AperFunction,ComponentPad*
%ADD15RotRect,1.700000X1.700000X225.000000*%
G04 #@! TD*
G04 #@! TA.AperFunction,ComponentPad*
%ADD16HorizOval,1.700000X0.000000X0.000000X0.000000X0.000000X0*%
G04 #@! TD*
G04 #@! TA.AperFunction,ComponentPad*
%ADD17RotRect,1.700000X1.700000X315.000000*%
G04 #@! TD*
G04 #@! TA.AperFunction,ComponentPad*
%ADD18HorizOval,1.700000X0.000000X0.000000X0.000000X0.000000X0*%
G04 #@! TD*
G04 #@! TA.AperFunction,ComponentPad*
%ADD19RotRect,1.700000X1.700000X135.000000*%
G04 #@! TD*
G04 #@! TA.AperFunction,ComponentPad*
%ADD20HorizOval,1.700000X0.000000X0.000000X0.000000X0.000000X0*%
G04 #@! TD*
G04 #@! TA.AperFunction,ComponentPad*
%ADD21R,1.700000X1.700000*%
G04 #@! TD*
G04 #@! TA.AperFunction,ComponentPad*
%ADD22O,1.700000X1.700000*%
G04 #@! TD*
G04 #@! TA.AperFunction,SMDPad,CuDef*
%ADD23RotRect,1.560000X0.650000X45.000000*%
G04 #@! TD*
G04 #@! TA.AperFunction,SMDPad,CuDef*
%ADD24RoundRect,0.147500X-0.017678X0.226274X-0.226274X0.017678X0.017678X-0.226274X0.226274X-0.017678X0*%
G04 #@! TD*
G04 #@! TA.AperFunction,SMDPad,CuDef*
%ADD25RoundRect,0.218750X0.335876X0.026517X0.026517X0.335876X-0.335876X-0.026517X-0.026517X-0.335876X0*%
G04 #@! TD*
G04 #@! TA.AperFunction,SMDPad,CuDef*
%ADD26RoundRect,0.147500X0.017678X-0.226274X0.226274X-0.017678X-0.017678X0.226274X-0.226274X0.017678X0*%
G04 #@! TD*
G04 #@! TA.AperFunction,SMDPad,CuDef*
%ADD27RoundRect,0.147500X0.226274X0.017678X0.017678X0.226274X-0.226274X-0.017678X-0.017678X-0.226274X0*%
G04 #@! TD*
G04 #@! TA.AperFunction,SMDPad,CuDef*
%ADD28RotRect,1.550000X0.300000X45.000000*%
G04 #@! TD*
G04 #@! TA.AperFunction,SMDPad,CuDef*
%ADD29RotRect,1.550000X0.300000X315.000000*%
G04 #@! TD*
G04 #@! TA.AperFunction,SMDPad,CuDef*
%ADD30RotRect,1.500000X0.600000X45.000000*%
G04 #@! TD*
G04 #@! TA.AperFunction,SMDPad,CuDef*
%ADD31RotRect,0.900000X1.200000X315.000000*%
G04 #@! TD*
G04 #@! TA.AperFunction,SMDPad,CuDef*
%ADD32RoundRect,0.147500X-0.226274X-0.017678X-0.017678X-0.226274X0.226274X0.017678X0.017678X0.226274X0*%
G04 #@! TD*
G04 #@! TA.AperFunction,SMDPad,CuDef*
%ADD33RoundRect,0.218750X-0.026517X0.335876X-0.335876X0.026517X0.026517X-0.335876X0.335876X-0.026517X0*%
G04 #@! TD*
G04 #@! TA.AperFunction,SMDPad,CuDef*
%ADD34RotRect,1.500000X0.600000X135.000000*%
G04 #@! TD*
G04 #@! TA.AperFunction,SMDPad,CuDef*
%ADD35RotRect,0.400000X1.350000X135.000000*%
G04 #@! TD*
G04 #@! TA.AperFunction,SMDPad,CuDef*
%ADD36RotRect,1.200000X1.900000X135.000000*%
G04 #@! TD*
G04 #@! TA.AperFunction,SMDPad,CuDef*
%ADD37RotRect,1.500000X1.900000X135.000000*%
G04 #@! TD*
G04 #@! TA.AperFunction,SMDPad,CuDef*
%ADD38RotRect,1.400000X1.900000X225.000000*%
G04 #@! TD*
G04 #@! TA.AperFunction,SMDPad,CuDef*
%ADD39RotRect,1.300000X1.400000X225.000000*%
G04 #@! TD*
G04 #@! TA.AperFunction,SMDPad,CuDef*
%ADD40RotRect,0.800000X1.500000X225.000000*%
G04 #@! TD*
G04 #@! TA.AperFunction,SMDPad,CuDef*
%ADD41RotRect,1.000000X0.950000X225.000000*%
G04 #@! TD*
G04 #@! TA.AperFunction,SMDPad,CuDef*
%ADD42RotRect,0.900000X1.200000X135.000000*%
G04 #@! TD*
G04 #@! TA.AperFunction,SMDPad,CuDef*
%ADD43RoundRect,0.147500X-0.147500X-0.172500X0.147500X-0.172500X0.147500X0.172500X-0.147500X0.172500X0*%
G04 #@! TD*
G04 #@! TA.AperFunction,SMDPad,CuDef*
%ADD44RoundRect,0.147500X0.172500X-0.147500X0.172500X0.147500X-0.172500X0.147500X-0.172500X-0.147500X0*%
G04 #@! TD*
G04 #@! TA.AperFunction,SMDPad,CuDef*
%ADD45RoundRect,0.218750X0.026517X-0.335876X0.335876X-0.026517X-0.026517X0.335876X-0.335876X0.026517X0*%
G04 #@! TD*
G04 #@! TA.AperFunction,SMDPad,CuDef*
%ADD46RotRect,1.700000X1.600000X225.000000*%
G04 #@! TD*
G04 #@! TA.AperFunction,SMDPad,CuDef*
%ADD47RoundRect,0.140000X-0.170000X0.140000X-0.170000X-0.140000X0.170000X-0.140000X0.170000X0.140000X0*%
G04 #@! TD*
G04 #@! TA.AperFunction,SMDPad,CuDef*
%ADD48RoundRect,0.135000X0.135000X0.185000X-0.135000X0.185000X-0.135000X-0.185000X0.135000X-0.185000X0*%
G04 #@! TD*
G04 #@! TA.AperFunction,SMDPad,CuDef*
%ADD49RoundRect,0.140000X0.170000X-0.140000X0.170000X0.140000X-0.170000X0.140000X-0.170000X-0.140000X0*%
G04 #@! TD*
G04 #@! TA.AperFunction,SMDPad,CuDef*
%ADD50R,1.560000X0.650000*%
G04 #@! TD*
G04 #@! TA.AperFunction,SMDPad,CuDef*
%ADD51RoundRect,0.225000X-0.017678X0.335876X-0.335876X0.017678X0.017678X-0.335876X0.335876X-0.017678X0*%
G04 #@! TD*
G04 #@! TA.AperFunction,SMDPad,CuDef*
%ADD52RoundRect,0.135000X-0.135000X-0.185000X0.135000X-0.185000X0.135000X0.185000X-0.135000X0.185000X0*%
G04 #@! TD*
G04 #@! TA.AperFunction,SMDPad,CuDef*
%ADD53RoundRect,0.150000X0.468458X-0.256326X-0.256326X0.468458X-0.468458X0.256326X0.256326X-0.468458X0*%
G04 #@! TD*
G04 #@! TA.AperFunction,SMDPad,CuDef*
%ADD54RoundRect,0.135000X-0.185000X0.135000X-0.185000X-0.135000X0.185000X-0.135000X0.185000X0.135000X0*%
G04 #@! TD*
G04 #@! TA.AperFunction,ViaPad*
%ADD55C,0.800000*%
G04 #@! TD*
G04 #@! TA.AperFunction,Conductor*
%ADD56C,0.250000*%
G04 #@! TD*
G04 #@! TA.AperFunction,Conductor*
%ADD57C,0.200000*%
G04 #@! TD*
G04 #@! TA.AperFunction,Conductor*
%ADD58C,0.500000*%
G04 #@! TD*
G04 #@! TA.AperFunction,Conductor*
%ADD59C,0.750000*%
G04 #@! TD*
G04 APERTURE END LIST*
D10*
X17888949Y26143949D03*
D11*
X19685000Y27940000D03*
D12*
X23593623Y20039345D03*
D13*
X26209918Y21241427D03*
D12*
X20058089Y23574879D03*
D14*
X21260171Y26191174D03*
D10*
X26143949Y17888949D03*
D11*
X27940000Y19685000D03*
D15*
X-17888949Y-26143949D03*
D16*
X-19685000Y-27940000D03*
D15*
X-26143949Y-17888949D03*
D16*
X-27940000Y-19685000D03*
D17*
X15983949Y-28048949D03*
D18*
X17780000Y-29845000D03*
X14187898Y-29845000D03*
X15983949Y-31641051D03*
D19*
X-21063949Y22860000D03*
D20*
X-22860000Y24656051D03*
X-19267898Y24656051D03*
X-21063949Y26452102D03*
X-17471847Y26452102D03*
X-19267898Y28248154D03*
D17*
X29845000Y-14187898D03*
D18*
X31641051Y-15983949D03*
X28048949Y-15983949D03*
X29845000Y-17780000D03*
D19*
X-26452102Y17471846D03*
D20*
X-28248153Y19267897D03*
X-24656051Y19267897D03*
X-26452102Y21063948D03*
X-22860000Y21063948D03*
X-24656051Y22860000D03*
D21*
X24257000Y-9525000D03*
D22*
X21717000Y-9525000D03*
D21*
X-24257000Y9525000D03*
D22*
X-21717000Y9525000D03*
D21*
X11430000Y-28575000D03*
D22*
X11430000Y-31115000D03*
X8890000Y-28575000D03*
X8890000Y-31115000D03*
X6350000Y-28575000D03*
X6350000Y-31115000D03*
X3810000Y-28575000D03*
X3810000Y-31115000D03*
X1270000Y-28575000D03*
X1270000Y-31115000D03*
X-1270000Y-28575000D03*
X-1270000Y-31115000D03*
X-3810000Y-28575000D03*
X-3810000Y-31115000D03*
X-6350000Y-28575000D03*
X-6350000Y-31115000D03*
X-8890000Y-28575000D03*
X-8890000Y-31115000D03*
X-11430000Y-28575000D03*
X-11430000Y-31115000D03*
D21*
X-24257000Y-9525000D03*
D22*
X-21717000Y-9525000D03*
D21*
X28575000Y11430000D03*
D22*
X31115000Y11430000D03*
X28575000Y8890000D03*
X31115000Y8890000D03*
X28575000Y6350000D03*
X31115000Y6350000D03*
X28575000Y3810000D03*
X31115000Y3810000D03*
X28575000Y1270000D03*
X31115000Y1270000D03*
X28575000Y-1270000D03*
X31115000Y-1270000D03*
X28575000Y-3810000D03*
X31115000Y-3810000D03*
X28575000Y-6350000D03*
X31115000Y-6350000D03*
X28575000Y-8890000D03*
X31115000Y-8890000D03*
X28575000Y-11430000D03*
X31115000Y-11430000D03*
D21*
X1250000Y-24790000D03*
D22*
X-1290000Y-24790000D03*
D21*
X-28575000Y-11430000D03*
D22*
X-31115000Y-11430000D03*
X-28575000Y-8890000D03*
X-31115000Y-8890000D03*
X-28575000Y-6350000D03*
X-31115000Y-6350000D03*
X-28575000Y-3810000D03*
X-31115000Y-3810000D03*
X-28575000Y-1270000D03*
X-31115000Y-1270000D03*
X-28575000Y1270000D03*
X-31115000Y1270000D03*
X-28575000Y3810000D03*
X-31115000Y3810000D03*
X-28575000Y6350000D03*
X-31115000Y6350000D03*
X-28575000Y8890000D03*
X-31115000Y8890000D03*
X-28575000Y11430000D03*
X-31115000Y11430000D03*
D21*
X9525000Y-24130000D03*
D22*
X9525000Y-21590000D03*
D21*
X-11430000Y28575000D03*
D22*
X-11430000Y31115000D03*
X-8890000Y28575000D03*
X-8890000Y31115000D03*
X-6350000Y28575000D03*
X-6350000Y31115000D03*
X-3810000Y28575000D03*
X-3810000Y31115000D03*
X-1270000Y28575000D03*
X-1270000Y31115000D03*
X1270000Y28575000D03*
X1270000Y31115000D03*
X3810000Y28575000D03*
X3810000Y31115000D03*
X6350000Y28575000D03*
X6350000Y31115000D03*
X8890000Y28575000D03*
X8890000Y31115000D03*
X11430000Y28575000D03*
X11430000Y31115000D03*
D21*
X-9525000Y24257000D03*
D22*
X-9525000Y21717000D03*
D21*
X24257000Y9525000D03*
D22*
X21717000Y9525000D03*
D21*
X-24790000Y-1250000D03*
D22*
X-24790000Y1290000D03*
D21*
X-9525000Y-24130000D03*
D22*
X-9525000Y-21590000D03*
D21*
X24790000Y1250000D03*
D22*
X24790000Y-1290000D03*
D21*
X9525000Y24257000D03*
D22*
X9525000Y21717000D03*
D23*
X22577157Y21214910D03*
X21905406Y21886662D03*
X21233654Y22558413D03*
X23142843Y24467602D03*
X23814594Y23795850D03*
X24486346Y23124099D03*
D24*
X-14389053Y-6083253D03*
X-15074947Y-6769147D03*
D25*
X-8587153Y9984153D03*
X-9700847Y11097847D03*
D26*
X14160453Y-10655347D03*
X14846347Y-9969453D03*
X-13042947Y-5981747D03*
X-12357053Y-5295853D03*
D27*
X-9436053Y9055053D03*
X-10121947Y9740947D03*
D28*
X-1378858Y-13753227D03*
X-1732412Y-13399674D03*
X-2085965Y-13046120D03*
X-2439518Y-12692567D03*
X-2793072Y-12339013D03*
X-3146625Y-11985460D03*
X-3500179Y-11631907D03*
X-3853732Y-11278353D03*
X-4207285Y-10924800D03*
X-4560839Y-10571246D03*
X-4914392Y-10217693D03*
X-5267946Y-9864140D03*
X-5621499Y-9510586D03*
X-5975052Y-9157033D03*
X-6328606Y-8803479D03*
X-6682159Y-8449926D03*
X-7035712Y-8096373D03*
X-7389266Y-7742819D03*
X-7742819Y-7389266D03*
X-8096373Y-7035712D03*
X-8449926Y-6682159D03*
X-8803479Y-6328606D03*
X-9157033Y-5975052D03*
X-9510586Y-5621499D03*
X-9864140Y-5267946D03*
X-10217693Y-4914392D03*
X-10571246Y-4560839D03*
X-10924800Y-4207285D03*
X-11278353Y-3853732D03*
X-11631907Y-3500179D03*
X-11985460Y-3146625D03*
X-12339013Y-2793072D03*
X-12692567Y-2439518D03*
X-13046120Y-2085965D03*
X-13399674Y-1732412D03*
X-13753227Y-1378858D03*
D29*
X-13753227Y1378858D03*
X-13399674Y1732412D03*
X-13046120Y2085965D03*
X-12692567Y2439518D03*
X-12339013Y2793072D03*
X-11985460Y3146625D03*
X-11631907Y3500179D03*
X-11278353Y3853732D03*
X-10924800Y4207285D03*
X-10571246Y4560839D03*
X-10217693Y4914392D03*
X-9864140Y5267946D03*
X-9510586Y5621499D03*
X-9157033Y5975052D03*
X-8803479Y6328606D03*
X-8449926Y6682159D03*
X-8096373Y7035712D03*
X-7742819Y7389266D03*
X-7389266Y7742819D03*
X-7035712Y8096373D03*
X-6682159Y8449926D03*
X-6328606Y8803479D03*
X-5975052Y9157033D03*
X-5621499Y9510586D03*
X-5267946Y9864140D03*
X-4914392Y10217693D03*
X-4560839Y10571246D03*
X-4207285Y10924800D03*
X-3853732Y11278353D03*
X-3500179Y11631907D03*
X-3146625Y11985460D03*
X-2793072Y12339013D03*
X-2439518Y12692567D03*
X-2085965Y13046120D03*
X-1732412Y13399674D03*
X-1378858Y13753227D03*
D28*
X1378858Y13753227D03*
X1732412Y13399674D03*
X2085965Y13046120D03*
X2439518Y12692567D03*
X2793072Y12339013D03*
X3146625Y11985460D03*
X3500179Y11631907D03*
X3853732Y11278353D03*
X4207285Y10924800D03*
X4560839Y10571246D03*
X4914392Y10217693D03*
X5267946Y9864140D03*
X5621499Y9510586D03*
X5975052Y9157033D03*
X6328606Y8803479D03*
X6682159Y8449926D03*
X7035712Y8096373D03*
X7389266Y7742819D03*
X7742819Y7389266D03*
X8096373Y7035712D03*
X8449926Y6682159D03*
X8803479Y6328606D03*
X9157033Y5975052D03*
X9510586Y5621499D03*
X9864140Y5267946D03*
X10217693Y4914392D03*
X10571246Y4560839D03*
X10924800Y4207285D03*
X11278353Y3853732D03*
X11631907Y3500179D03*
X11985460Y3146625D03*
X12339013Y2793072D03*
X12692567Y2439518D03*
X13046120Y2085965D03*
X13399674Y1732412D03*
X13753227Y1378858D03*
D29*
X13753227Y-1378858D03*
X13399674Y-1732412D03*
X13046120Y-2085965D03*
X12692567Y-2439518D03*
X12339013Y-2793072D03*
X11985460Y-3146625D03*
X11631907Y-3500179D03*
X11278353Y-3853732D03*
X10924800Y-4207285D03*
X10571246Y-4560839D03*
X10217693Y-4914392D03*
X9864140Y-5267946D03*
X9510586Y-5621499D03*
X9157033Y-5975052D03*
X8803479Y-6328606D03*
X8449926Y-6682159D03*
X8096373Y-7035712D03*
X7742819Y-7389266D03*
X7389266Y-7742819D03*
X7035712Y-8096373D03*
X6682159Y-8449926D03*
X6328606Y-8803479D03*
X5975052Y-9157033D03*
X5621499Y-9510586D03*
X5267946Y-9864140D03*
X4914392Y-10217693D03*
X4560839Y-10571246D03*
X4207285Y-10924800D03*
X3853732Y-11278353D03*
X3500179Y-11631907D03*
X3146625Y-11985460D03*
X2793072Y-12339013D03*
X2439518Y-12692567D03*
X2085965Y-13046120D03*
X1732412Y-13399674D03*
X1378858Y-13753227D03*
D24*
X-13423853Y-9309053D03*
X-14109747Y-9994947D03*
D30*
X-16654957Y-22941136D03*
X-17552983Y-22043111D03*
X-18451008Y-21145085D03*
X-19349034Y-20247059D03*
X-20247059Y-19349034D03*
X-21145085Y-18451008D03*
X-22043111Y-17552983D03*
X-22941136Y-16654957D03*
X-16365043Y-10078864D03*
X-15467017Y-10976889D03*
X-14568992Y-11874915D03*
X-13670966Y-12772941D03*
X-12772941Y-13670966D03*
X-11874915Y-14568992D03*
X-10976889Y-15467017D03*
X-10078864Y-16365043D03*
D24*
X14731917Y5105066D03*
X14046023Y4419172D03*
D31*
X11533274Y10672982D03*
X13866726Y8339530D03*
D27*
X12484147Y7861253D03*
X11798253Y8547147D03*
D32*
X-9232947Y-10452053D03*
X-8547053Y-11137947D03*
D33*
X10716847Y9506257D03*
X9603153Y8392563D03*
D27*
X7327947Y11722053D03*
X6642053Y12407947D03*
D32*
X-10553747Y-12941253D03*
X-9867853Y-13627147D03*
D24*
X-12128453Y-10502853D03*
X-12814347Y-11188747D03*
D25*
X-5793153Y12143153D03*
X-6906847Y13256847D03*
D24*
X-13703253Y-6769053D03*
X-14389147Y-7454947D03*
D34*
X-10078864Y16365043D03*
X-10976889Y15467017D03*
X-11874915Y14568992D03*
X-12772941Y13670966D03*
X-13670966Y12772941D03*
X-14568992Y11874915D03*
X-15467017Y10976889D03*
X-16365043Y10078864D03*
X-22941136Y16654957D03*
X-22043111Y17552983D03*
X-21145085Y18451008D03*
X-20247059Y19349034D03*
X-19349034Y20247059D03*
X-18451008Y21145085D03*
X-17552983Y22043111D03*
X-16654957Y22941136D03*
D24*
X-9182053Y14947947D03*
X-9867947Y14262053D03*
D35*
X-20906618Y-22745095D03*
X-21366237Y-22285476D03*
X-21825856Y-21825856D03*
X-22285476Y-21366237D03*
X-22745095Y-20906618D03*
D12*
X-23593623Y-20058089D03*
D13*
X-21260171Y-26209918D03*
D36*
X-25785654Y-21684435D03*
X-21684435Y-25785654D03*
D37*
X-24442151Y-23027938D03*
X-23027938Y-24442151D03*
D12*
X-20058089Y-23593623D03*
D14*
X-26209918Y-21260171D03*
D38*
X19107710Y-28444210D03*
D39*
X13238724Y-14302074D03*
D38*
X27699058Y-18438649D03*
D39*
X17269232Y-10271565D03*
D40*
X20005736Y-22752000D03*
X20500710Y-21691340D03*
X21561371Y-21196365D03*
X22480609Y-20559969D03*
X23117006Y-19640730D03*
X24036244Y-19004334D03*
X24672640Y-18085095D03*
X25450458Y-17307278D03*
D41*
X16130791Y-11098880D03*
D32*
X6388053Y-15405053D03*
X7073947Y-16090947D03*
D27*
X-4737053Y12992053D03*
X-5422947Y13677947D03*
D42*
X10691726Y11514530D03*
X8358274Y13847982D03*
D43*
X6627000Y-11099800D03*
X7597000Y-11099800D03*
D26*
X-10756947Y7531053D03*
X-10071053Y8216947D03*
D24*
X9232947Y10488975D03*
X8547053Y9803081D03*
D27*
X11772947Y7150053D03*
X11087053Y7835947D03*
D44*
X-14605000Y6500000D03*
X-14605000Y7470000D03*
D45*
X12942105Y5094272D03*
X14055799Y6207966D03*
D24*
X-12941253Y-7404053D03*
X-13627147Y-8089947D03*
D26*
X-13703347Y-5270547D03*
X-13017453Y-4584653D03*
D32*
X-15963947Y24599947D03*
X-15278053Y23914053D03*
D27*
X-8496253Y-14998747D03*
X-9182147Y-14312853D03*
D26*
X13373053Y-9867947D03*
X14058947Y-9182053D03*
D32*
X-7962947Y11772947D03*
X-7277053Y11087053D03*
D46*
X18532325Y22124428D03*
X20328377Y20328377D03*
X22124428Y18532325D03*
X14487675Y10895572D03*
X12691623Y12691623D03*
X10895572Y14487675D03*
D47*
X-3048000Y25626000D03*
X-3048000Y24666000D03*
D48*
X-22350000Y7620000D03*
X-23370000Y7620000D03*
D49*
X-3048000Y22634000D03*
X-3048000Y23594000D03*
D50*
X1350000Y25080000D03*
X1350000Y24130000D03*
X1350000Y23180000D03*
X-1350000Y23180000D03*
X-1350000Y25080000D03*
D51*
X13197208Y-11059792D03*
X12101192Y-12155808D03*
D52*
X22350000Y7747000D03*
X23370000Y7747000D03*
D53*
X11686885Y-10343383D03*
X11015134Y-11015134D03*
X10343383Y-11686885D03*
X8734715Y-10078217D03*
X10078217Y-8734715D03*
D47*
X3048000Y25118000D03*
X3048000Y24158000D03*
D54*
X7620000Y-22350000D03*
X7620000Y-23370000D03*
D55*
X14740000Y-3600000D03*
X-3480000Y-14050000D03*
X-14500000Y3210000D03*
X3550000Y14390000D03*
X12236734Y1054813D03*
X-27000000Y-6920000D03*
X-6836147Y27139401D03*
X2490000Y-10680000D03*
X-2260000Y-10700000D03*
X-7810514Y17356625D03*
X11543040Y438173D03*
X-21033500Y-3327000D03*
X5374990Y18584990D03*
X-6962533Y-16927467D03*
X-17644043Y6046339D03*
X6243489Y17683489D03*
X17550000Y-5560000D03*
X3426187Y22842413D03*
X14974471Y-2703657D03*
X15578931Y3552431D03*
X2770000Y15000000D03*
X-3646956Y15417644D03*
X-15249890Y2428103D03*
X-15411258Y-3501258D03*
X-2749587Y-14620004D03*
X3540000Y-15390000D03*
X-3723185Y25276989D03*
X-4160134Y24049641D03*
X-800000Y-3570000D03*
X80000Y18870000D03*
X-18410000Y-610000D03*
X771234Y-18319796D03*
X17490000Y60000D03*
X5010000Y-17930000D03*
X-18492176Y-5518182D03*
X-5258432Y18302427D03*
X18353550Y5229555D03*
X5380000Y-16640000D03*
X-6044676Y-16025967D03*
X-17568045Y-5584443D03*
X-5827091Y17570967D03*
X17439412Y5380417D03*
X16449505Y-5423500D03*
X-16718500Y6088500D03*
X6439795Y16631254D03*
X13028525Y10135511D03*
X9025500Y-9078127D03*
X-6317712Y-11624138D03*
X-5569306Y-12275638D03*
X9708626Y9725368D03*
X10160000Y-12573000D03*
X17831900Y-25810098D03*
X13600860Y-26940775D03*
X-20312380Y-20286980D03*
X-22638184Y-22693871D03*
X-21331501Y-23959753D03*
X15875000Y-21601770D03*
X6913016Y10100070D03*
X2394132Y778247D03*
X-14158904Y-8820090D03*
X-5471500Y-666633D03*
X2162303Y-118783D03*
X8666709Y12086890D03*
X-5471500Y-1593136D03*
X-10908613Y-7938372D03*
X26153812Y-19752918D03*
X-3691741Y-3302241D03*
X13424651Y-23549736D03*
X10333488Y-18202574D03*
X13335000Y-19685000D03*
X13335000Y-17145000D03*
X12627892Y-17870000D03*
X9081011Y-11619003D03*
X21618291Y-17116709D03*
X17604054Y-22400946D03*
X-13549349Y8078241D03*
X-10401109Y-10909108D03*
X-8255311Y12284154D03*
X10562829Y-7788408D03*
X-7855001Y9760001D03*
X17734003Y-16911597D03*
X-10744218Y-2376500D03*
X4258811Y8850732D03*
X10151640Y6895553D03*
X-7970599Y13586986D03*
X14808200Y-20091400D03*
X-4175070Y3736500D03*
X1179751Y6794508D03*
X-699500Y5779500D03*
X19685000Y25020960D03*
X-3763873Y4566756D03*
X16964358Y-13894724D03*
X19705990Y-12637011D03*
X15198910Y-14456631D03*
X21082000Y-12827000D03*
X4713500Y3290713D03*
X21663511Y-13896489D03*
X20515858Y-13774142D03*
X6093543Y3812457D03*
X14478000Y-13335000D03*
X7120105Y4839019D03*
X14558062Y-24569169D03*
X26035000Y-15748000D03*
X-8015317Y4306678D03*
X-5914343Y-3196874D03*
X-2452984Y-5683986D03*
X-66500Y-8981286D03*
X12689832Y6143640D03*
X8863528Y241500D03*
X-7620000Y-2540000D03*
X-3253266Y8430734D03*
X-2032000Y8128000D03*
X58618Y9921553D03*
X-20134580Y-24960580D03*
X-22506973Y-19136720D03*
X-24056340Y-18811240D03*
X308957Y8899522D03*
X-3639871Y-4765428D03*
X-4450042Y-4315952D03*
X-6926396Y-5287758D03*
X-6724259Y-1025735D03*
X-9660574Y-117439D03*
X-23721882Y-21556174D03*
X9273733Y8785981D03*
X11201400Y-13208000D03*
X8217356Y-16630000D03*
X23495000Y-21590000D03*
X-7969794Y-13343813D03*
X12275724Y12340543D03*
X7257256Y-9921164D03*
X-12737670Y8889919D03*
X-15164435Y-7760251D03*
X3048000Y8636000D03*
X1207500Y2293260D03*
X-9398000Y11811000D03*
X18415000Y-23495000D03*
X-8852676Y-570989D03*
X7393500Y22353D03*
X7079885Y-881712D03*
X6453385Y-1714004D03*
D56*
X-13046120Y2225235D02*
X-13598161Y2777276D01*
X-12095193Y9168809D02*
X-12095193Y9169678D01*
X-13437988Y15170032D02*
X-12475955Y15170032D01*
X-11710179Y9316257D02*
X-11710179Y9316261D01*
X-12086169Y9159781D02*
X-12086689Y9160301D01*
X-14413671Y10807443D02*
X-15636464Y12030236D01*
X-13811541Y11112070D02*
X-14116168Y10807443D01*
X-12086169Y8620057D02*
X-12086169Y9159781D01*
X-13598161Y2812632D02*
X-13848499Y3062970D01*
X-11722196Y9331015D02*
X-11762566Y9371385D01*
X-13848499Y3479862D02*
X-14605000Y4236363D01*
X-12153791Y9258021D02*
X-12153791Y9308177D01*
X-13373981Y14272006D02*
X-12772941Y13670966D01*
X-13471989Y3635818D02*
X-13646990Y3810819D01*
X-13095479Y3791774D02*
X-13157456Y3853751D01*
X-12475955Y15170032D02*
X-11874915Y14568992D01*
X-11709659Y9315737D02*
X-11710179Y9316257D01*
X-16545560Y12062460D02*
X-13437988Y15170032D01*
X-13646990Y7191898D02*
X-13412148Y7426740D01*
X-12098706Y9173191D02*
X-12098706Y9175059D01*
X-12692567Y2439518D02*
X-13471988Y3218939D01*
X-12177988Y10394908D02*
X-12895150Y11112070D01*
X-12897848Y8238418D02*
X-12467808Y8238418D01*
X-13598161Y2777276D02*
X-13598161Y2812632D01*
X-13471988Y3218939D02*
X-13471989Y3635818D01*
X-16545560Y11275466D02*
X-16545560Y12062460D01*
X-12339013Y2793072D02*
X-13095478Y3549537D01*
X-11777281Y9413977D02*
X-11777281Y9464133D01*
X-13412148Y7426740D02*
X-13279487Y7426740D01*
X-14116168Y10807443D02*
X-14413671Y10807443D01*
X-13095478Y3549537D02*
X-13095479Y3791774D01*
X-11718683Y9324765D02*
X-11718683Y9325634D01*
X-12543206Y9697592D02*
X-14967686Y9697592D01*
X-11762566Y9399262D02*
X-11777281Y9413977D01*
X-11762566Y9371385D02*
X-11762566Y9399262D01*
X-12153791Y9308177D02*
X-12543206Y9697592D01*
X-11722196Y9329147D02*
X-11722196Y9331015D01*
X-13157456Y3853751D02*
X-13157456Y7016304D01*
X-11710179Y9316261D02*
X-11718683Y9324765D01*
X-11777281Y9464133D02*
X-12177988Y9864840D01*
X-13279487Y7426740D02*
X-12897848Y7808379D01*
X-11718683Y9325634D02*
X-11722196Y9329147D01*
X-13157456Y7016304D02*
X-11709658Y8464102D01*
X-13848499Y3062970D02*
X-13848499Y3479862D01*
X-14967686Y9697592D02*
X-16545560Y11275466D01*
X-12897848Y7808379D02*
X-12897848Y8238418D01*
X-12177988Y9864840D02*
X-12177988Y10394908D01*
X-13046120Y2085965D02*
X-13046120Y2225235D01*
X-12086689Y9160305D02*
X-12095193Y9168809D01*
X-11709658Y8464102D02*
X-11709659Y9315737D01*
X-12086689Y9160301D02*
X-12086689Y9160305D01*
X-13646990Y3810819D02*
X-13646990Y7191898D01*
X-13692197Y14272006D02*
X-13373981Y14272006D01*
X-12139076Y9243306D02*
X-12153791Y9258021D01*
X-14605000Y4236363D02*
X-14605000Y6500000D01*
X-12467808Y8238418D02*
X-12086169Y8620057D01*
X-12895150Y11112070D02*
X-13811541Y11112070D01*
X-12139076Y9215429D02*
X-12139076Y9243306D01*
X-15636464Y12327739D02*
X-13692197Y14272006D01*
X-12095193Y9169678D02*
X-12098706Y9173191D01*
X-15636464Y12030236D02*
X-15636464Y12327739D01*
X-12098706Y9175059D02*
X-12139076Y9215429D01*
X3250531Y13768106D02*
X3280138Y13738499D01*
X2085965Y13046120D02*
X2807951Y13768106D01*
X2807951Y13768106D02*
X3250531Y13768106D01*
X3280138Y13738499D02*
X7015100Y13738499D01*
X7015100Y13738499D02*
X8666709Y12086890D01*
X3575844Y1050364D02*
X2819949Y1806259D01*
X1866598Y3878580D02*
X-3075697Y3878580D01*
X2819949Y1806259D02*
X2643827Y1806258D01*
X-246380Y5326380D02*
X-699500Y5779500D01*
X11890968Y1782156D02*
X11509329Y1400517D01*
D57*
X8452315Y-2441908D02*
X8452315Y-233294D01*
X9338322Y868001D02*
X9508322Y698001D01*
X11631907Y-3500179D02*
X8863528Y-731800D01*
D56*
X12692567Y2439518D02*
X12035205Y1782156D01*
X12722075Y1054813D02*
X12236734Y1054813D01*
D57*
X8237027Y501006D02*
X8604022Y868001D01*
D56*
X3289978Y4177622D02*
X2141220Y5326380D01*
X2141220Y5326380D02*
X-246380Y5326380D01*
X8133318Y1426875D02*
X3731798Y1426875D01*
X3339977Y3040905D02*
X3289978Y3090904D01*
X12267879Y2793072D02*
X10624319Y1149512D01*
X9553922Y1149512D02*
X9483922Y1219512D01*
X8302465Y1596022D02*
X8133318Y1426875D01*
X9483922Y1219512D02*
X8458421Y1219512D01*
D57*
X9921999Y698001D02*
X11130000Y-510000D01*
D56*
X10364857Y1526022D02*
X9709878Y1526022D01*
D57*
X21717000Y4887000D02*
X21717000Y9525000D01*
D56*
X11509329Y1400517D02*
X11509329Y860793D01*
D57*
X8604022Y868001D02*
X9338322Y868001D01*
D56*
X1932001Y2593359D02*
X1507599Y3017761D01*
X9852385Y1915981D02*
X9795832Y1972534D01*
X11631907Y3500179D02*
X10047709Y1915981D01*
D57*
X15920000Y2780000D02*
X19610000Y2780000D01*
D56*
X3339977Y2381524D02*
X3339978Y2526718D01*
X2975902Y2182771D02*
X2903053Y2182771D01*
X13399674Y1732412D02*
X12722075Y1054813D01*
X3805515Y1915982D02*
X3339977Y2381524D01*
X12035205Y1782156D02*
X11890968Y1782156D01*
X2890467Y2195357D02*
X2890467Y2854711D01*
X11543040Y827082D02*
X11543040Y438173D01*
X8458421Y1219512D02*
X8289273Y1050364D01*
X9795832Y1972534D02*
X8147544Y1972532D01*
X3731798Y1426875D02*
X2975902Y2182771D01*
D57*
X12630000Y-510000D02*
X15920000Y2780000D01*
D56*
X1932001Y2518084D02*
X1932001Y2593359D01*
D57*
X9508322Y698001D02*
X9921999Y698001D01*
D56*
X9709878Y1526022D02*
X9639877Y1596023D01*
D57*
X8237027Y-18006D02*
X8237027Y501006D01*
D56*
X1507599Y3017761D02*
X-3456331Y3017761D01*
X8090994Y1915982D02*
X3805515Y1915982D01*
D57*
X8452315Y-233294D02*
X8237027Y-18006D01*
D56*
X9639877Y1596023D02*
X8302465Y1596022D01*
D57*
X11130000Y-510000D02*
X12630000Y-510000D01*
D56*
X2903053Y2182771D02*
X2890467Y2195357D01*
D57*
X10571246Y-4560839D02*
X8452315Y-2441908D01*
D56*
X-3075697Y3878580D02*
X-3763873Y4566756D01*
X11985460Y3146625D02*
X10364857Y1526022D01*
X2643827Y1806258D02*
X1932001Y2518084D01*
X10047709Y1915981D02*
X9852385Y1915981D01*
X2890467Y2854711D02*
X1866598Y3878580D01*
X8147544Y1972532D02*
X8090994Y1915982D01*
X8289273Y1050364D02*
X3575844Y1050364D01*
X10624319Y1149512D02*
X9553922Y1149512D01*
D57*
X8863528Y-731800D02*
X8863528Y241500D01*
D56*
X3289978Y3090904D02*
X3289978Y4177622D01*
D57*
X19610000Y2780000D02*
X21717000Y4887000D01*
D56*
X-3456331Y3017761D02*
X-4175070Y3736500D01*
X11509329Y860793D02*
X11543040Y827082D01*
X3339978Y2526718D02*
X3339977Y3040905D01*
X12339013Y2793072D02*
X12267879Y2793072D01*
X14046023Y4891204D02*
X14046023Y4419172D01*
X-6317712Y-11624138D02*
X-4906623Y-11624138D01*
X-4906623Y-11624138D02*
X-4207285Y-10924800D01*
X-3853732Y-11278353D02*
X-4851017Y-12275638D01*
X-4851017Y-12275638D02*
X-5569306Y-12275638D01*
D57*
X-4560839Y-10571246D02*
X-5165593Y-11176000D01*
X-10668000Y-17908034D02*
X-10668000Y-22987000D01*
X-5803716Y-10744734D02*
X-5880450Y-10668000D01*
X-5165593Y-11176000D02*
X-5834206Y-11176000D01*
X-7112000Y-12746244D02*
X-6785489Y-13072755D01*
X-5834206Y-11176000D02*
X-6012569Y-10997637D01*
X-7620000Y-11578663D02*
X-7620000Y-12700000D01*
X-6577218Y-10997637D02*
X-6944213Y-11364632D01*
X-6944213Y-11364632D02*
X-6944213Y-11469969D01*
X-6944213Y-11469969D02*
X-7112000Y-11637756D01*
X-6785489Y-13072755D02*
X-6785489Y-14027482D01*
X-10668000Y-22987000D02*
X-9525000Y-24130000D01*
X-7620000Y-12700000D02*
X-7112000Y-13208000D01*
X-5880450Y-10668000D02*
X-6709337Y-10668000D01*
X-9525000Y-17226790D02*
X-9525000Y-21590000D01*
X-6785489Y-14027482D02*
X-7566558Y-14808551D01*
X-7112000Y-13892237D02*
X-7893069Y-14673306D01*
X-6709337Y-10668000D02*
X-7620000Y-11578663D01*
X-7893069Y-15133103D02*
X-10668000Y-17908034D01*
X-7112000Y-13208000D02*
X-7112000Y-13892237D01*
X-7893069Y-14673306D02*
X-7893069Y-15133103D01*
X-4914392Y-10217693D02*
X-5441433Y-10744734D01*
X-7566558Y-14808551D02*
X-7566558Y-15268348D01*
X-7566558Y-15268348D02*
X-9525000Y-17226790D01*
X-7112000Y-11637756D02*
X-7112000Y-12746244D01*
X-5441433Y-10744734D02*
X-5803716Y-10744734D01*
X-6012569Y-10997637D02*
X-6577218Y-10997637D01*
D56*
X-13246702Y-12772941D02*
X-9980000Y-9506239D01*
X-9980000Y-9506239D02*
X-9980000Y-6603803D01*
X-9980000Y-6603803D02*
X-10769734Y-5814070D01*
X-10769734Y-5814070D02*
X-10769734Y-5466433D01*
X-10769734Y-5466433D02*
X-10217693Y-4914392D01*
D57*
X-6974920Y-5914259D02*
X-6559806Y-5914259D01*
X-6559806Y-5914259D02*
X-4961499Y-4315952D01*
X-4961499Y-4315952D02*
X-4450042Y-4315952D01*
X-9864140Y-5267946D02*
X-8154745Y-3558551D01*
X-7194073Y-3556000D02*
X-6770581Y-3556000D01*
X-6770581Y-3556000D02*
X-6540844Y-3326263D01*
X-6540844Y-2937368D02*
X-6173849Y-2570373D01*
X-8154745Y-3558551D02*
X-7196624Y-3558551D01*
X-6540844Y-3326263D02*
X-6540844Y-2937368D01*
X-5654837Y-2570373D02*
X-5287842Y-2937368D01*
X-4056614Y-2937368D02*
X-3691741Y-3302241D01*
X-8096373Y-7035712D02*
X-6974920Y-5914259D01*
X-8449926Y-6682159D02*
X-7055525Y-5287758D01*
X-7196624Y-3558551D02*
X-7194073Y-3556000D01*
X-5287842Y-2937368D02*
X-4056614Y-2937368D01*
X-6173849Y-2570373D02*
X-5654837Y-2570373D01*
X-7055525Y-5287758D02*
X-6926396Y-5287758D01*
D56*
X-9157033Y-5975052D02*
X-8604993Y-5423012D01*
X-8604993Y-5423012D02*
X-8140481Y-5423012D01*
X-8140481Y-5423012D02*
X-5914343Y-3196874D01*
X2148603Y532718D02*
X1892441Y532718D01*
X1510802Y151079D02*
X1510802Y-105083D01*
D57*
X-6097758Y-406884D02*
X-6098001Y-407127D01*
X-3391110Y5080000D02*
X-3504367Y5193257D01*
D56*
X2394132Y778247D02*
X2148603Y532718D01*
D57*
X1265086Y-1016000D02*
X-4894364Y-1016000D01*
X-6097758Y-1285241D02*
X-6867355Y-2054838D01*
X8113542Y5094458D02*
X5588000Y7620000D01*
X-3504367Y5193257D02*
X-4023379Y5193257D01*
X-6867355Y-2054838D02*
X-6867355Y-2802123D01*
D56*
X989385Y-626500D02*
X-5431367Y-626500D01*
D58*
X-29888489Y10203489D02*
X-28153939Y10203489D01*
X-24290000Y6050000D02*
X-17647704Y6050000D01*
D57*
X-4894364Y-1016000D02*
X-5471500Y-1593136D01*
D58*
X-17647704Y6050000D02*
X-17644043Y6046339D01*
D57*
X-6097758Y3118878D02*
X-6097758Y-406884D01*
X-3048000Y5080000D02*
X-3391110Y5080000D01*
X-8902872Y4306678D02*
X-8015317Y4306678D01*
D58*
X-24890000Y6650000D02*
X-24290000Y6050000D01*
D56*
X1892441Y532718D02*
X1510802Y151079D01*
X-5431367Y-626500D02*
X-5471500Y-666633D01*
D57*
X8808919Y5094458D02*
X8113542Y5094458D01*
X-6098001Y-407127D02*
X-6098001Y-926139D01*
X5588000Y7620000D02*
X-508000Y7620000D01*
X2162303Y-118783D02*
X1265086Y-1016000D01*
X-6097758Y-926382D02*
X-6097758Y-1285241D01*
X9335960Y5621499D02*
X8808919Y5094458D01*
D56*
X1510802Y-105083D02*
X989385Y-626500D01*
D57*
X-6098001Y-926139D02*
X-6097758Y-926382D01*
D58*
X-31115000Y11430000D02*
X-29888489Y10203489D01*
D57*
X9510586Y5621499D02*
X9335960Y5621499D01*
X-508000Y7620000D02*
X-3048000Y5080000D01*
X-4023379Y5193257D02*
X-6097758Y3118878D01*
D58*
X-28153939Y10203489D02*
X-24890000Y6939550D01*
X-24890000Y6939550D02*
X-24890000Y6650000D01*
D57*
X-9864140Y5267946D02*
X-8902872Y4306678D01*
X-16365043Y-8960859D02*
X-15164435Y-7760251D01*
X-16365043Y-10078864D02*
X-16365043Y-8960859D01*
X-12692567Y-2439518D02*
X-12519080Y-2266031D01*
X-12519080Y-2266031D02*
X-12466031Y-2266031D01*
X-12466031Y-2266031D02*
X-11900000Y-1700000D01*
X-11900000Y-1700000D02*
X-11420718Y-1700000D01*
X-11420718Y-1700000D02*
X-10744218Y-2376500D01*
X-12339013Y-2793072D02*
X-11811972Y-2266031D01*
X-11811972Y-2266031D02*
X-10854687Y-2266031D01*
X-10854687Y-2266031D02*
X-10744218Y-2376500D01*
D56*
X-14831774Y-8571598D02*
X-15060897Y-8571598D01*
X-13423853Y-9309053D02*
X-13912816Y-8820090D01*
X-15764003Y-9274704D02*
X-15764003Y-9477824D01*
X-14450135Y-7650235D02*
X-14450135Y-8189959D01*
X-15764003Y-9477824D02*
X-16365043Y-10078864D01*
X-14312947Y-7327947D02*
X-14542685Y-7557685D01*
X-14542685Y-7557685D02*
X-14450135Y-7650235D01*
X-13989016Y-8820090D02*
X-14158904Y-8820090D01*
X-15060897Y-8571598D02*
X-15764003Y-9274704D01*
X-13627053Y-9182053D02*
X-13989016Y-8820090D01*
X-14450135Y-8189959D02*
X-14831774Y-8571598D01*
X-13912816Y-8820090D02*
X-14158904Y-8820090D01*
D57*
X-8417893Y14034280D02*
X-7970599Y13586986D01*
D56*
X-11333152Y9471696D02*
X-11333669Y9472213D01*
D57*
X-14605000Y6500000D02*
X-14058480Y7046520D01*
D56*
X-11935343Y7705958D02*
X-11333150Y8308151D01*
D57*
X-14058480Y7277520D02*
X-13716000Y7620000D01*
D59*
X-6909013Y14648572D02*
X-7970599Y13586986D01*
D56*
X-8240461Y12935485D02*
X-8251529Y12946553D01*
D57*
X-8417893Y14442107D02*
X-8417893Y14034280D01*
D56*
X-12257437Y6380480D02*
X-12257437Y4125709D01*
D59*
X-9525000Y19071111D02*
X-7810514Y17356625D01*
X-9525000Y24257000D02*
X-6909013Y21641013D01*
D57*
X-14605000Y7470000D02*
X-15240000Y8105000D01*
D56*
X-11333150Y8308151D02*
X-11333152Y9471696D01*
D57*
X-16365043Y10078864D02*
X-15846070Y10078864D01*
D56*
X-10956641Y9627651D02*
X-10956640Y8152195D01*
X-8296049Y12981337D02*
X-8303825Y12989113D01*
X-8251529Y12946553D02*
X-8253028Y12946553D01*
D57*
X-13716000Y7620000D02*
X-13716000Y7911590D01*
X-14058480Y7046520D02*
X-14058480Y7277520D01*
D56*
X-10956640Y8152195D02*
X-11544300Y7564535D01*
D59*
X-9525000Y21717000D02*
X-9525000Y19071111D01*
D56*
X-13670966Y12772941D02*
X-12864381Y12772941D01*
D57*
X-15846070Y10078864D02*
X-14657125Y8889919D01*
D56*
X-8389917Y13072193D02*
X-8795767Y13072193D01*
X-12257437Y4125709D02*
X-11631907Y3500179D01*
X-7379375Y13256847D02*
X-7700737Y12935485D01*
X-12707447Y3868612D02*
X-12707447Y6566880D01*
D57*
X-15240000Y8636000D02*
X-14986081Y8889919D01*
X-13716000Y7911590D02*
X-13549349Y8078241D01*
X-15240000Y8105000D02*
X-15240000Y8636000D01*
D56*
X-14256157Y11562080D02*
X-14568992Y11874915D01*
X-8292831Y12981337D02*
X-8296049Y12981337D01*
X-8303825Y12989113D02*
X-8306837Y12989113D01*
X-8255311Y12065311D02*
X-8255311Y12284154D01*
X-8795767Y13072193D02*
X-8922915Y13199341D01*
X-11333669Y10238929D02*
X-12656820Y11562080D01*
X-8922915Y13199341D02*
X-9389341Y13199341D01*
X-11544300Y7564535D02*
X-11544300Y7093617D01*
X-10957158Y9628168D02*
X-10956641Y9627651D01*
X-12009120Y7265207D02*
X-12009120Y7632180D01*
D57*
X-14657125Y8889919D02*
X-12737670Y8889919D01*
D56*
X-11333669Y9472213D02*
X-11333669Y10238929D01*
X-11544300Y7093617D02*
X-12257437Y6380480D01*
D59*
X-6909013Y21641013D02*
X-6909013Y14648572D01*
D56*
X-7700737Y12935485D02*
X-8240461Y12935485D01*
X-8253028Y12946553D02*
X-8278142Y12971667D01*
X-12707447Y6566880D02*
X-12009120Y7265207D01*
D57*
X-14986081Y8889919D02*
X-12737670Y8889919D01*
D56*
X-7970599Y13736493D02*
X-7970599Y13586986D01*
X-12656820Y11562080D02*
X-14256157Y11562080D01*
X-7962947Y11772947D02*
X-8255311Y12065311D01*
X-8283161Y12971667D02*
X-8292831Y12981337D01*
X-6906847Y13256847D02*
X-7379375Y13256847D01*
X-10957158Y10865718D02*
X-10957158Y9628168D01*
X-12864381Y12772941D02*
X-10957158Y10865718D01*
X-8278142Y12971667D02*
X-8283161Y12971667D01*
X-9182053Y14947947D02*
X-7970599Y13736493D01*
X-11985460Y3146625D02*
X-12707447Y3868612D01*
X-12009120Y7632180D02*
X-11935343Y7705958D01*
X-8306837Y12989113D02*
X-8389917Y13072193D01*
D59*
X-3374174Y25626000D02*
X-3723185Y25276989D01*
X-3048000Y24112000D02*
X-4097775Y24112000D01*
X-4097775Y24112000D02*
X-4160134Y24049641D01*
X-3048000Y25626000D02*
X-3374174Y25626000D01*
X1350000Y23180000D02*
X3088600Y23180000D01*
X3088600Y23180000D02*
X3426187Y22842413D01*
D57*
X1732412Y-13399674D02*
X1205371Y-12872633D01*
X1205371Y-12872633D02*
X1205371Y-11964629D01*
X1205371Y-11964629D02*
X2490000Y-10680000D01*
X-3146625Y-11985460D02*
X-2260000Y-11098835D01*
X-2260000Y-11098835D02*
X-2260000Y-10700000D01*
D58*
X178860Y-16248859D02*
X7300001Y-23370000D01*
X710000Y-5080000D02*
X710000Y-11397202D01*
D59*
X930371Y-13304740D02*
X1378858Y-13753227D01*
D58*
X178860Y-11928343D02*
X178860Y-16248859D01*
X-800000Y-3570000D02*
X710000Y-5080000D01*
X7300001Y-23370000D02*
X7620000Y-23370000D01*
X710000Y-11397202D02*
X178860Y-11928343D01*
D59*
X2490000Y-10680000D02*
X930371Y-12239629D01*
X930371Y-12239629D02*
X930371Y-13304740D01*
D57*
X7693489Y-277636D02*
X7393500Y22353D01*
X4341385Y-9644686D02*
X4341385Y-4545621D01*
X5712006Y-3175000D02*
X6092015Y-3175000D01*
X3941874Y-9952281D02*
X3941874Y-4322874D01*
X6092015Y-3175000D02*
X7079885Y-2187130D01*
X4667905Y-9264099D02*
X4667905Y-5155716D01*
X6232748Y-1934641D02*
X6453385Y-1714004D01*
X4667905Y-5155716D02*
X8033489Y-1790132D01*
X8033489Y-1790132D02*
X8033489Y-1095245D01*
X4560839Y-10571246D02*
X3941874Y-9952281D01*
X7693489Y-755245D02*
X7693489Y-277636D01*
X7079885Y-2187130D02*
X7079885Y-881712D01*
X4914392Y-10217693D02*
X4341385Y-9644686D01*
X4341385Y-4545621D02*
X5712006Y-3175000D01*
X6232748Y-2032000D02*
X6232748Y-1934641D01*
X3941874Y-4322874D02*
X6232748Y-2032000D01*
X8033489Y-1095245D02*
X7693489Y-755245D01*
X5267946Y-9864140D02*
X4667905Y-9264099D01*
D56*
X13245467Y-4023909D02*
X13275467Y-3993909D01*
X13010793Y-5245966D02*
X12868957Y-5104130D01*
X12898956Y-3837954D02*
X12898956Y-3353015D01*
X13010793Y-6056179D02*
X13010793Y-5245966D01*
D57*
X13976988Y-2906988D02*
X13976988Y-3758744D01*
X12659282Y-5910579D02*
X12657445Y-5912416D01*
D56*
X13008956Y-6058016D02*
X13010793Y-6056179D01*
D57*
X11278353Y-3853732D02*
X12517439Y-5092818D01*
D56*
X13245467Y-4948174D02*
X13245467Y-4023909D01*
X13387303Y-5090010D02*
X13245467Y-4948174D01*
D57*
X13976988Y-3758744D02*
X14073489Y-3855245D01*
D56*
X12868957Y-3867953D02*
X12898956Y-3837954D01*
X13008956Y-6508956D02*
X13008956Y-6058016D01*
D57*
X26750000Y-14685000D02*
X28048949Y-15983949D01*
D56*
X13275467Y-3993909D02*
X13275467Y-3179898D01*
D57*
X24735000Y-14685000D02*
X26750000Y-14685000D01*
X10562829Y-7562595D02*
X10562829Y-7788408D01*
X12517439Y-5249724D02*
X12659282Y-5391567D01*
X14073489Y-3855245D02*
X14073489Y-5015245D01*
X17316511Y-7266511D02*
X24735000Y-14685000D01*
X13900000Y-2830000D02*
X13976988Y-2906988D01*
D56*
X12868957Y-5104130D02*
X12868957Y-3867953D01*
D57*
X12657445Y-5912416D02*
X12657445Y-6793855D01*
D56*
X14824010Y-8324010D02*
X13008956Y-6508956D01*
D57*
X12517439Y-5092818D02*
X12517439Y-5249724D01*
D56*
X13221978Y-3126409D02*
X13221978Y-2968929D01*
D57*
X16324755Y-7266511D02*
X17316511Y-7266511D01*
D56*
X13221978Y-2968929D02*
X12692567Y-2439518D01*
X16891000Y-8324010D02*
X14824010Y-8324010D01*
D57*
X12659282Y-5391567D02*
X12659282Y-5910579D01*
X12657445Y-6793855D02*
X12954000Y-7090410D01*
X10136117Y-7135883D02*
X10562829Y-7562595D01*
D56*
X12898956Y-3353015D02*
X12339013Y-2793072D01*
D57*
X14073489Y-5015245D02*
X16324755Y-7266511D01*
D56*
X15494000Y-7874000D02*
X13387304Y-5767304D01*
X13275467Y-3179898D02*
X13221978Y-3126409D01*
X13387304Y-5767304D02*
X13387303Y-5090010D01*
D58*
X-21717000Y-9525000D02*
X-21717000Y-4010500D01*
X-21717000Y-4010500D02*
X-21033500Y-3327000D01*
D59*
X-3048000Y24666000D02*
X-3048000Y23594000D01*
X1350000Y24130000D02*
X-3030000Y24130000D01*
X-3030000Y24130000D02*
X-3048000Y24112000D01*
X3048000Y24158000D02*
X1378000Y24158000D01*
X1378000Y24158000D02*
X1350000Y24130000D01*
X-1350000Y23180000D02*
X-1896000Y22634000D01*
X-1896000Y22634000D02*
X-3048000Y22634000D01*
X1350000Y23180000D02*
X-1350000Y23180000D01*
X4311501Y24164498D02*
X4311501Y23378499D01*
X4311501Y23378499D02*
X5420000Y22270000D01*
X5420000Y22270000D02*
X5420000Y18630000D01*
X5420000Y18630000D02*
X5374990Y18584990D01*
D58*
X-31115000Y-11430000D02*
X-29801511Y-10116511D01*
X-29801511Y-10116511D02*
X-28066961Y-10116511D01*
X-28066961Y-10116511D02*
X-26016511Y-8066061D01*
X-26016511Y-8066061D02*
X-26016511Y63489D01*
X-26016511Y63489D02*
X-24790000Y1290000D01*
X11430000Y-28575000D02*
X8871511Y-26016511D01*
X8871511Y-26016511D02*
X-63489Y-26016511D01*
X-63489Y-26016511D02*
X-1290000Y-24790000D01*
D57*
X-8213107Y-13343813D02*
X-7969794Y-13343813D01*
D58*
X-10203489Y-29888489D02*
X-10203489Y-27613489D01*
X-6962533Y-24372533D02*
X-6962533Y-16927467D01*
X-10203489Y-27613489D02*
X-6962533Y-24372533D01*
X-11430000Y-31115000D02*
X-10203489Y-29888489D01*
D57*
X-9182147Y-14312853D02*
X-8213107Y-13343813D01*
X-8547053Y-11137947D02*
X-8547053Y-12766554D01*
X-8547053Y-12766554D02*
X-7969794Y-13343813D01*
D59*
X3357999Y25118000D02*
X4311501Y24164498D01*
X3048000Y25118000D02*
X3357999Y25118000D01*
D58*
X10203489Y29888489D02*
X10203489Y27523489D01*
X10203489Y27523489D02*
X6243489Y23563489D01*
X11430000Y31115000D02*
X10203489Y29888489D01*
X6243489Y23563489D02*
X6243489Y17683489D01*
X17550000Y-5560000D02*
X22890000Y-5560000D01*
X22890000Y-5560000D02*
X27450000Y-10120000D01*
X27450000Y-10120000D02*
X29805000Y-10120000D01*
X29805000Y-10120000D02*
X31115000Y-11430000D01*
D57*
X19705990Y-10579502D02*
X19705990Y-12637011D01*
X13573489Y-2965245D02*
X13626978Y-3018734D01*
X17181266Y-7593022D02*
X21082000Y-11493756D01*
X13046120Y-2085965D02*
X13573489Y-2613334D01*
X21082000Y-11493756D02*
X21082000Y-12827000D01*
X15908732Y-7874000D02*
X15984265Y-7949533D01*
X13626978Y-3870490D02*
X13746978Y-3990490D01*
X13626978Y-3018734D02*
X13626978Y-3870490D01*
X16790490Y-7623022D02*
X16820490Y-7593022D01*
X15984265Y-7949533D02*
X17076021Y-7949533D01*
X17076021Y-7949533D02*
X19705990Y-10579502D01*
X13573489Y-2613334D02*
X13573489Y-2965245D01*
X13746978Y-5250490D02*
X16119510Y-7623022D01*
X15494000Y-7874000D02*
X15908732Y-7874000D01*
X16820490Y-7593022D02*
X17181266Y-7593022D01*
X16119510Y-7623022D02*
X16790490Y-7623022D01*
X13746978Y-3990490D02*
X13746978Y-5250490D01*
X14280268Y-1905899D02*
X14280268Y-2268182D01*
X13900000Y-2648450D02*
X13900000Y-2830000D01*
X14280268Y-2268182D02*
X13900000Y-2648450D01*
X13900000Y-2800000D02*
X13900000Y-2830000D01*
X13910000Y-2790000D02*
X13900000Y-2800000D01*
X13753227Y-1378858D02*
X14280268Y-1905899D01*
X13900000Y-2830000D02*
X13910000Y-2790000D01*
D58*
X8547053Y9512661D02*
X9273733Y8785981D01*
X8547053Y9803081D02*
X8547053Y9512661D01*
X9603153Y8392563D02*
X9273733Y8721983D01*
D56*
X9377752Y8890000D02*
X9273733Y8785981D01*
X9525000Y8890000D02*
X9377752Y8890000D01*
D58*
X9273733Y8721983D02*
X9273733Y8785981D01*
D56*
X14548499Y2174130D02*
X13753227Y1378858D01*
X14731917Y5105066D02*
X14731917Y3923280D01*
X14548499Y3739862D02*
X14548499Y2174130D01*
X14731917Y3923280D02*
X14548499Y3739862D01*
D59*
X-3048000Y24666000D02*
X-3048000Y24112000D01*
X-3048000Y24112000D02*
X-3048000Y23594000D01*
D58*
X7620000Y-22350000D02*
X8765000Y-22350000D01*
X8765000Y-22350000D02*
X9525000Y-21590000D01*
X7620000Y-23370000D02*
X8765000Y-23370000D01*
X8765000Y-23370000D02*
X9525000Y-24130000D01*
D57*
X-8226175Y-311483D02*
X-8226175Y-669813D01*
X-3065240Y-3042735D02*
X-3065240Y-3290747D01*
X-10571246Y4560839D02*
X-8382000Y2371593D01*
X-7297272Y-3232040D02*
X-6309094Y-2243862D01*
X-5238816Y-2524638D02*
X-3583337Y-2524638D01*
X-8510023Y-1988748D02*
X-8382000Y-2116771D01*
X-8510023Y-1476738D02*
X-8510023Y-1988748D01*
X-8382000Y2371593D02*
X-8382000Y-155658D01*
X-8382000Y-155658D02*
X-8226175Y-311483D01*
X-8226175Y-669813D02*
X-8226128Y-669860D01*
X-8382000Y-2116771D02*
X-8382000Y-3048000D01*
X-66500Y-6289487D02*
X-66500Y-8981286D01*
X-8247350Y-1210094D02*
X-8247350Y-1214065D01*
X-6309094Y-2243862D02*
X-5519592Y-2243862D01*
X-3583337Y-2524638D02*
X-3065240Y-3042735D01*
X-8226128Y-1188872D02*
X-8247350Y-1210094D01*
X-5519592Y-2243862D02*
X-5238816Y-2524638D01*
X-3065240Y-3290747D02*
X-66500Y-6289487D01*
X-8197960Y-3232040D02*
X-7297272Y-3232040D01*
X-8382000Y-3048000D02*
X-8197960Y-3232040D01*
X-8247350Y-1214065D02*
X-8510023Y-1476738D01*
X-8226128Y-669860D02*
X-8226128Y-1188872D01*
D58*
X-21717000Y9525000D02*
X-21717000Y8253000D01*
X-21717000Y8253000D02*
X-22350000Y7620000D01*
X-24257000Y9525000D02*
X-24257000Y8507000D01*
X-24257000Y8507000D02*
X-23370000Y7620000D01*
D59*
X-1350000Y25080000D02*
X-1896000Y25626000D01*
X-1896000Y25626000D02*
X-3048000Y25626000D01*
X1350000Y25080000D02*
X3010000Y25080000D01*
X3010000Y25080000D02*
X3048000Y25118000D01*
D56*
X15618224Y-13268224D02*
X15281583Y-13604866D01*
X18475346Y-18110340D02*
X18475346Y-14155346D01*
X16964358Y-18154988D02*
X16964358Y-13894724D01*
X20500710Y-21691340D02*
X16964358Y-18154988D01*
D57*
X17588224Y-13268224D02*
X18475346Y-14155346D01*
X15618224Y-13268224D02*
X17588224Y-13268224D01*
X19038980Y-10535677D02*
X18900988Y-10397685D01*
D56*
X12976765Y-7090410D02*
X12954000Y-7090410D01*
X14813331Y-10856420D02*
X14813331Y-10914651D01*
D57*
X19038980Y-10910980D02*
X19038980Y-10535677D01*
X17056255Y-8391523D02*
X16958513Y-8391523D01*
D56*
X15143331Y-10526420D02*
X14813331Y-10856420D01*
D57*
X16958513Y-8391523D02*
X16891000Y-8324010D01*
D56*
X11787553Y-12266247D02*
X11787553Y-11787553D01*
X13826489Y-12584094D02*
X15189842Y-11220741D01*
D57*
X18900988Y-10236256D02*
X17056255Y-8391523D01*
D56*
X13461735Y-12266247D02*
X11787553Y-12266247D01*
X14813331Y-10914651D02*
X13461735Y-12266247D01*
X15143331Y-10266437D02*
X15143331Y-10526420D01*
X14747866Y-13986511D02*
X14208134Y-13986511D01*
X21561371Y-21196365D02*
X18475346Y-18110340D01*
X15189842Y-11012375D02*
X16044286Y-10157931D01*
X13826489Y-13604866D02*
X13826489Y-12584094D01*
X20005736Y-22752000D02*
X15198910Y-17945174D01*
X11787553Y-11787553D02*
X10937817Y-10937817D01*
X15281583Y-13604866D02*
X15129511Y-13604866D01*
X14846347Y-9969453D02*
X15143331Y-10266437D01*
X14208134Y-13986511D02*
X13826489Y-13604866D01*
D57*
X18900988Y-10397685D02*
X18900988Y-10236256D01*
D56*
X15198910Y-17945174D02*
X15198910Y-14456631D01*
X15189842Y-11220741D02*
X15189842Y-11012375D01*
X15129511Y-13604866D02*
X14747866Y-13986511D01*
X16044286Y-10157931D02*
X12976765Y-7090410D01*
D59*
X14731537Y-25810098D02*
X13600860Y-26940775D01*
X17831900Y-25810098D02*
X14731537Y-25810098D01*
D56*
X26588641Y-16301641D02*
X26588641Y-17745928D01*
X27395001Y-21303001D02*
X23972490Y-24725512D01*
X26588641Y-17745928D02*
X26207322Y-18127247D01*
X27395001Y-19921105D02*
X27395001Y-21303001D01*
X14714405Y-24725512D02*
X14558062Y-24569169D01*
X26207322Y-18733426D02*
X27395001Y-19921105D01*
X23972490Y-24725512D02*
X14714405Y-24725512D01*
X26207322Y-18127247D02*
X26207322Y-18733426D01*
X26153812Y-20004190D02*
X21858695Y-24299307D01*
X21858695Y-24299307D02*
X15209563Y-24299307D01*
X14827924Y-23917668D02*
X13792583Y-23917668D01*
X15209563Y-24299307D02*
X14827924Y-23917668D01*
X26035000Y-15748000D02*
X26588641Y-16301641D01*
X26153812Y-19752918D02*
X26153812Y-20004190D01*
X13792583Y-23917668D02*
X13424651Y-23549736D01*
D58*
X9524024Y13766665D02*
X10570303Y14812944D01*
D56*
X10570303Y14794200D02*
X9542768Y13766665D01*
X9542768Y13766665D02*
X8439591Y13766665D01*
D59*
X10895572Y14487675D02*
X9160601Y14487675D01*
X9160601Y14487675D02*
X8439591Y13766665D01*
D58*
X14812944Y10570303D02*
X14812944Y9448382D01*
X14812944Y9448382D02*
X13785409Y8420847D01*
D59*
X14487675Y10895572D02*
X14487675Y9123113D01*
X14487675Y9123113D02*
X13785409Y8420847D01*
X10078217Y-8734715D02*
X9368912Y-8734715D01*
X9368912Y-8734715D02*
X9025500Y-9078127D01*
D58*
X10053934Y-8710431D02*
X9686238Y-9078127D01*
X9686238Y-9078127D02*
X9025500Y-9078127D01*
D56*
X-5793153Y12143153D02*
X-4709125Y12143153D01*
X-4709125Y12143153D02*
X-2827074Y14025204D01*
X-2827074Y14025204D02*
X-2357942Y14025204D01*
X-2357942Y14025204D02*
X-2351130Y14018392D01*
X-2351130Y14018392D02*
X-1732412Y13399674D01*
X13621161Y2661006D02*
X13046120Y2085965D01*
X13621161Y2995170D02*
X13621161Y2661006D01*
X12942105Y3674226D02*
X13621161Y2995170D01*
X12942105Y5094272D02*
X12942105Y3674226D01*
X10610409Y11595847D02*
X10344591Y11595846D01*
X10344591Y11595846D02*
X9232947Y10484202D01*
X11614591Y10591665D02*
X11614591Y10404000D01*
X11614591Y10404000D02*
X10716847Y9506256D01*
X11614591Y10591665D02*
X10677560Y10591665D01*
X10677560Y10591665D02*
X10569504Y10483609D01*
X10610409Y11595847D02*
X10610409Y10524514D01*
X10610409Y10524514D02*
X10569504Y10483609D01*
D58*
X10610409Y11595847D02*
X10339819Y11595847D01*
X10339819Y11595847D02*
X9232947Y10488975D01*
X10716847Y9506257D02*
X10716847Y9693921D01*
X10716847Y9693921D02*
X11614591Y10591665D01*
X10266066Y-11609569D02*
X10266066Y-12466934D01*
X10266066Y-12466934D02*
X10160000Y-12573000D01*
X11609569Y-10266066D02*
X11164093Y-9820590D01*
X11164093Y-9820590D02*
X10669098Y-9820590D01*
X10669098Y-9820590D02*
X9820590Y-10669098D01*
X9820590Y-10669098D02*
X9820590Y-11164093D01*
X9820590Y-11164093D02*
X10266066Y-11609569D01*
D56*
X12901247Y-11152553D02*
X12496056Y-11152553D01*
D58*
X10748294Y9725368D02*
X9708626Y9725368D01*
D59*
X9980504Y-11245588D02*
X9892217Y-11157301D01*
X11235719Y-9892217D02*
X11686885Y-10343383D01*
D56*
X12496056Y-11152553D02*
X11609569Y-10266066D01*
D58*
X11614591Y10591665D02*
X10748294Y9725368D01*
D59*
X9892217Y-10491877D02*
X10491877Y-9892217D01*
X10491877Y-9892217D02*
X11235719Y-9892217D01*
X11686885Y-10343383D02*
X12480799Y-10343383D01*
D58*
X10610409Y11595847D02*
X10610409Y10627151D01*
D59*
X10160000Y-11870268D02*
X10343383Y-11686885D01*
X9980504Y-11324006D02*
X9980504Y-11245588D01*
D58*
X10610409Y10627151D02*
X9708626Y9725368D01*
D59*
X9892217Y-11157301D02*
X9892217Y-10491877D01*
X10343383Y-11686885D02*
X9980504Y-11324006D01*
X10160000Y-12573000D02*
X10160000Y-11870268D01*
X12480799Y-10343383D02*
X13197208Y-11059792D01*
D56*
X-19682493Y-19913600D02*
X-20247059Y-19349034D01*
X-18451008Y-21145085D02*
X-19682493Y-19913600D01*
X-20312380Y-20286980D02*
X-19388955Y-20286980D01*
X-20312380Y-19414355D02*
X-20247059Y-19349034D01*
X-20312380Y-20286980D02*
X-20312380Y-19414355D01*
X-20312380Y-20286980D02*
X-19309113Y-20286980D01*
X-19388955Y-20286980D02*
X-19349034Y-20247059D01*
X-19309113Y-20286980D02*
X-18451008Y-21145085D01*
X-20358611Y-22197088D02*
X-20906618Y-22745095D01*
X-17888949Y-24208761D02*
X-19900622Y-22197088D01*
X-19900622Y-22197088D02*
X-20358611Y-22197088D01*
X-17888949Y-26143949D02*
X-17888949Y-24208761D01*
X-16654957Y-22941136D02*
X-16654957Y-24909957D01*
X-16654957Y-24909957D02*
X-17888949Y-26143949D01*
X-21825856Y-21825856D02*
X-21825856Y-21975716D01*
X-21825856Y-21975716D02*
X-22567900Y-22717760D01*
X-21914244Y-23377010D02*
X-21914244Y-22833483D01*
X-21914244Y-22833483D02*
X-21366237Y-22285476D01*
X-21331501Y-23959753D02*
X-21914244Y-23377010D01*
X14658001Y-18595001D02*
X15875000Y-19812000D01*
X12279891Y-18595001D02*
X14658001Y-18595001D01*
X3500179Y-11631907D02*
X4513102Y-12644830D01*
X6215810Y-12644830D02*
X6728180Y-13157200D01*
X11795090Y-18110200D02*
X12279891Y-18595001D01*
X11795090Y-16951290D02*
X11795090Y-18110200D01*
X8001000Y-13157200D02*
X11795090Y-16951290D01*
X4513102Y-12644830D02*
X6215810Y-12644830D01*
X6728180Y-13157200D02*
X8001000Y-13157200D01*
X15875000Y-19812000D02*
X15875000Y-21601770D01*
X6913016Y10496446D02*
X6913016Y10100070D01*
X2439518Y12692567D02*
X3065048Y13318097D01*
X8026731Y11935451D02*
X8026731Y11610161D01*
X3065048Y13318097D02*
X6644085Y13318097D01*
X6644085Y13318097D02*
X8026731Y11935451D01*
X8026731Y11610161D02*
X6913016Y10496446D01*
D57*
X-10900574Y-7930333D02*
X-10908613Y-7938372D01*
D56*
X-12128453Y-10502853D02*
X-12128453Y-9813079D01*
X-12128453Y-9813079D02*
X-10900574Y-8585200D01*
D57*
X-10900574Y-7843269D02*
X-10900574Y-7930333D01*
D56*
X-10900574Y-7843269D02*
X-10900574Y-8585200D01*
X-21063948Y21657919D02*
X-21063948Y22860000D01*
X-20848099Y21442070D02*
X-21063948Y21657919D01*
X-20848099Y19950074D02*
X-20848099Y21442070D01*
X-20247059Y19349034D02*
X-20848099Y19950074D01*
X-22860000Y22725667D02*
X-21332908Y21198575D01*
X-21332908Y19163095D02*
X-21145085Y18975272D01*
X-21145085Y18975272D02*
X-21145085Y18451008D01*
X-22860000Y24656051D02*
X-22860000Y22725667D01*
X-21332908Y21198575D02*
X-21332908Y19163095D01*
X-19518480Y23053534D02*
X-19518480Y20940769D01*
X-19518480Y20940769D02*
X-19349034Y20771323D01*
X-21063948Y26452102D02*
X-21063948Y24599002D01*
X-19349034Y20771323D02*
X-19349034Y20247059D01*
X-21063948Y24599002D02*
X-19518480Y23053534D01*
X-19052048Y21746125D02*
X-19052048Y23238121D01*
X-19052048Y23238121D02*
X-19267897Y23453970D01*
X-18451008Y21145085D02*
X-19052048Y21746125D01*
X-19267897Y23453970D02*
X-19267897Y24656051D01*
X5393400Y-14535990D02*
X7044709Y-14535990D01*
X7044709Y-14535990D02*
X10333488Y-17824769D01*
X10333488Y-17824769D02*
X10333488Y-18202574D01*
X3321835Y-14281990D02*
X5139400Y-14281990D01*
X2085965Y-13046120D02*
X3321835Y-14281990D01*
X5139400Y-14281990D02*
X5393400Y-14535990D01*
X7191952Y-13607209D02*
X11361500Y-17776757D01*
X11361500Y-17776757D02*
X11361500Y-18313020D01*
X6520609Y-13607209D02*
X7191952Y-13607209D01*
X4256005Y-13094840D02*
X6008240Y-13094840D01*
X11361500Y-18313020D02*
X12733480Y-19685000D01*
X12733480Y-19685000D02*
X13335000Y-19685000D01*
X3146625Y-11985460D02*
X4256005Y-13094840D01*
X6008240Y-13094840D02*
X6520609Y-13607209D01*
X4207285Y-10924800D02*
X4832815Y-11550330D01*
X4832815Y-11550330D02*
X4826003Y-11543518D01*
X4826003Y-11543518D02*
X4207285Y-10924800D01*
X4207285Y-10924800D02*
X5027295Y-11744810D01*
X7562685Y-12222957D02*
X7582528Y-12242800D01*
X7066757Y-12222957D02*
X7562685Y-12222957D01*
X6612506Y-11768706D02*
X7066757Y-12222957D01*
X8737600Y-12242800D02*
X8737600Y-12547600D01*
X7582528Y-12242800D02*
X8737600Y-12242800D01*
X8737600Y-12547600D02*
X13335000Y-17145000D01*
X5027295Y-11744810D02*
X6612506Y-11744810D01*
X6612506Y-11744810D02*
X6612506Y-11768706D01*
X12627892Y-17504692D02*
X12627892Y-17870000D01*
X4770199Y-12194820D02*
X6402210Y-12194820D01*
X6900200Y-12692810D02*
X8305800Y-12692810D01*
X3853732Y-11278353D02*
X4770199Y-12194820D01*
X8305800Y-12692810D02*
X8305800Y-12776200D01*
X12522200Y-17399000D02*
X12627892Y-17504692D01*
X8305800Y-12776200D02*
X12522200Y-16992600D01*
X12522200Y-16992600D02*
X12522200Y-17399000D01*
X6402210Y-12194820D02*
X6900200Y-12692810D01*
X-13974931Y-4428990D02*
X-12339013Y-2793072D01*
X-13974931Y-5125962D02*
X-13974931Y-4428990D01*
X-3810000Y13919106D02*
X-4440069Y13289037D01*
X-3253893Y14475213D02*
X-3810000Y13919106D01*
X-1378858Y13753227D02*
X-2100844Y14475213D01*
X-2100844Y14475213D02*
X-3253893Y14475213D01*
X-4737053Y12992053D02*
X-4440069Y13289037D01*
X-4440069Y13289037D02*
X-4440069Y13607251D01*
X-4440069Y13607251D02*
X-5274925Y14442107D01*
X-5274925Y14442107D02*
X-8417893Y14442107D01*
X-12475955Y-15170032D02*
X-11874915Y-14568992D01*
X-8547053Y-14947947D02*
X-8661768Y-14947947D01*
X-8661768Y-14947947D02*
X-10078864Y-16365043D01*
X-12992053Y-7277053D02*
X-13627053Y-6642053D01*
X7327947Y11722053D02*
X6189175Y10583281D01*
X6189175Y10583281D02*
X5987087Y10583281D01*
X5987087Y10583281D02*
X5886664Y10482858D01*
X5886664Y10482858D02*
X5267946Y9864140D01*
X14731917Y5105066D02*
X14731917Y5752696D01*
X14731917Y5752696D02*
X14935435Y5956214D01*
X14935435Y5956214D02*
X14935435Y6406684D01*
X-13627053Y-6642053D02*
X-13627054Y-6642053D01*
X-13627054Y-6642053D02*
X-14262054Y-6007053D01*
X-13042947Y-6057947D02*
X-13042947Y-6057946D01*
X-13042947Y-6057946D02*
X-13677947Y-5422946D01*
X-14262054Y-6007053D02*
X-14559038Y-5710069D01*
X-14559038Y-5710069D02*
X-14559038Y-4305989D01*
X-14559038Y-4305989D02*
X-13311285Y-3058236D01*
X-13311285Y-3058236D02*
X-12692567Y-2439518D01*
X-13677947Y-5422946D02*
X-13974931Y-5125962D01*
X9510586Y-5621499D02*
X10136117Y-6247030D01*
X3064738Y-14732000D02*
X3556000Y-14732000D01*
X1732412Y-13399674D02*
X3064738Y-14732000D01*
X-10502947Y-12992053D02*
X-11181860Y-13670966D01*
X-11181860Y-13670966D02*
X-12772941Y-13670966D01*
X-11874915Y-14568992D02*
X-11874915Y-14364021D01*
X-11874915Y-14364021D02*
X-10502947Y-12992053D01*
X-4914392Y10217693D02*
X-5533110Y10836411D01*
X-6032489Y11300451D02*
X-6578269Y11300451D01*
X-5533110Y10836411D02*
X-5568449Y10836411D01*
X-5568449Y10836411D02*
X-6032489Y11300451D01*
X-6578269Y11300451D02*
X-7347749Y12069931D01*
X-7347749Y12069931D02*
X-7665963Y12069931D01*
X-7665963Y12069931D02*
X-7962947Y11772947D01*
X-13627053Y-6642053D02*
X-13042947Y-6057947D01*
X-14262054Y-6007053D02*
X-13677947Y-5422946D01*
X-10078864Y-16365043D02*
X-10679904Y-16966083D01*
X-10679904Y-16966083D02*
X-10998119Y-16966083D01*
X-10998119Y-16966083D02*
X-12475955Y-15488247D01*
X-12475955Y-15488247D02*
X-12475955Y-15170032D01*
X22480609Y-20559969D02*
X21618291Y-19697651D01*
X21618291Y-19697651D02*
X21618291Y-17116709D01*
X13500053Y-9994947D02*
X14135053Y-10629947D01*
X5210999Y-14989999D02*
X5214998Y-14986000D01*
X5969000Y-14986000D02*
X6388053Y-15405053D01*
X4953000Y-14732000D02*
X5210999Y-14989999D01*
X5214998Y-14986000D02*
X5969000Y-14986000D01*
X3556000Y-14732000D02*
X4953000Y-14732000D01*
X-10078864Y16365043D02*
X-10078864Y15844758D01*
D57*
X9231139Y5975052D02*
X10151640Y6895553D01*
X-11631907Y-3500179D02*
X-10744218Y-2612490D01*
D56*
X6600583Y-9782564D02*
X6600583Y-11096477D01*
D57*
X11772947Y7150053D02*
X10406140Y7150053D01*
X4258811Y8855005D02*
X4258811Y8850732D01*
D56*
X-8079153Y9984153D02*
X-7855001Y9760001D01*
X-8449926Y6682159D02*
X-9075457Y7307690D01*
X-9436053Y9055053D02*
X-8763000Y8382000D01*
D57*
X14227060Y7115060D02*
X14192067Y7150053D01*
X10136117Y-7873360D02*
X10136117Y-7135883D01*
D56*
X-9232947Y-10293608D02*
X-9232947Y-10452053D01*
D57*
X14227060Y7115060D02*
X14935435Y6406684D01*
X-9944054Y-10452053D02*
X-10401109Y-10909108D01*
D56*
X2012094Y-13753227D02*
X2990867Y-14732000D01*
D57*
X9157033Y5975052D02*
X9231139Y5975052D01*
X-10553747Y-11061746D02*
X-10401109Y-10909108D01*
D56*
X-8763000Y8382000D02*
X-8763000Y7924737D01*
X-9075457Y7612280D02*
X-8763000Y7924737D01*
X12740308Y-9716872D02*
X12891383Y-9867947D01*
D57*
X10406140Y7150053D02*
X10151640Y6895553D01*
D56*
X-7035712Y-8096373D02*
X-9232947Y-10293608D01*
D57*
X5267946Y9864140D02*
X4258811Y8855005D01*
D56*
X10136117Y-7873360D02*
X11979629Y-9716872D01*
X11979629Y-9716872D02*
X12740308Y-9716872D01*
D57*
X14192067Y7150053D02*
X11772947Y7150053D01*
D56*
X7277053Y-11772947D02*
X7749085Y-11772947D01*
X2990867Y-14732000D02*
X3556000Y-14732000D01*
D57*
X10136117Y-7135883D02*
X10136117Y-6247030D01*
D56*
X-9436053Y9055053D02*
X-9436053Y9135253D01*
X5975052Y-9157033D02*
X6600583Y-9782564D01*
X12891383Y-9867947D02*
X13373053Y-9867947D01*
X7761975Y-11785837D02*
X8914177Y-11785837D01*
X7749085Y-11772947D02*
X7761975Y-11785837D01*
X-9075457Y7307690D02*
X-9075457Y7612280D01*
X-10078864Y15844758D02*
X-9182053Y14947947D01*
D57*
X-10553747Y-12941253D02*
X-10553747Y-11061746D01*
D56*
X-8587153Y9984153D02*
X-8079153Y9984153D01*
X6600583Y-11096477D02*
X7277053Y-11772947D01*
D57*
X14192066Y7150053D02*
X14227060Y7115060D01*
D56*
X-9436053Y9135253D02*
X-8587153Y9984153D01*
D57*
X12484147Y7861253D02*
X11772947Y7150053D01*
X-10744218Y-2612490D02*
X-10744218Y-2376500D01*
X-9232947Y-10452053D02*
X-9944054Y-10452053D01*
D56*
X8914177Y-11785837D02*
X9081011Y-11619003D01*
X14001602Y-20091400D02*
X13683001Y-20410001D01*
X10984989Y-17932712D02*
X7138257Y-14085980D01*
X6059580Y-13831980D02*
X4286039Y-13831980D01*
X12922554Y-20410001D02*
X10984989Y-18472436D01*
X13683001Y-20410001D02*
X12922554Y-20410001D01*
X14808200Y-20091400D02*
X14001602Y-20091400D01*
X10984989Y-18472436D02*
X10984989Y-17932712D01*
X7138257Y-14085980D02*
X6313580Y-14085980D01*
X6313580Y-14085980D02*
X6059580Y-13831980D01*
X4286039Y-13831980D02*
X2793072Y-12339013D01*
X11278353Y3853732D02*
X9790113Y2365492D01*
X6558454Y2365492D02*
X3991711Y2365492D01*
X6622967Y2300979D02*
X6558454Y2365492D01*
X7347032Y2300978D02*
X6622967Y2300979D01*
X3739489Y3277097D02*
X3739488Y4363816D01*
X3739488Y4363816D02*
X3689489Y4413815D01*
X3789489Y2567716D02*
X3789487Y3227099D01*
X9790113Y2365492D02*
X7411546Y2365492D01*
D57*
X1617972Y6794508D02*
X1179751Y6794508D01*
X3689489Y4722991D02*
X1617972Y6794508D01*
D56*
X3689489Y4413815D02*
X3689489Y4722991D01*
X7411546Y2365492D02*
X7347032Y2300978D01*
X3789487Y3227099D02*
X3739489Y3277097D01*
X3991711Y2365492D02*
X3789489Y2567716D01*
D58*
X19576051Y27831051D02*
X19576051Y25129909D01*
X19576051Y25129909D02*
X19685000Y25020960D01*
D59*
X19685000Y25020960D02*
X19685000Y27940000D01*
X19685000Y25020960D02*
X20273695Y25020960D01*
X23142843Y24467602D02*
X21089368Y24467602D01*
X20273695Y25020960D02*
X21089368Y24467602D01*
D56*
X19621270Y21035483D02*
X19706117Y21035483D01*
X19706117Y21035483D02*
X20345400Y20396200D01*
X21035483Y19621270D02*
X21035483Y19706117D01*
X21035483Y19706117D02*
X20345400Y20396200D01*
D58*
X21905406Y21886662D02*
X21835862Y21886662D01*
X21835862Y21886662D02*
X20345400Y20396200D01*
X19621270Y21035483D02*
X21035483Y19621270D01*
X24914704Y20616863D02*
X24914704Y19118194D01*
X21905406Y21886662D02*
X22527659Y22508915D01*
D59*
X20964772Y19691981D02*
X21035483Y19621270D01*
D58*
X22527659Y22508915D02*
X23022652Y22508915D01*
D59*
X20328377Y20328377D02*
X20964772Y19691981D01*
X21905406Y21886662D02*
X23814594Y23795850D01*
D58*
X23022652Y22508915D02*
X24914704Y20616863D01*
D59*
X20328377Y20328377D02*
X20347121Y20328377D01*
X19691981Y20964772D02*
X19621270Y21035483D01*
X20328377Y20328377D02*
X19691981Y20964772D01*
X20347121Y20328377D02*
X21905406Y21886662D01*
D58*
X25472198Y18560700D02*
X26143949Y17888949D01*
X24914704Y19118194D02*
X25472198Y18560700D01*
D56*
X-24442151Y-23027938D02*
X-25785654Y-21684435D01*
X-23027938Y-24442151D02*
X-24442151Y-23027938D01*
X-21684435Y-25785654D02*
X-23027938Y-24442151D01*
X-21260171Y-26209918D02*
X-21684435Y-25785654D01*
X22343292Y-16768708D02*
X22343292Y-18867016D01*
X18980990Y-12700000D02*
X18980990Y-13406406D01*
X18980990Y-12700000D02*
X18980990Y-12134010D01*
X22515966Y-19039690D02*
X23117006Y-19640730D01*
X19038980Y-11642020D02*
X19038980Y-10910980D01*
X19255980Y-11859020D02*
X19038980Y-11642020D01*
X22343292Y-18867016D02*
X22515966Y-19039690D01*
X18980990Y-12134010D02*
X19255980Y-11859020D01*
X18980990Y-13406406D02*
X22343292Y-16768708D01*
X25450458Y-17307278D02*
X22039669Y-13896489D01*
X22039669Y-13896489D02*
X21663511Y-13896489D01*
X10571246Y4560839D02*
X8887896Y2877489D01*
X6809161Y2750489D02*
X6682161Y2877489D01*
X7160839Y2750489D02*
X6809161Y2750489D01*
X7287839Y2877489D02*
X7160839Y2750489D01*
X4996511Y2877489D02*
X4572000Y3302000D01*
X8887896Y2877489D02*
X7287839Y2877489D01*
X6682161Y2877489D02*
X4996511Y2877489D01*
X22860000Y-16118284D02*
X20515858Y-13774142D01*
X22860000Y-16272455D02*
X22860000Y-16118284D01*
X24672640Y-18085095D02*
X22860000Y-16272455D01*
D57*
X9113301Y3810000D02*
X6096000Y3810000D01*
X6096000Y3810000D02*
X6093543Y3812457D01*
X10217693Y4914392D02*
X9113301Y3810000D01*
X9337099Y4740905D02*
X8513339Y4740905D01*
X7978297Y4767947D02*
X7907225Y4839019D01*
X8513339Y4740905D02*
X8486297Y4767947D01*
X9864140Y5267946D02*
X9337099Y4740905D01*
X7907225Y4839019D02*
X7120105Y4839019D01*
D56*
X16130791Y-11098880D02*
X14478000Y-12751671D01*
X14478000Y-12751671D02*
X14478000Y-13335000D01*
D57*
X8486297Y4767947D02*
X7978297Y4767947D01*
D56*
X-10756947Y6160753D02*
X-9864140Y5267946D01*
X-10756947Y7531053D02*
X-10756947Y6160753D01*
X-19267897Y28248153D02*
X-19267897Y26395053D01*
X-17722429Y22736821D02*
X-17552983Y22567375D01*
X-17552983Y22567375D02*
X-17552983Y22043111D01*
X-17722429Y24849585D02*
X-17722429Y22736821D01*
X-15278053Y23914053D02*
X-15278053Y22797744D01*
X-19267897Y26395053D02*
X-17722429Y24849585D01*
X-16633726Y21442071D02*
X-16951943Y21442071D01*
X-16951943Y21442071D02*
X-17552983Y22043111D01*
X-15278053Y22797744D02*
X-16633726Y21442071D01*
X-16654957Y23908937D02*
X-15963947Y24599947D01*
X-16654957Y25635213D02*
X-16654957Y22941136D01*
X-17471846Y26452102D02*
X-16654957Y25635213D01*
X-16654957Y22941136D02*
X-16654957Y23908937D01*
D57*
X-13670966Y-12772941D02*
X-13246702Y-12772941D01*
D56*
X19793591Y22524878D02*
X20447000Y22524878D01*
X20447000Y22524878D02*
X20480535Y22558413D01*
X20480535Y22558413D02*
X21233654Y22558413D01*
X19791250Y22527219D02*
X19793591Y22524878D01*
X19360025Y22527219D02*
X19791250Y22527219D01*
X19282503Y22449697D02*
X19360025Y22527219D01*
X18207056Y22449697D02*
X19282503Y22449697D01*
D59*
X21233654Y22558413D02*
X20799669Y22124428D01*
X20799669Y22124428D02*
X18532325Y22124428D01*
D56*
X22577157Y21214910D02*
X22577157Y20655291D01*
X22577157Y20655291D02*
X22543622Y20621755D01*
X22543622Y19513607D02*
X22449697Y19419682D01*
X22543622Y20621755D02*
X22543622Y19513607D01*
X22449697Y19419682D02*
X22449697Y18188313D01*
D59*
X22124428Y20762181D02*
X22124428Y18532325D01*
X22577157Y21214910D02*
X22124428Y20762181D01*
D57*
X23370000Y8638000D02*
X23370000Y7747000D01*
X24257000Y9525000D02*
X23370000Y8638000D01*
X24790000Y8992000D02*
X24257000Y9525000D01*
X24790000Y1250000D02*
X24790000Y8992000D01*
X21717000Y9525000D02*
X22350000Y8892000D01*
X22350000Y8892000D02*
X22350000Y7747000D01*
X-3911777Y-7142779D02*
X-2452984Y-5683986D01*
X-7389266Y-7742819D02*
X-6789226Y-7142779D01*
X-6789226Y-7142779D02*
X-3911777Y-7142779D01*
X10924800Y4207285D02*
X10924800Y4378608D01*
X10924800Y4378608D02*
X12689832Y6143640D01*
X-4172489Y7003511D02*
X-7899617Y3276383D01*
X1134501Y10522744D02*
X1134501Y8273022D01*
X-778490Y8273022D02*
X-2048001Y7003511D01*
X-2048001Y7003511D02*
X-4172489Y7003511D01*
X-7899617Y3276383D02*
X-7899617Y-2260383D01*
X805860Y10851385D02*
X1134501Y10522744D01*
X1378858Y13753227D02*
X805860Y13180229D01*
X1134501Y8273022D02*
X-778490Y8273022D01*
X-7899617Y-2260383D02*
X-7620000Y-2540000D01*
X805860Y13180229D02*
X805860Y10851385D01*
X-4207285Y10782698D02*
X-3253266Y9828679D01*
X-3253266Y9828679D02*
X-3253266Y8430734D01*
X-4207285Y10924800D02*
X-4207285Y10782698D01*
X-2532524Y8628524D02*
X-2032000Y8128000D01*
X-2532524Y9957145D02*
X-2532524Y8628524D01*
X-3853732Y11278353D02*
X-2532524Y9957145D01*
X-3146625Y11948759D02*
X-1572130Y10374264D01*
X-1572130Y10374264D02*
X-1572130Y10241865D01*
X-3146625Y11985460D02*
X-3146625Y11948759D01*
X-1251818Y9921553D02*
X-1572130Y10241865D01*
X58618Y9921553D02*
X-1251818Y9921553D01*
D56*
X-22506973Y-19136720D02*
X-21830797Y-19136720D01*
X-21830797Y-19136720D02*
X-21145085Y-18451008D01*
X-22798083Y-17552983D02*
X-22043111Y-17552983D01*
X-24056340Y-18811240D02*
X-22798083Y-17552983D01*
X-14568992Y-11874915D02*
X-13972547Y-11874915D01*
X-13972547Y-11874915D02*
X-13286379Y-11188747D01*
X-13286379Y-11188747D02*
X-12814347Y-11188747D01*
X-15467017Y-10976889D02*
X-14485075Y-9994947D01*
X-14485075Y-9994947D02*
X-14109747Y-9994947D01*
D57*
X308957Y8899522D02*
X-767794Y8899522D01*
X-767794Y8899522D02*
X-3500179Y11631907D01*
X-6684253Y-6330700D02*
X-5205143Y-6330700D01*
X-5205143Y-6330700D02*
X-3639871Y-4765428D01*
X-7742819Y-7389266D02*
X-6684253Y-6330700D01*
X2540000Y9144000D02*
X1342511Y7946511D01*
X1132371Y11059629D02*
X2540000Y9652000D01*
X1732412Y13328283D02*
X1132371Y12728242D01*
X2540000Y9652000D02*
X2540000Y9144000D01*
X1732412Y13399674D02*
X1732412Y13328283D01*
X-643245Y7946511D02*
X-2675245Y5914511D01*
X-7428989Y3192767D02*
X-7428989Y-321005D01*
X-7428989Y-321005D02*
X-6724259Y-1025735D01*
X1342511Y7946511D02*
X-643245Y7946511D01*
X-2675245Y5914511D02*
X-4707245Y5914511D01*
X1132371Y12728242D02*
X1132371Y11059629D01*
X-4707245Y5914511D02*
X-7428989Y3192767D01*
X-11278353Y-3853732D02*
X-9820525Y-2395904D01*
X-9703404Y-2105480D02*
X-9703404Y-160269D01*
X-9820525Y-2395904D02*
X-9820525Y-2222601D01*
X-9703404Y-160269D02*
X-9660574Y-117439D01*
X-9820525Y-2222601D02*
X-9703404Y-2105480D01*
D56*
X-23542176Y-17255997D02*
X-22941136Y-16654957D01*
X-22197088Y-20358611D02*
X-21313751Y-20358611D01*
X-19925284Y-21747078D02*
X-19369311Y-21747078D01*
X-21313751Y-20358611D02*
X-19925284Y-21747078D01*
X-18154023Y-22644151D02*
X-17552983Y-22043111D01*
X-24781341Y-20424373D02*
X-24781341Y-18495162D01*
X-24781341Y-20496715D02*
X-24781341Y-18495162D01*
X-23721882Y-21556174D02*
X-24781341Y-20496715D01*
X-19369311Y-21747078D02*
X-18472238Y-22644151D01*
X-24781341Y-18495162D02*
X-23542176Y-17255997D01*
X-23751089Y-21454625D02*
X-24781341Y-20424373D01*
X-23293102Y-21454625D02*
X-23751089Y-21454625D01*
X-22745095Y-20906618D02*
X-23394651Y-21556174D01*
X-23394651Y-21556174D02*
X-23721882Y-21556174D01*
X-22745095Y-20906618D02*
X-23293102Y-21454625D01*
X-18472238Y-22644151D02*
X-18154023Y-22644151D01*
X-22745095Y-20906618D02*
X-22197088Y-20358611D01*
X-12357053Y-5705969D02*
X-12065000Y-5998022D01*
X-12357053Y-5372053D02*
X-12357053Y-5705969D01*
X-14312947Y-7327947D02*
X-13677947Y-7962947D01*
X4914392Y10217693D02*
X5752025Y11055326D01*
X24036244Y-19004334D02*
X24637284Y-19605374D01*
X-5422947Y13677947D02*
X-6485747Y13677947D01*
X-6485747Y13677947D02*
X-6906847Y13256847D01*
X14846347Y-9969453D02*
X14135147Y-9258253D01*
X5752025Y11055326D02*
X5752025Y11308282D01*
X5752025Y11308282D02*
X5752025Y11517919D01*
X5752025Y11517919D02*
X6642053Y12407947D01*
X-5267946Y9864140D02*
X-5893476Y10489670D01*
X-5893476Y10489670D02*
X-6679670Y10489670D01*
X-6679670Y10489670D02*
X-7277053Y11087053D01*
X-10976889Y-15467017D02*
X-10437911Y-15467017D01*
D58*
X11383293Y-13026107D02*
X11201400Y-13208000D01*
D56*
X-12357053Y-5372053D02*
X-12357053Y-5674268D01*
X-12357053Y-5674268D02*
X-12068313Y-5963008D01*
X-14312947Y-7327947D02*
X-14312948Y-7327947D01*
X-14312948Y-7327947D02*
X-14947948Y-6692947D01*
X-12992053Y-4737052D02*
X-12992053Y-4737053D01*
X-12992053Y-4737053D02*
X-12357053Y-5372053D01*
X-11985460Y-3146625D02*
X-12992053Y-4153218D01*
X-12992053Y-4153218D02*
X-12992053Y-4737052D01*
X24637284Y-19605374D02*
X24637284Y-20447716D01*
X24637284Y-20447716D02*
X23495000Y-21590000D01*
X14046023Y4891204D02*
X14033133Y4904094D01*
X14033133Y4904094D02*
X14033133Y5533286D01*
X14033133Y5533286D02*
X14055799Y5555952D01*
X14055799Y5555952D02*
X14055799Y6207966D01*
X-10437911Y-15467017D02*
X-9232947Y-14262053D01*
X-10976889Y-15467017D02*
X-10976889Y-14837783D01*
X-10976889Y-14837783D02*
X-9817053Y-13677947D01*
D57*
X-14626439Y3113461D02*
X-14626439Y3632473D01*
X4739766Y10217693D02*
X3158073Y8636000D01*
D56*
X9135079Y7552658D02*
X9429010Y7258727D01*
X18415000Y-23495000D02*
X18814999Y-23894999D01*
D59*
X11201400Y-13055600D02*
X12101192Y-12155808D01*
D57*
X3158073Y8636000D02*
X3048000Y8636000D01*
D56*
X-10121947Y9740947D02*
X-10418931Y9443963D01*
D59*
X10937817Y-10937817D02*
X10937817Y-10992433D01*
D56*
X14011769Y4384918D02*
X14011769Y2344507D01*
X-8661163Y11074163D02*
X-7761975Y11074163D01*
X7597000Y-11099800D02*
X7597000Y-10071873D01*
X-9700847Y11508153D02*
X-9398000Y11811000D01*
X-9700847Y11097847D02*
X-9700847Y11508153D01*
X10530437Y8392563D02*
X11087053Y7835947D01*
X-6682159Y-8449926D02*
X-7746856Y-9514623D01*
D57*
X-14626439Y3632473D02*
X-14993434Y3999468D01*
D56*
X-12096011Y-8082811D02*
X-12476331Y-8463131D01*
X9603153Y8392563D02*
X10530437Y8392563D01*
X-9525467Y7050594D02*
X-9525467Y7671361D01*
X-10368037Y8513931D02*
X-10071053Y8216947D01*
D57*
X-9398000Y13190682D02*
X-9389341Y13199341D01*
D56*
X11798253Y8547147D02*
X9757737Y8547147D01*
X-10976889Y15370995D02*
X-9867947Y14262053D01*
X-7749085Y11087053D02*
X-7277053Y11087053D01*
X7678303Y-16090947D02*
X8217356Y-16630000D01*
X9757737Y8547147D02*
X9603153Y8392563D01*
D57*
X-14993434Y3999468D02*
X-15211496Y3999468D01*
D56*
X9135079Y7924489D02*
X9135079Y7552658D01*
X21190001Y-23894999D02*
X23095001Y-21989999D01*
D59*
X11201400Y-13208000D02*
X11201400Y-13055600D01*
D56*
X23095001Y-21989999D02*
X23495000Y-21590000D01*
X-12357053Y-5372053D02*
X-12096011Y-5633095D01*
X14046023Y4419172D02*
X14011769Y4384918D01*
X11094301Y-6217407D02*
X14058947Y-9182053D01*
D57*
X-13399674Y1732412D02*
X-14703581Y3036319D01*
D59*
X10937817Y-10992433D02*
X12101192Y-12155808D01*
D56*
X-7746856Y-9514623D02*
X-7746856Y-10337750D01*
X-12476331Y-8463131D02*
X-13406363Y-8463131D01*
X14011769Y2344507D02*
X13399674Y1732412D01*
D57*
X-15240000Y4027972D02*
X-15240000Y6835000D01*
D56*
X-9867853Y-13627147D02*
X-9182147Y-14312853D01*
X-10418931Y9443963D02*
X-10418931Y8564825D01*
X10813601Y-6217407D02*
X11094301Y-6217407D01*
X-8250069Y-10840963D02*
X-8547053Y-11137947D01*
D57*
X-9398000Y11811000D02*
X-9398000Y13190682D01*
D56*
X18814999Y-23894999D02*
X21190001Y-23894999D01*
X-10121947Y10676747D02*
X-9700847Y11097847D01*
X-10976889Y15467017D02*
X-10976889Y15370995D01*
X9864140Y-5267946D02*
X10813601Y-6217407D01*
X-7761975Y11074163D02*
X-7749085Y11087053D01*
X7597000Y-10071873D02*
X6328606Y-8803479D01*
X-12096011Y-5633095D02*
X-12096011Y-8082811D01*
X-10121947Y9740947D02*
X-10121947Y10676747D01*
D57*
X4914392Y10217693D02*
X4739766Y10217693D01*
D56*
X9422197Y6947324D02*
X8803479Y6328606D01*
X-9398000Y11811000D02*
X-8661163Y11074163D01*
X-9774069Y7919963D02*
X-10071053Y8216947D01*
D57*
X-14703581Y3036319D02*
X-14626439Y3113461D01*
D56*
X-9867947Y13677947D02*
X-9867947Y14262053D01*
X-10418931Y8564825D02*
X-10368037Y8513931D01*
X-8803479Y6328606D02*
X-9525467Y7050594D01*
D58*
X11607800Y-11607800D02*
X11040534Y-11040534D01*
X11201400Y-13208000D02*
X11607800Y-12801600D01*
D56*
X9603154Y8746980D02*
X9603154Y8392563D01*
X-9389341Y13199341D02*
X-9867947Y13677947D01*
D58*
X11607800Y-12801600D02*
X11607800Y-11607800D01*
D57*
X-15240000Y6835000D02*
X-14605000Y7470000D01*
D56*
X8547053Y9803081D02*
X9603154Y8746980D01*
X9429010Y6954137D02*
X9422197Y6947324D01*
X9429010Y7258727D02*
X9429010Y6954137D01*
X7073947Y-16090947D02*
X7678303Y-16090947D01*
X-7746856Y-10337750D02*
X-8250069Y-10840963D01*
X-13406363Y-8463131D02*
X-13703347Y-8166147D01*
D57*
X-15211496Y3999468D02*
X-15240000Y4027972D01*
D56*
X9603153Y8392563D02*
X9135079Y7924489D01*
X-9525467Y7671361D02*
X-9774069Y7919963D01*
D57*
X-9605462Y-2887947D02*
X-9174059Y-2887947D01*
X-8962511Y-680824D02*
X-8852676Y-570989D01*
X-9174059Y-2887947D02*
X-8962511Y-2676399D01*
X-10924800Y-4207285D02*
X-9605462Y-2887947D01*
X-8962511Y-2676399D02*
X-8962511Y-680824D01*
M02*
