G04 #@! TF.GenerationSoftware,KiCad,Pcbnew,5.99.0-unknown-29c2f3b7d4~131~ubuntu20.04.1*
G04 #@! TF.CreationDate,2021-09-13T23:50:59+03:00*
G04 #@! TF.ProjectId,FreeEEG32-alpha131,46726565-4545-4473-9332-2d616c706861,rev?*
G04 #@! TF.SameCoordinates,Original*
G04 #@! TF.FileFunction,Copper,L1,Top*
G04 #@! TF.FilePolarity,Positive*
%FSLAX46Y46*%
G04 Gerber Fmt 4.6, Leading zero omitted, Abs format (unit mm)*
G04 Created by KiCad (PCBNEW 5.99.0-unknown-29c2f3b7d4~131~ubuntu20.04.1) date 2021-09-13 23:50:59*
%MOMM*%
%LPD*%
G01*
G04 APERTURE LIST*
G04 Aperture macros list*
%AMRoundRect*
0 Rectangle with rounded corners*
0 $1 Rounding radius*
0 $2 $3 $4 $5 $6 $7 $8 $9 X,Y pos of 4 corners*
0 Add a 4 corners polygon primitive as box body*
4,1,4,$2,$3,$4,$5,$6,$7,$8,$9,$2,$3,0*
0 Add four circle primitives for the rounded corners*
1,1,$1+$1,$2,$3*
1,1,$1+$1,$4,$5*
1,1,$1+$1,$6,$7*
1,1,$1+$1,$8,$9*
0 Add four rect primitives between the rounded corners*
20,1,$1+$1,$2,$3,$4,$5,0*
20,1,$1+$1,$4,$5,$6,$7,0*
20,1,$1+$1,$6,$7,$8,$9,0*
20,1,$1+$1,$8,$9,$2,$3,0*%
%AMHorizOval*
0 Thick line with rounded ends*
0 $1 width*
0 $2 $3 position (X,Y) of the first rounded end (center of the circle)*
0 $4 $5 position (X,Y) of the second rounded end (center of the circle)*
0 Add line between two ends*
20,1,$1,$2,$3,$4,$5,0*
0 Add two circle primitives to create the rounded ends*
1,1,$1,$2,$3*
1,1,$1,$4,$5*%
%AMRotRect*
0 Rectangle, with rotation*
0 The origin of the aperture is its center*
0 $1 length*
0 $2 width*
0 $3 Rotation angle, in degrees counterclockwise*
0 Add horizontal line*
21,1,$1,$2,0,0,$3*%
G04 Aperture macros list end*
G04 #@! TA.AperFunction,SMDPad,CuDef*
%ADD10RoundRect,0.075000X0.675000X0.075000X-0.675000X0.075000X-0.675000X-0.075000X0.675000X-0.075000X0*%
G04 #@! TD*
G04 #@! TA.AperFunction,SMDPad,CuDef*
%ADD11RoundRect,0.075000X0.075000X0.675000X-0.075000X0.675000X-0.075000X-0.675000X0.075000X-0.675000X0*%
G04 #@! TD*
G04 #@! TA.AperFunction,SMDPad,CuDef*
%ADD12RotRect,1.075000X0.250000X45.000000*%
G04 #@! TD*
G04 #@! TA.AperFunction,SMDPad,CuDef*
%ADD13RotRect,0.250000X1.075000X45.000000*%
G04 #@! TD*
G04 #@! TA.AperFunction,SMDPad,CuDef*
%ADD14RoundRect,0.147500X-0.226274X-0.017678X-0.017678X-0.226274X0.226274X0.017678X0.017678X0.226274X0*%
G04 #@! TD*
G04 #@! TA.AperFunction,SMDPad,CuDef*
%ADD15RoundRect,0.147500X0.017678X-0.226274X0.226274X-0.017678X-0.017678X0.226274X-0.226274X0.017678X0*%
G04 #@! TD*
G04 #@! TA.AperFunction,SMDPad,CuDef*
%ADD16RoundRect,0.218750X0.026517X-0.335876X0.335876X-0.026517X-0.026517X0.335876X-0.335876X0.026517X0*%
G04 #@! TD*
G04 #@! TA.AperFunction,ComponentPad*
%ADD17RotRect,1.700000X1.700000X45.000000*%
G04 #@! TD*
G04 #@! TA.AperFunction,ComponentPad*
%ADD18HorizOval,1.700000X0.000000X0.000000X0.000000X0.000000X0*%
G04 #@! TD*
G04 #@! TA.AperFunction,SMDPad,CuDef*
%ADD19RoundRect,0.147500X-0.017678X0.226274X-0.226274X0.017678X0.017678X-0.226274X0.226274X-0.017678X0*%
G04 #@! TD*
G04 #@! TA.AperFunction,SMDPad,CuDef*
%ADD20RotRect,1.060000X0.650000X225.000000*%
G04 #@! TD*
G04 #@! TA.AperFunction,SMDPad,CuDef*
%ADD21RotRect,2.280000X1.500000X135.000000*%
G04 #@! TD*
G04 #@! TA.AperFunction,SMDPad,CuDef*
%ADD22RoundRect,0.147500X0.226274X0.017678X0.017678X0.226274X-0.226274X-0.017678X-0.017678X-0.226274X0*%
G04 #@! TD*
G04 #@! TA.AperFunction,SMDPad,CuDef*
%ADD23RoundRect,0.218750X-0.335876X-0.026517X-0.026517X-0.335876X0.335876X0.026517X0.026517X0.335876X0*%
G04 #@! TD*
G04 #@! TA.AperFunction,SMDPad,CuDef*
%ADD24RotRect,0.400000X1.350000X135.000000*%
G04 #@! TD*
G04 #@! TA.AperFunction,SMDPad,CuDef*
%ADD25RotRect,1.200000X1.900000X135.000000*%
G04 #@! TD*
G04 #@! TA.AperFunction,ComponentPad*
%ADD26C,1.450000*%
G04 #@! TD*
G04 #@! TA.AperFunction,ComponentPad*
%ADD27HorizOval,1.200000X-0.247487X-0.247487X0.247487X0.247487X0*%
G04 #@! TD*
G04 #@! TA.AperFunction,SMDPad,CuDef*
%ADD28RotRect,1.500000X1.900000X135.000000*%
G04 #@! TD*
G04 #@! TA.AperFunction,ComponentPad*
%ADD29HorizOval,1.200000X0.247487X0.247487X-0.247487X-0.247487X0*%
G04 #@! TD*
G04 #@! TA.AperFunction,SMDPad,CuDef*
%ADD30RotRect,0.900000X1.700000X225.000000*%
G04 #@! TD*
G04 #@! TA.AperFunction,SMDPad,CuDef*
%ADD31RotRect,1.750000X1.800000X225.000000*%
G04 #@! TD*
G04 #@! TA.AperFunction,ComponentPad*
%ADD32RotRect,1.700000X1.700000X225.000000*%
G04 #@! TD*
G04 #@! TA.AperFunction,ComponentPad*
%ADD33HorizOval,1.700000X0.000000X0.000000X0.000000X0.000000X0*%
G04 #@! TD*
G04 #@! TA.AperFunction,SMDPad,CuDef*
%ADD34R,2.000000X3.500000*%
G04 #@! TD*
G04 #@! TA.AperFunction,SMDPad,CuDef*
%ADD35RotRect,0.900000X1.700000X45.000000*%
G04 #@! TD*
G04 #@! TA.AperFunction,SMDPad,CuDef*
%ADD36RoundRect,0.218750X0.335876X0.026517X0.026517X0.335876X-0.335876X-0.026517X-0.026517X-0.335876X0*%
G04 #@! TD*
G04 #@! TA.AperFunction,ComponentPad*
%ADD37RotRect,1.700000X1.700000X315.000000*%
G04 #@! TD*
G04 #@! TA.AperFunction,ComponentPad*
%ADD38HorizOval,1.700000X0.000000X0.000000X0.000000X0.000000X0*%
G04 #@! TD*
G04 #@! TA.AperFunction,SMDPad,CuDef*
%ADD39RotRect,1.500000X0.600000X135.000000*%
G04 #@! TD*
G04 #@! TA.AperFunction,ComponentPad*
%ADD40RotRect,1.700000X1.700000X135.000000*%
G04 #@! TD*
G04 #@! TA.AperFunction,ComponentPad*
%ADD41HorizOval,1.700000X0.000000X0.000000X0.000000X0.000000X0*%
G04 #@! TD*
G04 #@! TA.AperFunction,ComponentPad*
%ADD42R,1.700000X1.700000*%
G04 #@! TD*
G04 #@! TA.AperFunction,ComponentPad*
%ADD43O,1.700000X1.700000*%
G04 #@! TD*
G04 #@! TA.AperFunction,SMDPad,CuDef*
%ADD44RoundRect,0.140000X0.140000X0.170000X-0.140000X0.170000X-0.140000X-0.170000X0.140000X-0.170000X0*%
G04 #@! TD*
G04 #@! TA.AperFunction,SMDPad,CuDef*
%ADD45RoundRect,0.140000X-0.140000X-0.170000X0.140000X-0.170000X0.140000X0.170000X-0.140000X0.170000X0*%
G04 #@! TD*
G04 #@! TA.AperFunction,SMDPad,CuDef*
%ADD46RoundRect,0.140000X0.170000X-0.140000X0.170000X0.140000X-0.170000X0.140000X-0.170000X-0.140000X0*%
G04 #@! TD*
G04 #@! TA.AperFunction,SMDPad,CuDef*
%ADD47RoundRect,0.075000X-0.075000X0.675000X-0.075000X-0.675000X0.075000X-0.675000X0.075000X0.675000X0*%
G04 #@! TD*
G04 #@! TA.AperFunction,SMDPad,CuDef*
%ADD48RoundRect,0.075000X-0.675000X0.075000X-0.675000X-0.075000X0.675000X-0.075000X0.675000X0.075000X0*%
G04 #@! TD*
G04 #@! TA.AperFunction,SMDPad,CuDef*
%ADD49RoundRect,0.140000X-0.170000X0.140000X-0.170000X-0.140000X0.170000X-0.140000X0.170000X0.140000X0*%
G04 #@! TD*
G04 #@! TA.AperFunction,SMDPad,CuDef*
%ADD50RoundRect,0.225000X0.335876X0.017678X0.017678X0.335876X-0.335876X-0.017678X-0.017678X-0.335876X0*%
G04 #@! TD*
G04 #@! TA.AperFunction,SMDPad,CuDef*
%ADD51RoundRect,0.075000X-0.675000X-0.075000X0.675000X-0.075000X0.675000X0.075000X-0.675000X0.075000X0*%
G04 #@! TD*
G04 #@! TA.AperFunction,SMDPad,CuDef*
%ADD52RoundRect,0.075000X-0.075000X-0.675000X0.075000X-0.675000X0.075000X0.675000X-0.075000X0.675000X0*%
G04 #@! TD*
G04 #@! TA.AperFunction,SMDPad,CuDef*
%ADD53RoundRect,0.225000X-0.017678X0.335876X-0.335876X0.017678X0.017678X-0.335876X0.335876X-0.017678X0*%
G04 #@! TD*
G04 #@! TA.AperFunction,SMDPad,CuDef*
%ADD54RoundRect,0.150000X0.468458X-0.256326X-0.256326X0.468458X-0.468458X0.256326X0.256326X-0.468458X0*%
G04 #@! TD*
G04 #@! TA.AperFunction,SMDPad,CuDef*
%ADD55RoundRect,0.075000X0.675000X-0.075000X0.675000X0.075000X-0.675000X0.075000X-0.675000X-0.075000X0*%
G04 #@! TD*
G04 #@! TA.AperFunction,SMDPad,CuDef*
%ADD56RoundRect,0.075000X0.075000X-0.675000X0.075000X0.675000X-0.075000X0.675000X-0.075000X-0.675000X0*%
G04 #@! TD*
G04 #@! TA.AperFunction,ViaPad*
%ADD57C,0.800000*%
G04 #@! TD*
G04 #@! TA.AperFunction,Conductor*
%ADD58C,0.250000*%
G04 #@! TD*
G04 #@! TA.AperFunction,Conductor*
%ADD59C,0.750000*%
G04 #@! TD*
G04 #@! TA.AperFunction,Conductor*
%ADD60C,0.200000*%
G04 #@! TD*
G04 #@! TA.AperFunction,Conductor*
%ADD61C,0.500000*%
G04 #@! TD*
G04 APERTURE END LIST*
D10*
X20955000Y-1750000D03*
X20955000Y-1250000D03*
X20955000Y-750000D03*
X20955000Y-250000D03*
X20955000Y250000D03*
X20955000Y750000D03*
X20955000Y1250000D03*
X20955000Y1750000D03*
D11*
X19530000Y3175000D03*
X19030000Y3175000D03*
X18530000Y3175000D03*
X18030000Y3175000D03*
X17530000Y3175000D03*
X17030000Y3175000D03*
X16530000Y3175000D03*
X16030000Y3175000D03*
D10*
X14605000Y1750000D03*
X14605000Y1250000D03*
X14605000Y750000D03*
X14605000Y250000D03*
X14605000Y-250000D03*
X14605000Y-750000D03*
X14605000Y-1250000D03*
X14605000Y-1750000D03*
D11*
X16030000Y-3175000D03*
X16530000Y-3175000D03*
X17030000Y-3175000D03*
X17530000Y-3175000D03*
X18030000Y-3175000D03*
X18530000Y-3175000D03*
X19030000Y-3175000D03*
X19530000Y-3175000D03*
D12*
X17431002Y-19506752D03*
X17784556Y-19860305D03*
X18138109Y-20213858D03*
X18491662Y-20567412D03*
D13*
X19499290Y-20213858D03*
X19852843Y-19860305D03*
X20206396Y-19506752D03*
D12*
X20559950Y-18499124D03*
X20206396Y-18145571D03*
X19852843Y-17792018D03*
X19499290Y-17438464D03*
D13*
X18491662Y-17792018D03*
X18138109Y-18145571D03*
X17784556Y-18499124D03*
D14*
X-24599947Y15963947D03*
X-23914053Y15278053D03*
D15*
X-9512347Y-16014747D03*
X-8826453Y-15328853D03*
D16*
X9730153Y13463953D03*
X10843847Y14577647D03*
D15*
X18707053Y-25107947D03*
X19392947Y-24422053D03*
X-23202947Y-25107947D03*
X-22517053Y-24422053D03*
D17*
X17888949Y26143949D03*
D18*
X19685000Y27940000D03*
D19*
X-21882053Y-20612053D03*
X-22567947Y-21297947D03*
X-7505653Y-11493453D03*
X-8191547Y-12179347D03*
D20*
X12244569Y10887094D03*
X11572817Y11558845D03*
X10901066Y12230597D03*
X9345431Y10674962D03*
X10688934Y9331459D03*
D15*
X24422053Y-19392947D03*
X25107947Y-18707053D03*
D21*
X-10126969Y-12813975D03*
X-12813975Y-10126969D03*
X-14511031Y-11824025D03*
X-11824025Y-14511031D03*
D22*
X-16421053Y-10020347D03*
X-17106947Y-9334453D03*
D23*
X19788553Y20953047D03*
X20902247Y19839353D03*
D24*
X22745095Y20887874D03*
X22285476Y21347493D03*
X21825856Y21807112D03*
X21366237Y22266732D03*
X20906618Y22726351D03*
D25*
X21684435Y25766910D03*
D26*
X23593623Y20039345D03*
D27*
X26209918Y21241427D03*
D28*
X23027938Y24423407D03*
D26*
X20058089Y23574879D03*
D28*
X24442151Y23009194D03*
D25*
X25785654Y21665691D03*
D29*
X21260171Y26191174D03*
D17*
X26143949Y17888949D03*
D18*
X27940000Y19685000D03*
D30*
X22157082Y-25467918D03*
X19752918Y-27872082D03*
D31*
X-7340600Y-7391400D03*
X-9638698Y-9689498D03*
D32*
X-17888949Y-26143949D03*
D33*
X-19685000Y-27940000D03*
D34*
X2100000Y-3250000D03*
X2100000Y3250000D03*
X-2100000Y3250000D03*
X-2100000Y-3250000D03*
D19*
X-20612053Y-21882053D03*
X-21297947Y-22567947D03*
D15*
X19922529Y-21885885D03*
X20608423Y-21199991D03*
D19*
X-8267653Y-10756853D03*
X-8953547Y-11442747D03*
D32*
X-26143949Y-17888949D03*
D33*
X-27940000Y-19685000D03*
D35*
X25467918Y-22157082D03*
X27872082Y-19752918D03*
D19*
X21983747Y-19824653D03*
X21297853Y-20510547D03*
D22*
X-11468053Y-8851947D03*
X-12153947Y-8166053D03*
D36*
X9446847Y7684181D03*
X8333153Y8797875D03*
D37*
X15983949Y-28048949D03*
D38*
X17780000Y-29845000D03*
X14187898Y-29845000D03*
X15983949Y-31641051D03*
D15*
X-25107947Y-23202947D03*
X-24422053Y-22517053D03*
D39*
X-16365043Y10078864D03*
X-15467017Y10976889D03*
X-14568992Y11874915D03*
X-13670966Y12772941D03*
X-12772941Y13670966D03*
X-11874915Y14568992D03*
X-10976889Y15467017D03*
X-10078864Y16365043D03*
X-16654957Y22941136D03*
X-17552983Y22043111D03*
X-18451008Y21145085D03*
X-19349034Y20247059D03*
X-20247059Y19349034D03*
X-21145085Y18451008D03*
X-22043111Y17552983D03*
X-22941136Y16654957D03*
D15*
X-15074947Y9182053D03*
X-14389053Y9867947D03*
D40*
X-21063949Y22860000D03*
D41*
X-22860000Y24656051D03*
X-19267898Y24656051D03*
X-21063949Y26452102D03*
X-17471847Y26452102D03*
X-19267898Y28248154D03*
D37*
X29845000Y-14187898D03*
D38*
X31641051Y-15983949D03*
X28048949Y-15983949D03*
X29845000Y-17780000D03*
D40*
X-26452102Y17471846D03*
D41*
X-28248153Y19267897D03*
X-24656051Y19267897D03*
X-26452102Y21063948D03*
X-22860000Y21063948D03*
X-24656051Y22860000D03*
D42*
X24257000Y-9525000D03*
D43*
X21717000Y-9525000D03*
D44*
X-3528000Y-13208000D03*
X-2568000Y-13208000D03*
X15212000Y-4572000D03*
X14252000Y-4572000D03*
D42*
X-24257000Y9525000D03*
D43*
X-21717000Y9525000D03*
D42*
X11430000Y-28575000D03*
D43*
X11430000Y-31115000D03*
X8890000Y-28575000D03*
X8890000Y-31115000D03*
X6350000Y-28575000D03*
X6350000Y-31115000D03*
X3810000Y-28575000D03*
X3810000Y-31115000D03*
X1270000Y-28575000D03*
X1270000Y-31115000D03*
X-1270000Y-28575000D03*
X-1270000Y-31115000D03*
X-3810000Y-28575000D03*
X-3810000Y-31115000D03*
X-6350000Y-28575000D03*
X-6350000Y-31115000D03*
X-8890000Y-28575000D03*
X-8890000Y-31115000D03*
X-11430000Y-28575000D03*
X-11430000Y-31115000D03*
D45*
X-15212000Y4572000D03*
X-14252000Y4572000D03*
D46*
X-13208000Y2568000D03*
X-13208000Y3528000D03*
D47*
X1750000Y20955000D03*
X1250000Y20955000D03*
X750000Y20955000D03*
X250000Y20955000D03*
X-250000Y20955000D03*
X-750000Y20955000D03*
X-1250000Y20955000D03*
X-1750000Y20955000D03*
D48*
X-3175000Y19530000D03*
X-3175000Y19030000D03*
X-3175000Y18530000D03*
X-3175000Y18030000D03*
X-3175000Y17530000D03*
X-3175000Y17030000D03*
X-3175000Y16530000D03*
X-3175000Y16030000D03*
D47*
X-1750000Y14605000D03*
X-1250000Y14605000D03*
X-750000Y14605000D03*
X-250000Y14605000D03*
X250000Y14605000D03*
X750000Y14605000D03*
X1250000Y14605000D03*
X1750000Y14605000D03*
D48*
X3175000Y16030000D03*
X3175000Y16530000D03*
X3175000Y17030000D03*
X3175000Y17530000D03*
X3175000Y18030000D03*
X3175000Y18530000D03*
X3175000Y19030000D03*
X3175000Y19530000D03*
D42*
X-24257000Y-9525000D03*
D43*
X-21717000Y-9525000D03*
D45*
X2568000Y13208000D03*
X3528000Y13208000D03*
D49*
X-4572000Y15212000D03*
X-4572000Y14252000D03*
D46*
X-4572000Y-14252000D03*
X-4572000Y-15212000D03*
D42*
X28575000Y11430000D03*
D43*
X31115000Y11430000D03*
X28575000Y8890000D03*
X31115000Y8890000D03*
X28575000Y6350000D03*
X31115000Y6350000D03*
X28575000Y3810000D03*
X31115000Y3810000D03*
X28575000Y1270000D03*
X31115000Y1270000D03*
X28575000Y-1270000D03*
X31115000Y-1270000D03*
X28575000Y-3810000D03*
X31115000Y-3810000D03*
X28575000Y-6350000D03*
X31115000Y-6350000D03*
X28575000Y-8890000D03*
X31115000Y-8890000D03*
X28575000Y-11430000D03*
X31115000Y-11430000D03*
D49*
X13208000Y-2568000D03*
X13208000Y-3528000D03*
D42*
X1250000Y-24790000D03*
D43*
X-1290000Y-24790000D03*
D49*
X4572000Y15212000D03*
X4572000Y14252000D03*
D50*
X7406008Y-8396608D03*
X6309992Y-7300592D03*
D51*
X-20955000Y1750000D03*
X-20955000Y1250000D03*
X-20955000Y750000D03*
X-20955000Y250000D03*
X-20955000Y-250000D03*
X-20955000Y-750000D03*
X-20955000Y-1250000D03*
X-20955000Y-1750000D03*
D52*
X-19530000Y-3175000D03*
X-19030000Y-3175000D03*
X-18530000Y-3175000D03*
X-18030000Y-3175000D03*
X-17530000Y-3175000D03*
X-17030000Y-3175000D03*
X-16530000Y-3175000D03*
X-16030000Y-3175000D03*
D51*
X-14605000Y-1750000D03*
X-14605000Y-1250000D03*
X-14605000Y-750000D03*
X-14605000Y-250000D03*
X-14605000Y250000D03*
X-14605000Y750000D03*
X-14605000Y1250000D03*
X-14605000Y1750000D03*
D52*
X-16030000Y3175000D03*
X-16530000Y3175000D03*
X-17030000Y3175000D03*
X-17530000Y3175000D03*
X-18030000Y3175000D03*
X-18530000Y3175000D03*
X-19030000Y3175000D03*
X-19530000Y3175000D03*
D42*
X-28575000Y-11430000D03*
D43*
X-31115000Y-11430000D03*
X-28575000Y-8890000D03*
X-31115000Y-8890000D03*
X-28575000Y-6350000D03*
X-31115000Y-6350000D03*
X-28575000Y-3810000D03*
X-31115000Y-3810000D03*
X-28575000Y-1270000D03*
X-31115000Y-1270000D03*
X-28575000Y1270000D03*
X-31115000Y1270000D03*
X-28575000Y3810000D03*
X-31115000Y3810000D03*
X-28575000Y6350000D03*
X-31115000Y6350000D03*
X-28575000Y8890000D03*
X-31115000Y8890000D03*
X-28575000Y11430000D03*
X-31115000Y11430000D03*
D45*
X-15212000Y-4572000D03*
X-14252000Y-4572000D03*
D42*
X9525000Y-24130000D03*
D43*
X9525000Y-21590000D03*
D42*
X-11430000Y28575000D03*
D43*
X-11430000Y31115000D03*
X-8890000Y28575000D03*
X-8890000Y31115000D03*
X-6350000Y28575000D03*
X-6350000Y31115000D03*
X-3810000Y28575000D03*
X-3810000Y31115000D03*
X-1270000Y28575000D03*
X-1270000Y31115000D03*
X1270000Y28575000D03*
X1270000Y31115000D03*
X3810000Y28575000D03*
X3810000Y31115000D03*
X6350000Y28575000D03*
X6350000Y31115000D03*
X8890000Y28575000D03*
X8890000Y31115000D03*
X11430000Y28575000D03*
X11430000Y31115000D03*
D53*
X13197208Y-11059792D03*
X12101192Y-12155808D03*
D42*
X-9525000Y24257000D03*
D43*
X-9525000Y21717000D03*
D54*
X10343383Y-11686885D03*
X11015134Y-11015134D03*
X11686885Y-10343383D03*
X10078217Y-8734715D03*
X8734715Y-10078217D03*
D42*
X24257000Y9525000D03*
D43*
X21717000Y9525000D03*
D46*
X4572000Y-14252000D03*
X4572000Y-15212000D03*
D44*
X15212000Y4572000D03*
X14252000Y4572000D03*
D42*
X-24790000Y-1250000D03*
D43*
X-24790000Y1290000D03*
D42*
X-9525000Y-24130000D03*
D43*
X-9525000Y-21590000D03*
D50*
X8472808Y-7329808D03*
X7376792Y-6233792D03*
D55*
X-3175000Y-19530000D03*
X-3175000Y-19030000D03*
X-3175000Y-18530000D03*
X-3175000Y-18030000D03*
X-3175000Y-17530000D03*
X-3175000Y-17030000D03*
X-3175000Y-16530000D03*
X-3175000Y-16030000D03*
D56*
X-1750000Y-14605000D03*
X-1250000Y-14605000D03*
X-750000Y-14605000D03*
X-250000Y-14605000D03*
X250000Y-14605000D03*
X750000Y-14605000D03*
X1250000Y-14605000D03*
X1750000Y-14605000D03*
D55*
X3175000Y-16030000D03*
X3175000Y-16530000D03*
X3175000Y-17030000D03*
X3175000Y-17530000D03*
X3175000Y-18030000D03*
X3175000Y-18530000D03*
X3175000Y-19030000D03*
X3175000Y-19530000D03*
D56*
X1750000Y-20955000D03*
X1250000Y-20955000D03*
X750000Y-20955000D03*
X250000Y-20955000D03*
X-250000Y-20955000D03*
X-750000Y-20955000D03*
X-1250000Y-20955000D03*
X-1750000Y-20955000D03*
D42*
X24790000Y1250000D03*
D43*
X24790000Y-1290000D03*
D42*
X9525000Y24257000D03*
D43*
X9525000Y21717000D03*
D26*
X-23593623Y-20058089D03*
D27*
X-21260171Y-26209918D03*
D26*
X-20058089Y-23593623D03*
D29*
X-26209918Y-21260171D03*
D57*
X14740000Y-3600000D03*
X-3480000Y-14050000D03*
X-14500000Y3210000D03*
X3550000Y14390000D03*
X12236734Y1054813D03*
X-27000000Y-6920000D03*
X-6836147Y27139401D03*
X2490000Y-10680000D03*
X-2260000Y-10700000D03*
X-7810514Y17356625D03*
X11543040Y438173D03*
X-21033500Y-3327000D03*
X5374990Y18584990D03*
X-6962533Y-16927467D03*
X-17644043Y6046339D03*
X6243489Y17683489D03*
X17550000Y-5560000D03*
X3426187Y22842413D03*
X14974471Y-2703657D03*
X15578931Y3552431D03*
X2770000Y15000000D03*
X-3646956Y15417644D03*
X-15249890Y2428103D03*
X-15411258Y-3501258D03*
X-2749587Y-14620004D03*
X3540000Y-15390000D03*
X-3723185Y25276989D03*
X-4160134Y24049641D03*
X-800000Y-3570000D03*
X80000Y18870000D03*
X-18410000Y-610000D03*
X771234Y-18319796D03*
X17490000Y60000D03*
X5010000Y-17930000D03*
X-18492176Y-5518182D03*
X-5258432Y18302427D03*
X18353550Y5229555D03*
X5380000Y-16640000D03*
X-6044676Y-16025967D03*
X-17568045Y-5584443D03*
X-5827091Y17570967D03*
X17439412Y5380417D03*
X16449505Y-5423500D03*
X-16718500Y6088500D03*
X6439795Y16631254D03*
X13028525Y10135511D03*
X9025500Y-9078127D03*
X-6317712Y-11624138D03*
X-5569306Y-12275638D03*
X9708626Y9725368D03*
X10160000Y-12573000D03*
X17831900Y-25810098D03*
X13600860Y-26940775D03*
X-20312380Y-20286980D03*
X-22638184Y-22693871D03*
X-21331501Y-23959753D03*
X15875000Y-21601770D03*
X6913016Y10100070D03*
X2394132Y778247D03*
X-14158904Y-8820090D03*
X-5471500Y-666633D03*
X2162303Y-118783D03*
X8666709Y12086890D03*
X-5471500Y-1593136D03*
X-10908613Y-7938372D03*
X26153812Y-19752918D03*
X-3691741Y-3302241D03*
X13424651Y-23549736D03*
X10333488Y-18202574D03*
X13335000Y-19685000D03*
X13335000Y-17145000D03*
X12627892Y-17870000D03*
X9081011Y-11619003D03*
X21618291Y-17116709D03*
X17604054Y-22400946D03*
X-13549349Y8078241D03*
X-10401109Y-10909108D03*
X-8255311Y12284154D03*
X10562829Y-7788408D03*
X-7855001Y9760001D03*
X17734003Y-16911597D03*
X-10744218Y-2376500D03*
X4258811Y8850732D03*
X10151640Y6895553D03*
X-7970599Y13586986D03*
X14808200Y-20091400D03*
X-4175070Y3736500D03*
X1179751Y6794508D03*
X-699500Y5779500D03*
X19685000Y25020960D03*
X-3763873Y4566756D03*
X16964358Y-13894724D03*
X19705990Y-12637011D03*
X15198910Y-14456631D03*
X21082000Y-12827000D03*
X4713500Y3290713D03*
X21663511Y-13896489D03*
X20515858Y-13774142D03*
X6093543Y3812457D03*
X14478000Y-13335000D03*
X7120105Y4839019D03*
X14558062Y-24569169D03*
X26035000Y-15748000D03*
X-8015317Y4306678D03*
X-5914343Y-3196874D03*
X-2452984Y-5683986D03*
X-66500Y-8981286D03*
X12689832Y6143640D03*
X8863528Y241500D03*
X-7620000Y-2540000D03*
X-3253266Y8430734D03*
X-2032000Y8128000D03*
X58618Y9921553D03*
X-20134580Y-24960580D03*
X-22506973Y-19136720D03*
X-24056340Y-18811240D03*
X308957Y8899522D03*
X-3639871Y-4765428D03*
X-4450042Y-4315952D03*
X-6926396Y-5287758D03*
X-6724259Y-1025735D03*
X-9660574Y-117439D03*
X-23721882Y-21556174D03*
X9273733Y8785981D03*
X11201400Y-13208000D03*
X8217356Y-16630000D03*
X23495000Y-21590000D03*
X-7969794Y-13343813D03*
X12275724Y12340543D03*
X7257256Y-9921164D03*
X-12737670Y8889919D03*
X-15164435Y-7760251D03*
X3048000Y8636000D03*
X1207500Y2293260D03*
X-9398000Y11811000D03*
X18415000Y-23495000D03*
X-8852676Y-570989D03*
X7393500Y22353D03*
X7079885Y-881712D03*
X6453385Y-1714004D03*
D58*
X3528000Y13208000D02*
X3528000Y14368000D01*
X3528000Y14368000D02*
X3550000Y14390000D01*
X-13208000Y3528000D02*
X-14182000Y3528000D01*
X-14182000Y3528000D02*
X-14500000Y3210000D01*
X-3528000Y-13208000D02*
X-3528000Y-14002000D01*
X-3528000Y-14002000D02*
X-3480000Y-14050000D01*
X14740000Y-3600000D02*
X13280000Y-3600000D01*
X13280000Y-3600000D02*
X13208000Y-3528000D01*
X15606520Y-1501521D02*
X15606520Y-2071608D01*
X14252000Y-4572000D02*
X14252000Y-4088000D01*
X15606520Y-2071608D02*
X14974471Y-2703657D01*
X14252000Y-4088000D02*
X14740000Y-3600000D01*
X15354999Y-1250000D02*
X15606520Y-1501521D01*
X14605000Y-1250000D02*
X15354999Y-1250000D01*
X-1250000Y-15354999D02*
X-1501521Y-15606520D01*
X-4572000Y-14252000D02*
X-3682000Y-14252000D01*
X-1962326Y-15606520D02*
X-2749587Y-14819259D01*
X-2749587Y-14819259D02*
X-2749587Y-14620004D01*
X-3682000Y-14252000D02*
X-3480000Y-14050000D01*
X-1501521Y-15606520D02*
X-1962326Y-15606520D01*
X-1250000Y-14605000D02*
X-1250000Y-15354999D01*
X-14252000Y3458000D02*
X-14500000Y3210000D01*
X-15354999Y1250000D02*
X-15606520Y1501521D01*
X-15606520Y2071473D02*
X-15249890Y2428103D01*
X-14605000Y1250000D02*
X-15354999Y1250000D01*
X-14252000Y4572000D02*
X-14252000Y3458000D01*
X-15606520Y1501521D02*
X-15606520Y2071473D01*
X3688000Y14252000D02*
X3550000Y14390000D01*
X4572000Y14252000D02*
X3688000Y14252000D01*
X3692102Y892730D02*
X3823755Y1024395D01*
X6338541Y16530000D02*
X6439795Y16631254D01*
X3823767Y1024395D02*
X3837922Y1038550D01*
X3824022Y3739412D02*
X4151111Y4066501D01*
X3837922Y1038550D02*
X3837922Y3030688D01*
D59*
X10843847Y14577647D02*
X10843847Y13772420D01*
D58*
X3823755Y1024395D02*
X3823767Y1024395D01*
X3824022Y3044588D02*
X3824022Y3739412D01*
X3560458Y761086D02*
X3692102Y892730D01*
X3484999Y506997D02*
X3484999Y664029D01*
X3175000Y16530000D02*
X6338541Y16530000D01*
D59*
X12275724Y12261752D02*
X12275724Y12340543D01*
D58*
X8382000Y10033000D02*
X8382000Y11802181D01*
X3560458Y761074D02*
X3560458Y761086D01*
X4151111Y5802111D02*
X8382000Y10033000D01*
X4151111Y4066501D02*
X4151111Y5802111D01*
X2162303Y-118783D02*
X2859219Y-118783D01*
X3484999Y664029D02*
X3560450Y739480D01*
X2859219Y-118783D02*
X3484999Y506997D01*
X3560449Y761065D02*
X3560458Y761074D01*
X3837922Y3030688D02*
X3824022Y3044588D01*
D59*
X11572817Y11558845D02*
X12275724Y12261752D01*
D58*
X3560450Y739480D02*
X3560449Y761065D01*
D59*
X10843847Y13772420D02*
X12275724Y12340543D01*
D58*
X8382000Y11802181D02*
X8666709Y12086890D01*
X11676962Y-881712D02*
X7079885Y-881712D01*
X11890112Y-213172D02*
X11813036Y-213172D01*
X14605000Y250000D02*
X12885750Y250000D01*
X14605000Y750000D02*
X12853284Y750000D01*
X11968992Y-589682D02*
X11676962Y-881712D01*
X12853284Y750000D02*
X11890112Y-213172D01*
X7825853Y-410000D02*
X7393500Y22353D01*
X11813036Y-213172D02*
X11616208Y-410000D01*
X11616208Y-410000D02*
X7825853Y-410000D01*
X10372028Y1750000D02*
X8863528Y241500D01*
X14605000Y1750000D02*
X10372028Y1750000D01*
X12885750Y250000D02*
X12046068Y-589682D01*
X12046068Y-589682D02*
X11968992Y-589682D01*
X14252000Y3958000D02*
X14252000Y4572000D01*
X3175000Y-17030000D02*
X4110000Y-17030000D01*
X4110000Y-17030000D02*
X5010000Y-17930000D01*
X3175000Y-16530000D02*
X5270000Y-16530000D01*
X5270000Y-16530000D02*
X5380000Y-16640000D01*
X4572000Y-15212000D02*
X4572000Y-15882999D01*
X4572000Y-15882999D02*
X3924999Y-16530000D01*
X3924999Y-16530000D02*
X3175000Y-16530000D01*
X-2568000Y-13208000D02*
X-2568000Y-13787000D01*
X-2568000Y-13787000D02*
X-1750000Y-14605000D01*
X771234Y-18319796D02*
X-1518562Y-16030000D01*
X-1518562Y-16030000D02*
X-3175000Y-16030000D01*
X771234Y-18319796D02*
X771234Y-17219920D01*
X771234Y-17219920D02*
X3739154Y-14252000D01*
X3739154Y-14252000D02*
X4572000Y-14252000D01*
X771234Y-18319796D02*
X1561030Y-17530000D01*
X1561030Y-17530000D02*
X3175000Y-17530000D01*
X-3175000Y-17530000D02*
X-18562Y-17530000D01*
X-18562Y-17530000D02*
X771234Y-18319796D01*
X-3175000Y-16530000D02*
X-5540643Y-16530000D01*
X-5540643Y-16530000D02*
X-6044676Y-16025967D01*
X-4572000Y-15212000D02*
X-4572000Y-15882999D01*
X-4572000Y-15882999D02*
X-3924999Y-16530000D01*
X-3924999Y-16530000D02*
X-3175000Y-16530000D01*
X-5569306Y-12275638D02*
X-5569306Y-9162694D01*
X-5569306Y-9162694D02*
X-7340600Y-7391400D01*
X-7184997Y-10756853D02*
X-6317712Y-11624138D01*
X-8267653Y-10756853D02*
X-7184997Y-10756853D01*
X-7505653Y-11493453D02*
X-6723468Y-12275638D01*
X-6723468Y-12275638D02*
X-5569306Y-12275638D01*
X-10126969Y-12813975D02*
X-10126969Y-15400125D01*
X-10126969Y-15400125D02*
X-9512347Y-16014747D01*
D60*
X-8928147Y-11442747D02*
X-8695447Y-11675447D01*
D58*
X-8191547Y-12179347D02*
X-8695447Y-11675447D01*
X-7969794Y-13343813D02*
X-7969794Y-12401100D01*
X-7969794Y-12401100D02*
X-8191547Y-12179347D01*
X-7969794Y-13343813D02*
X-7969794Y-14472194D01*
X-7969794Y-14472194D02*
X-8826453Y-15328853D01*
X-4572000Y-14252000D02*
X-3175000Y-15649000D01*
X-3175000Y-15649000D02*
X-3175000Y-16030000D01*
X-4572000Y-14252000D02*
X-3528000Y-13208000D01*
D60*
X-250000Y-10607305D02*
X-1346023Y-9511282D01*
X-4769547Y-5287758D02*
X-6926396Y-5287758D01*
X-1346023Y-8711282D02*
X-4769547Y-5287758D01*
X-1346023Y-9511282D02*
X-1346023Y-8711282D01*
X-250000Y-14605000D02*
X-250000Y-10607305D01*
X-6413500Y-2348268D02*
X-6413500Y-1608633D01*
X-10908613Y-7938372D02*
X-6483732Y-3513491D01*
X-6540844Y-3456380D02*
X-6540844Y-2937368D01*
D61*
X-2390000Y2960000D02*
X-2100000Y3250000D01*
X-9852011Y7241511D02*
X-5570500Y2960000D01*
D60*
X-5749598Y-2570373D02*
X-5471500Y-2292275D01*
D61*
X-20867000Y8675000D02*
X-15575756Y8675000D01*
D60*
X-5471500Y-2292275D02*
X-5471500Y-1593136D01*
X-6483732Y-3513491D02*
X-6540844Y-3456380D01*
X-14158904Y-8820090D02*
X-12577814Y-7239000D01*
X-10922000Y-7239000D02*
X-6867355Y-3184355D01*
D61*
X-15575756Y8675000D02*
X-14142267Y7241511D01*
X-21717000Y9525000D02*
X-20867000Y8675000D01*
D58*
X-16530000Y5900000D02*
X-16718500Y6088500D01*
X-16530000Y3175000D02*
X-16530000Y5900000D01*
D61*
X-14142267Y7241511D02*
X-9852011Y7241511D01*
D60*
X-6540844Y-2937368D02*
X-6173849Y-2570373D01*
X-6867355Y-2802123D02*
X-6413500Y-2348268D01*
D58*
X-4820000Y-3120000D02*
X-4896874Y-3196874D01*
D60*
X-12577814Y-7239000D02*
X-10922000Y-7239000D01*
X-6867355Y-3184355D02*
X-6867355Y-2802123D01*
X-6413500Y-1608633D02*
X-5471500Y-666633D01*
X-6173849Y-2570373D02*
X-5749598Y-2570373D01*
D61*
X-5570500Y2960000D02*
X-2390000Y2960000D01*
D58*
X-24257000Y9525000D02*
X-21472000Y6740000D01*
X-21472000Y6740000D02*
X-11370000Y6740000D01*
X-11370000Y6740000D02*
X-4820000Y190000D01*
X-4820000Y190000D02*
X-4820000Y-3120000D01*
X-4896874Y-3196874D02*
X-5914343Y-3196874D01*
X-17030000Y-3175000D02*
X-17030000Y-3924999D01*
X-17030000Y-3924999D02*
X-18492176Y-5387175D01*
X-18492176Y-5387175D02*
X-18492176Y-5518182D01*
X-16530000Y-3175000D02*
X-16530000Y-4546398D01*
X-16530000Y-4546398D02*
X-17568045Y-5584443D01*
X-15411258Y-3501258D02*
X-15703742Y-3501258D01*
X-15703742Y-3501258D02*
X-16030000Y-3175000D01*
X-15212000Y-4572000D02*
X-15882999Y-4572000D01*
X-15882999Y-4572000D02*
X-16530000Y-3924999D01*
X-16530000Y-3924999D02*
X-16530000Y-3175000D01*
X-18410000Y-610000D02*
X-17381154Y-610000D01*
X-17381154Y-610000D02*
X-14252000Y-3739154D01*
X-14252000Y-3739154D02*
X-14252000Y-4572000D01*
X-18410000Y-610000D02*
X-17530000Y-1490000D01*
X-17530000Y-1490000D02*
X-17530000Y-3175000D01*
X-18410000Y-610000D02*
X-17530000Y270000D01*
X-17530000Y270000D02*
X-17530000Y3175000D01*
X-16030000Y3175000D02*
X-16030000Y1770000D01*
X-16030000Y1770000D02*
X-18410000Y-610000D01*
X-13208000Y2568000D02*
X-13787000Y2568000D01*
X-13787000Y2568000D02*
X-14605000Y1750000D01*
X-14252000Y4572000D02*
X-13208000Y3528000D01*
X-16030000Y3175000D02*
X-15649000Y3175000D01*
X-15649000Y3175000D02*
X-14252000Y4572000D01*
D60*
X-16030000Y3175000D02*
X-15765000Y3175000D01*
D58*
X-15765000Y3175000D02*
X-15649000Y3175000D01*
X-16530000Y3175000D02*
X-16530000Y3924999D01*
X-16530000Y3924999D02*
X-15882999Y4572000D01*
X-15882999Y4572000D02*
X-15212000Y4572000D01*
X-9398000Y11811000D02*
X-9398000Y15684179D01*
X-9398000Y15684179D02*
X-10078864Y16365043D01*
X-5258432Y18302427D02*
X-3986005Y17030000D01*
X-3986005Y17030000D02*
X-3175000Y17030000D01*
X-3175000Y16530000D02*
X-4786124Y16530000D01*
X-4786124Y16530000D02*
X-5827091Y17570967D01*
X-4572000Y15212000D02*
X-4572000Y15882999D01*
X-4572000Y15882999D02*
X-3924999Y16530000D01*
X-3924999Y16530000D02*
X-3175000Y16530000D01*
X-3646956Y15417644D02*
X-3646956Y15558044D01*
X-3646956Y15558044D02*
X-3175000Y16030000D01*
X80000Y18870000D02*
X80000Y18071154D01*
X80000Y18071154D02*
X-3739154Y14252000D01*
X-3739154Y14252000D02*
X-4572000Y14252000D01*
X80000Y18870000D02*
X-1260000Y17530000D01*
X-1260000Y17530000D02*
X-3175000Y17530000D01*
X80000Y18870000D02*
X1420000Y17530000D01*
X1420000Y17530000D02*
X3175000Y17530000D01*
X3175000Y16030000D02*
X2425001Y16030000D01*
X2425001Y16030000D02*
X80000Y18375001D01*
X80000Y18375001D02*
X80000Y18870000D01*
X2770000Y15000000D02*
X2163480Y15606520D01*
X2163480Y15606520D02*
X1406520Y15606520D01*
X1406520Y15606520D02*
X1250000Y15450000D01*
X1250000Y15450000D02*
X1250000Y14605000D01*
X2568000Y13208000D02*
X2568000Y13787000D01*
X2568000Y13787000D02*
X1750000Y14605000D01*
X4572000Y14252000D02*
X3528000Y13208000D01*
X4572000Y14252000D02*
X3175000Y15649000D01*
X3175000Y15649000D02*
X3175000Y16030000D01*
X3175000Y16530000D02*
X3924999Y16530000D01*
X3924999Y16530000D02*
X4572000Y15882999D01*
X4572000Y15882999D02*
X4572000Y15212000D01*
X16530000Y-3175000D02*
X16530000Y-5343005D01*
X16530000Y-5343005D02*
X16449505Y-5423500D01*
X16530000Y-3175000D02*
X16530000Y-3924999D01*
X16530000Y-3924999D02*
X15882999Y-4572000D01*
X15882999Y-4572000D02*
X15212000Y-4572000D01*
X14252000Y-4572000D02*
X14813520Y-4010480D01*
X14813520Y-4010480D02*
X15194520Y-4010480D01*
X15194520Y-4010480D02*
X16030000Y-3175000D01*
X13208000Y-3528000D02*
X14252000Y-4572000D01*
X14605000Y-1750000D02*
X14026000Y-1750000D01*
X14026000Y-1750000D02*
X13208000Y-2568000D01*
X6453385Y-1714004D02*
X12390997Y-1714004D01*
X12390997Y-1714004D02*
X13855001Y-250000D01*
X13855001Y-250000D02*
X14605000Y-250000D01*
X15578931Y3552431D02*
X15652569Y3552431D01*
X15652569Y3552431D02*
X16030000Y3175000D01*
X16530000Y3175000D02*
X16530000Y3888846D01*
X16530000Y3888846D02*
X15846846Y4572000D01*
X15846846Y4572000D02*
X15212000Y4572000D01*
X17439412Y5380417D02*
X17439412Y4834412D01*
X17439412Y4834412D02*
X17332500Y4727500D01*
X18353550Y5216084D02*
X18353550Y5229555D01*
X16530000Y3175000D02*
X16530000Y3925000D01*
X17030000Y3892534D02*
X18353550Y5216084D01*
X17030000Y3175000D02*
X17030000Y3892534D01*
D60*
X16530000Y3924999D02*
X17332500Y4727500D01*
D58*
X16530000Y3925000D02*
X17332500Y4727500D01*
X15628480Y2581520D02*
X14252000Y3958000D01*
X17490000Y60000D02*
X15628480Y1921520D01*
X15628480Y1921520D02*
X15628480Y2581520D01*
X17490000Y60000D02*
X17530000Y100000D01*
X17530000Y100000D02*
X17530000Y3175000D01*
X17490000Y60000D02*
X17530000Y20000D01*
X17530000Y20000D02*
X17530000Y-3175000D01*
X16030000Y-3175000D02*
X16030000Y-1400000D01*
X16030000Y-1400000D02*
X17490000Y60000D01*
D60*
X-15532745Y-7760251D02*
X-15164435Y-7760251D01*
X-17106947Y-9334453D02*
X-15532745Y-7760251D01*
D58*
X-13715698Y9867947D02*
X-12737670Y8889919D01*
D60*
X-21250245Y-6658489D02*
X-25141408Y-6658489D01*
D58*
X-14389053Y9867947D02*
X-13715698Y9867947D01*
D60*
X-25141408Y-6658489D02*
X-27372919Y-8890000D01*
D58*
X-14653161Y9182053D02*
X-13549349Y8078241D01*
D60*
X-18530000Y-3175000D02*
X-18530000Y-3938244D01*
X-27372919Y-8890000D02*
X-28575000Y-8890000D01*
X-18530000Y-3938244D02*
X-21250245Y-6658489D01*
D58*
X-15074947Y9182053D02*
X-14653161Y9182053D01*
D60*
X-6209646Y28434646D02*
X-6350000Y28575000D01*
X-3175000Y19030000D02*
X-3868244Y19030000D01*
X-3868244Y19030000D02*
X-6209646Y21371402D01*
X-6209646Y21371402D02*
X-6209646Y28434646D01*
X4946978Y29978022D02*
X3810000Y31115000D01*
X-4886511Y25744308D02*
X-4886511Y30038489D01*
X1750000Y22052233D02*
X4946978Y25249211D01*
X-4886511Y30038489D02*
X-3810000Y31115000D01*
X-4349686Y25207483D02*
X-4886511Y25744308D01*
X-1750000Y22727797D02*
X-3672691Y24650488D01*
X-3672691Y24650488D02*
X-3982691Y24650488D01*
X1750000Y20955000D02*
X1750000Y22052233D01*
X-4349686Y25017483D02*
X-4349686Y25207483D01*
X4946978Y25249211D02*
X4946978Y29978022D01*
X-3982691Y24650488D02*
X-4349686Y25017483D01*
X-1750000Y20955000D02*
X-1750000Y22727797D01*
X5273489Y24879608D02*
X5273489Y30038489D01*
X5726511Y24426586D02*
X5273489Y24879608D01*
X5726511Y22081511D02*
X5726511Y24426586D01*
X3175000Y19530000D02*
X5726511Y22081511D01*
X5273489Y30038489D02*
X6350000Y31115000D01*
D59*
X9708626Y9725368D02*
X10451527Y10468269D01*
X10451527Y10468269D02*
X10451527Y11781058D01*
X10451527Y11781058D02*
X10901066Y12230597D01*
X12244569Y10887094D02*
X11810224Y10452749D01*
X11810224Y10452749D02*
X10436007Y10452749D01*
X10436007Y10452749D02*
X9708626Y9725368D01*
X10688934Y9331459D02*
X12224473Y9331459D01*
X12224473Y9331459D02*
X13028525Y10135511D01*
X10688934Y9331459D02*
X10688934Y8926268D01*
X10688934Y8926268D02*
X9446847Y7684181D01*
X9261839Y8797875D02*
X9273733Y8785981D01*
X8333153Y8797875D02*
X9261839Y8797875D01*
X6309992Y-7300592D02*
X7376792Y-6233792D01*
X7257256Y-9921164D02*
X6309992Y-8973900D01*
X6309992Y-8973900D02*
X6309992Y-7300592D01*
D60*
X3540000Y-15390000D02*
X3540000Y-15665000D01*
X3540000Y-15665000D02*
X3175000Y-16030000D01*
X-3175000Y-18030000D02*
X-4440000Y-18030000D01*
X-4440000Y-18030000D02*
X-8255000Y-21845000D01*
X-8255000Y-21845000D02*
X-8255000Y-26162000D01*
X-8255000Y-26162000D02*
X-10287000Y-28194000D01*
X-10287000Y-28194000D02*
X-10287000Y-29718000D01*
X-10287000Y-29718000D02*
X-8890000Y-31115000D01*
X-8890000Y-28575000D02*
X-7928489Y-27613489D01*
X-4350000Y-18530000D02*
X-3175000Y-18530000D01*
X-7928489Y-27613489D02*
X-7928489Y-22108489D01*
X-7928489Y-22108489D02*
X-4350000Y-18530000D01*
X-3175000Y-19030000D02*
X-3924999Y-19030000D01*
X-3924999Y-19030000D02*
X-6223000Y-21328001D01*
X-6223000Y-21328001D02*
X-6223000Y-26670000D01*
X-5273489Y-30038489D02*
X-5273489Y-21628489D01*
X-5273489Y-21628489D02*
X-3175000Y-19530000D01*
X-1750000Y-20955000D02*
X-1750000Y-22000000D01*
X-1750000Y-22000000D02*
X-4946978Y-25196978D01*
X-4946978Y-25196978D02*
X-4946978Y-29978022D01*
X-4946978Y-29978022D02*
X-3810000Y-31115000D01*
X3175000Y-18030000D02*
X3924999Y-18030000D01*
X3924999Y-18030000D02*
X6912489Y-21017490D01*
X6912489Y-21017490D02*
X6912489Y-22487245D01*
X6350000Y-22848268D02*
X6350000Y-28575000D01*
X6259467Y-22757735D02*
X6350000Y-22848268D01*
X6259467Y-21397731D02*
X6259467Y-22757735D01*
X3891736Y-19030000D02*
X6259467Y-21397731D01*
X3175000Y-19030000D02*
X3891736Y-19030000D01*
X6585978Y-22622490D02*
X6585978Y-21262486D01*
X6585978Y-21262486D02*
X3853492Y-18530000D01*
X3853492Y-18530000D02*
X3175000Y-18530000D01*
X5904093Y-27498489D02*
X5904093Y-22259093D01*
X5904093Y-22259093D02*
X3175000Y-19530000D01*
X1750000Y-20955000D02*
X5152511Y-24357511D01*
X5152511Y-24357511D02*
X5152511Y-27788315D01*
X-193489Y-30038489D02*
X-193489Y-21011511D01*
X-193489Y-21011511D02*
X-250000Y-20955000D01*
X250000Y-20955000D02*
X173489Y-21031511D01*
X173489Y-21031511D02*
X173489Y-29937555D01*
X173489Y-29937555D02*
X133022Y-29978022D01*
X1250000Y-20955000D02*
X1250000Y-22078000D01*
X750000Y-20955000D02*
X750000Y-22136978D01*
X-1250000Y-20955000D02*
X-1250000Y-22765826D01*
X-750000Y-20955000D02*
X-750000Y-22727582D01*
D61*
X-2100000Y-3250000D02*
X-1120000Y-3250000D01*
X-1120000Y-3250000D02*
X-800000Y-3570000D01*
D60*
X-2452984Y-5683986D02*
X-2452984Y-6053023D01*
X1103822Y-8354785D02*
X1750000Y-9000963D01*
X1750000Y-9000963D02*
X1750000Y-14605000D01*
X-151222Y-8354785D02*
X1103822Y-8354785D01*
X750000Y-10643793D02*
X750000Y-14605000D01*
X-461251Y-9934298D02*
X-421251Y-9934298D01*
X1250000Y-14605000D02*
X1250000Y-10297786D01*
X-3639871Y-4765428D02*
X-3639871Y-5493922D01*
X1250000Y-10297786D02*
X-66500Y-8981286D01*
X250000Y-10605549D02*
X250000Y-14605000D01*
X-693001Y-9240792D02*
X-326006Y-9607787D01*
X-1014263Y-8581286D02*
X-1019512Y-8586535D01*
X-286006Y-9607787D02*
X750000Y-10643793D01*
X-1019512Y-9376037D02*
X-461251Y-9934298D01*
X-3639871Y-5493922D02*
X-653001Y-8480792D01*
X-4450042Y-5145507D02*
X-1014263Y-8581286D01*
X-4450042Y-4315952D02*
X-4450042Y-5145507D01*
X-421251Y-9934298D02*
X250000Y-10605549D01*
X-326006Y-9607787D02*
X-286006Y-9607787D01*
X-1019512Y-8586535D02*
X-1019512Y-9376037D01*
X-653001Y-8681780D02*
X-693001Y-8721780D01*
X-2452984Y-6053023D02*
X-151222Y-8354785D01*
X-653001Y-8480792D02*
X-653001Y-8681780D01*
X-693001Y-8721780D02*
X-693001Y-9240792D01*
D58*
X-4829405Y4566756D02*
X-3763873Y4566756D01*
X-13656840Y11874915D02*
X-8783320Y7001395D01*
X-12171901Y11909252D02*
X-4829405Y4566756D01*
X-12772941Y13670966D02*
X-12171901Y13069926D01*
X-14568992Y11874915D02*
X-13656840Y11874915D01*
X-4635559Y3736500D02*
X-4175070Y3736500D01*
X-12171901Y13069926D02*
X-12171901Y11909252D01*
X-7900454Y7001395D02*
X-4635559Y3736500D01*
X-8783320Y7001395D02*
X-7900454Y7001395D01*
D60*
X-18030000Y-3175000D02*
X-18030000Y-4170000D01*
X-26851533Y-9966511D02*
X-30038489Y-9966511D01*
X-18030000Y-4170000D02*
X-21280000Y-7420000D01*
X-21280000Y-7420000D02*
X-24305022Y-7420000D01*
X-24305022Y-7420000D02*
X-26851533Y-9966511D01*
X-30038489Y-9966511D02*
X-31115000Y-8890000D01*
X-19030000Y-3175000D02*
X-19030000Y-3924999D01*
X-19030000Y-3924999D02*
X-21005001Y-5900000D01*
X-21005001Y-5900000D02*
X-28125000Y-5900000D01*
X-28125000Y-5900000D02*
X-28575000Y-6350000D01*
X-18030000Y3175000D02*
X-18030000Y3924999D01*
X-18030000Y3924999D02*
X-19801979Y5696978D01*
X-19801979Y5696978D02*
X-24654490Y5696978D01*
X-18530000Y3175000D02*
X-18530000Y3924999D01*
X-18530000Y3924999D02*
X-19975468Y5370467D01*
X-19975468Y5370467D02*
X-24789735Y5370467D01*
X-19030000Y3175000D02*
X-19030000Y3924999D01*
X-19030000Y3924999D02*
X-20148957Y5043956D01*
X-20148957Y5043956D02*
X-24924980Y5043956D01*
X-19530000Y3175000D02*
X-21072445Y4717445D01*
X-21072445Y4717445D02*
X-25060225Y4717445D01*
X-4151520Y18823276D02*
X-4151520Y18851520D01*
X-4151520Y18851520D02*
X-8040000Y22740000D01*
X-3858244Y18530000D02*
X-4151520Y18823276D01*
X-8040000Y22740000D02*
X-8040000Y27725000D01*
X-8040000Y27725000D02*
X-8890000Y28575000D01*
X-3175000Y18530000D02*
X-3858244Y18530000D01*
X-8448489Y26228489D02*
X-9966511Y27746511D01*
X-3175000Y18030000D02*
X-4100000Y18030000D01*
X-4100000Y18030000D02*
X-8448489Y22378489D01*
X-8448489Y22378489D02*
X-8448489Y26228489D01*
X-9966511Y27746511D02*
X-9966511Y30038489D01*
X-9966511Y30038489D02*
X-8890000Y31115000D01*
X-3175000Y19530000D02*
X-5460000Y21815000D01*
X-5460000Y21815000D02*
X-5460000Y26420000D01*
X-5273489Y26606511D02*
X-5273489Y30038489D01*
X-5460000Y26420000D02*
X-5273489Y26606511D01*
X-1250000Y20955000D02*
X-1250000Y26015000D01*
X-750000Y20955000D02*
X-750000Y28055000D01*
X-750000Y28055000D02*
X-1270000Y28575000D01*
X-250000Y20955000D02*
X-193489Y21011511D01*
X-193489Y21011511D02*
X-193489Y30038489D01*
X250000Y20955000D02*
X250000Y28072582D01*
X750000Y20955000D02*
X750000Y28055000D01*
X750000Y28055000D02*
X1270000Y28575000D01*
X1250000Y20955000D02*
X1250000Y26015000D01*
X3175000Y19030000D02*
X3924999Y19030000D01*
X3924999Y19030000D02*
X6350000Y21455001D01*
X6350000Y21455001D02*
X6350000Y28575000D01*
X9966511Y30038489D02*
X8890000Y31115000D01*
X9966511Y27746511D02*
X9966511Y30038489D01*
X7366000Y25146000D02*
X9966511Y27746511D01*
X7039489Y21644490D02*
X7039489Y26805245D01*
X3924999Y18030000D02*
X7176511Y21281512D01*
X7176511Y21319756D02*
X7366000Y21509245D01*
X3175000Y18030000D02*
X3924999Y18030000D01*
X7366000Y21509245D02*
X7366000Y25146000D01*
X3175000Y18530000D02*
X3924999Y18530000D01*
X7176511Y21281512D02*
X7176511Y21319756D01*
X3924999Y18530000D02*
X7039489Y21644490D01*
X18530000Y3175000D02*
X18530000Y3858244D01*
X24789735Y6005467D02*
X25134268Y6350000D01*
X18030000Y3175000D02*
X18030000Y4020000D01*
X18030000Y4020000D02*
X20668489Y6658489D01*
X21138979Y6005467D02*
X24789735Y6005467D01*
X25134268Y6350000D02*
X28575000Y6350000D01*
X19030000Y3175000D02*
X19030000Y3896488D01*
X27212512Y8890000D02*
X28575000Y8890000D01*
X24654490Y6331978D02*
X27212512Y8890000D01*
X18530000Y3858244D02*
X21003734Y6331978D01*
X19030000Y3896488D02*
X21138979Y6005467D01*
X21003734Y6331978D02*
X24654490Y6331978D01*
X20668489Y6658489D02*
X24519245Y6658489D01*
X18030000Y-3175000D02*
X18030000Y-4900000D01*
X18030000Y-4900000D02*
X20496000Y-7366000D01*
X20496000Y-7366000D02*
X25400000Y-7366000D01*
X25400000Y-7366000D02*
X28000511Y-9966511D01*
X28000511Y-9966511D02*
X30038489Y-9966511D01*
X30038489Y-9966511D02*
X31115000Y-8890000D01*
X18530000Y-3175000D02*
X18530000Y-4540000D01*
X18530000Y-4540000D02*
X20902489Y-6912489D01*
X20902489Y-6912489D02*
X26597489Y-6912489D01*
X26597489Y-6912489D02*
X28575000Y-8890000D01*
X19030000Y-3175000D02*
X19030000Y-3924999D01*
X19030000Y-3924999D02*
X21455001Y-6350000D01*
X21455001Y-6350000D02*
X28575000Y-6350000D01*
X-22686511Y-5273489D02*
X-30038489Y-5273489D01*
X-19530000Y-3175000D02*
X-21628489Y-5273489D01*
X-21628489Y-5273489D02*
X-22686511Y-5273489D01*
X-20955000Y-1750000D02*
X-22213466Y-1750000D01*
X-22213466Y-1750000D02*
X-25349977Y-4886511D01*
X-20955000Y-1250000D02*
X-22175222Y-1250000D01*
X-22175222Y-1250000D02*
X-24735222Y-3810000D01*
X-20955000Y-750000D02*
X-22136978Y-750000D01*
X-22136978Y-750000D02*
X-24180978Y-2794000D01*
X-20955000Y1750000D02*
X-23595934Y4390934D01*
X-23595934Y4390934D02*
X-25195470Y4390934D01*
X-20955000Y1250000D02*
X-22078000Y1250000D01*
X-22078000Y1250000D02*
X-24384000Y3556000D01*
X-24511000Y2540000D02*
X-24870000Y2540000D01*
X-24870000Y2540000D02*
X-27305000Y2540000D01*
X-20955000Y750000D02*
X-22727582Y750000D01*
X-22727582Y750000D02*
X-24517582Y2540000D01*
X-24517582Y2540000D02*
X-24870000Y2540000D01*
X-20955000Y250000D02*
X-21011511Y193489D01*
X-21011511Y193489D02*
X-30038489Y193489D01*
X-30038489Y193489D02*
X-31115000Y1270000D01*
X-20955000Y-250000D02*
X-21031511Y-173489D01*
X-21031511Y-173489D02*
X-30018489Y-173489D01*
X-30018489Y-173489D02*
X-31115000Y-1270000D01*
X58618Y9921553D02*
X250000Y10112935D01*
X250000Y10112935D02*
X250000Y14605000D01*
X308957Y8899522D02*
X194642Y8899522D01*
X194642Y8899522D02*
X-567883Y9662047D01*
X-567883Y9662047D02*
X-567883Y10445596D01*
X-567883Y10445596D02*
X-250000Y10763479D01*
X-250000Y10763479D02*
X-250000Y14605000D01*
X-2032000Y8128000D02*
X-945629Y9214371D01*
X-945629Y9214371D02*
X-945629Y10872002D01*
X-945629Y10872002D02*
X-750000Y11067631D01*
X-750000Y11067631D02*
X-750000Y14605000D01*
X-3253266Y8430734D02*
X-3253266Y9446734D01*
X-3253266Y9446734D02*
X-1750000Y10950000D01*
X-1750000Y10950000D02*
X-1750000Y14605000D01*
X-7620000Y-2540000D02*
X-8410000Y-1750000D01*
X-8410000Y-1750000D02*
X-14605000Y-1750000D01*
X-6724259Y-1025735D02*
X-7341025Y-1642501D01*
X-7341025Y-1642501D02*
X-8055743Y-1642501D01*
X-8055743Y-1642501D02*
X-8500755Y-1197489D01*
X-8500755Y-1197489D02*
X-10247285Y-1197489D01*
X-10247285Y-1197489D02*
X-10694774Y-750000D01*
X-10694774Y-750000D02*
X-14605000Y-750000D01*
X-8852676Y-570989D02*
X-8891971Y-570989D01*
X-8891971Y-570989D02*
X-9191960Y-870978D01*
X-9191960Y-870978D02*
X-9922490Y-870978D01*
X-9922490Y-870978D02*
X-10543468Y-250000D01*
X-10543468Y-250000D02*
X-14605000Y-250000D01*
X-9660574Y-117439D02*
X-10028013Y250000D01*
X-10028013Y250000D02*
X-14605000Y250000D01*
D59*
X9730153Y13463953D02*
X9730153Y21511847D01*
X9730153Y21511847D02*
X9525000Y21717000D01*
D60*
X16530000Y3175000D02*
X16530000Y3924999D01*
X15212000Y4572000D02*
X15882999Y4572000D01*
X15882999Y4572000D02*
X16530000Y3924999D01*
X31115000Y-6350000D02*
X30038489Y-5273489D01*
X30038489Y-5273489D02*
X21628489Y-5273489D01*
X21628489Y-5273489D02*
X19530000Y-3175000D01*
X31115000Y6350000D02*
X30038489Y5273489D01*
X30038489Y5273489D02*
X21628489Y5273489D01*
X21628489Y5273489D02*
X19530000Y3175000D01*
X20955000Y-1750000D02*
X24091511Y-4886511D01*
X24091511Y-4886511D02*
X30038489Y-4886511D01*
X30038489Y-4886511D02*
X31115000Y-3810000D01*
X20955000Y-1250000D02*
X21704999Y-1250000D01*
X21704999Y-1250000D02*
X24264999Y-3810000D01*
X24264999Y-3810000D02*
X28575000Y-3810000D01*
X20955000Y-750000D02*
X22727582Y-750000D01*
X22727582Y-750000D02*
X24344093Y-2366511D01*
X24344093Y-2366511D02*
X27478489Y-2366511D01*
X27478489Y-2366511D02*
X28575000Y-1270000D01*
X20955000Y-250000D02*
X21011511Y-193489D01*
X21011511Y-193489D02*
X30038489Y-193489D01*
X30038489Y-193489D02*
X31115000Y-1270000D01*
X20955000Y250000D02*
X21031511Y173489D01*
X21031511Y173489D02*
X30018489Y173489D01*
X30018489Y173489D02*
X31115000Y1270000D01*
X24735222Y3810000D02*
X28575000Y3810000D01*
X22175222Y1250000D02*
X24735222Y3810000D01*
X27518489Y2326511D02*
X28575000Y1270000D01*
X20955000Y1250000D02*
X22175222Y1250000D01*
X20955000Y750000D02*
X22136978Y750000D01*
X22136978Y750000D02*
X23713489Y2326511D01*
X23713489Y2326511D02*
X27518489Y2326511D01*
X20955000Y1750000D02*
X24091511Y4886511D01*
X24091511Y4886511D02*
X30038489Y4886511D01*
X30038489Y4886511D02*
X31115000Y3810000D01*
D58*
X19705990Y-12637011D02*
X18448277Y-13894724D01*
X18448277Y-13894724D02*
X16964358Y-13894724D01*
X18718139Y-14546225D02*
X16694496Y-14546225D01*
X21082000Y-12827000D02*
X20437364Y-12827000D01*
X16694496Y-14546225D02*
X16604902Y-14456631D01*
X20437364Y-12827000D02*
X18718139Y-14546225D01*
X16604902Y-14456631D02*
X15198910Y-14456631D01*
X15723987Y-15385383D02*
X15624727Y-15484643D01*
X4200009Y-8772009D02*
X10363374Y-14935374D01*
X10363374Y-14935374D02*
X14756290Y-14935374D01*
X19645393Y-15835393D02*
X15806443Y-15835393D01*
X3749999Y-6923589D02*
X3175000Y-6348590D01*
X20174617Y-15385383D02*
X15723987Y-15385383D01*
X4459479Y388699D02*
X4459479Y365689D01*
X14929048Y-15108132D02*
X15468772Y-15108132D01*
X14773092Y-15484642D02*
X14673833Y-15385383D01*
X15641530Y-14935374D02*
X19354626Y-14935374D01*
X15468772Y-15108132D02*
X15641530Y-14935374D01*
X15624727Y-15484643D02*
X14773092Y-15484642D01*
X12750800Y-16623199D02*
X11171425Y-18202574D01*
X10176973Y-15385383D02*
X3749999Y-8958409D01*
X21663511Y-13896489D02*
X20174617Y-15385383D01*
X15806443Y-15835393D02*
X15780682Y-15861154D01*
X3824022Y-2690326D02*
X3824978Y-2691282D01*
X14756290Y-14935374D02*
X14929048Y-15108132D01*
X14617136Y-15861152D02*
X14591377Y-15835393D01*
X4385019Y291229D02*
X4385019Y-812677D01*
X3824022Y-1373674D02*
X3824022Y-2690326D01*
X4459479Y365689D02*
X4385019Y291229D01*
X4200009Y-6737189D02*
X4200009Y-8772009D01*
X20828000Y-17018000D02*
X19645393Y-15835393D01*
X4385019Y-812677D02*
X3824022Y-1373674D01*
X11171425Y-18202574D02*
X10333488Y-18202574D01*
X3824978Y-2691282D02*
X3824978Y-6362158D01*
X14673833Y-15385383D02*
X10176973Y-15385383D01*
X19354626Y-14935374D02*
X20515858Y-13774142D01*
X3749999Y-8958409D02*
X3749999Y-6923589D01*
X15780682Y-15861154D02*
X15468771Y-15861153D01*
X20206396Y-18145571D02*
X20828000Y-17523967D01*
X3175000Y-6348590D02*
X3175000Y-5969000D01*
X14591377Y-15835393D02*
X13552407Y-15835393D01*
X13552407Y-15835393D02*
X12764601Y-16623199D01*
X20828000Y-17523967D02*
X20828000Y-17018000D01*
X3824978Y-6362158D02*
X4200009Y-6737189D01*
X12764601Y-16623199D02*
X12750800Y-16623199D01*
X15468771Y-15861153D02*
X14617136Y-15861152D01*
D60*
X-24654490Y5696978D02*
X-25037022Y6079510D01*
X-24924980Y5043956D02*
X-26231024Y6350000D01*
X-25037022Y6079510D02*
X-25037022Y7511022D01*
X-27559000Y10033000D02*
X-29972000Y10033000D01*
X-29972000Y10033000D02*
X-31115000Y8890000D01*
X-25037022Y7511022D02*
X-27559000Y10033000D01*
X-28309268Y8890000D02*
X-28575000Y8890000D01*
X-26231024Y6350000D02*
X-28575000Y6350000D01*
X-24789735Y5370467D02*
X-28309268Y8890000D01*
D61*
X8430847Y-7414847D02*
X8430847Y-8384049D01*
D59*
X8472808Y-7329808D02*
X8472808Y-8525435D01*
D61*
X8430847Y-8384049D02*
X9025500Y-8978702D01*
D59*
X8472808Y-8525435D02*
X9025500Y-9078127D01*
D61*
X9025500Y-8978702D02*
X9025500Y-9078127D01*
D60*
X-9638698Y-9689498D02*
X-9335008Y-9689498D01*
X-9335008Y-9689498D02*
X-8267653Y-10756853D01*
X-5691211Y-9040789D02*
X-5691211Y-11988980D01*
X-5949743Y-12247512D02*
X-5597432Y-12247512D01*
X-6751594Y-12247512D02*
X-7505653Y-11493453D01*
X-6643131Y-12355975D02*
X-6751594Y-12247512D01*
X-6058206Y-12355975D02*
X-5949743Y-12247512D01*
X-7340600Y-7391400D02*
X-5691211Y-9040789D01*
X-6058206Y-12355975D02*
X-6643131Y-12355975D01*
X-5691211Y-11988980D02*
X-6058206Y-12355975D01*
X-5597432Y-12247512D02*
X-5569306Y-12275638D01*
D58*
X12901247Y-11152553D02*
X12496056Y-11152553D01*
X12496056Y-11152553D02*
X11609569Y-10266066D01*
X12244569Y10887094D02*
X11841084Y10483609D01*
X10901066Y12230597D02*
X10569504Y11899035D01*
X10569504Y11899035D02*
X10569504Y10483609D01*
X11841084Y10483609D02*
X10569504Y10483609D01*
D61*
X10266066Y-11609569D02*
X10266066Y-12466934D01*
X10266066Y-12466934D02*
X10160000Y-12573000D01*
X10901066Y12230597D02*
X10901066Y12318440D01*
X10901066Y12318440D02*
X10034953Y13184553D01*
X10669098Y-9820590D02*
X11164093Y-9820590D01*
X10266066Y-11609569D02*
X9820590Y-11164093D01*
X9820590Y-11164093D02*
X9820590Y-10669098D01*
X11164093Y-9820590D02*
X11609569Y-10266066D01*
D59*
X9892217Y-10491877D02*
X10491877Y-9892217D01*
X12403294Y-11059792D02*
X11686885Y-10343383D01*
X9892217Y-11157301D02*
X9892217Y-10491877D01*
X10343383Y-11686885D02*
X9980504Y-11324006D01*
X9980504Y-11245588D02*
X9892217Y-11157301D01*
X11235719Y-9892217D02*
X11686885Y-10343383D01*
X9730153Y13401510D02*
X10901066Y12230597D01*
X9980504Y-11324006D02*
X9980504Y-11245588D01*
X13197208Y-11059792D02*
X12403294Y-11059792D01*
X10343383Y-11686885D02*
X10343383Y-12389617D01*
X10343383Y-12389617D02*
X10160000Y-12573000D01*
X10491877Y-9892217D02*
X11235719Y-9892217D01*
X9730153Y13463953D02*
X9730153Y13401510D01*
D58*
X-20637453Y-20612053D02*
X-20312380Y-20286980D01*
X-21882053Y-20612053D02*
X-20637453Y-20612053D01*
X-17888949Y-24208761D02*
X-19918673Y-22179037D01*
X-17888949Y-26143949D02*
X-17888949Y-24208761D01*
X-19918673Y-22179037D02*
X-20315069Y-22179037D01*
X-20315069Y-22179037D02*
X-20612053Y-21882053D01*
X-24245235Y-22693871D02*
X-24422053Y-22517053D01*
X-22638184Y-22693871D02*
X-24245235Y-22693871D01*
X-21331501Y-23959753D02*
X-22054753Y-23959753D01*
X-22054753Y-23959753D02*
X-22517053Y-24422053D01*
X19752918Y-26153812D02*
X18707053Y-25107947D01*
X15926900Y-29845000D02*
X15489980Y-29845000D01*
X18707053Y-25107947D02*
X15875000Y-22275894D01*
X19752918Y-27872082D02*
X17899818Y-27872082D01*
X17899818Y-27872082D02*
X15926900Y-29845000D01*
X15489980Y-29845000D02*
X14187898Y-29845000D01*
X19752918Y-27872082D02*
X19752918Y-26153812D01*
X15875000Y-22275894D02*
X15875000Y-21601770D01*
D60*
X-23579540Y19713804D02*
X-24929684Y21063948D01*
X-24929684Y21063948D02*
X-26452102Y21063948D01*
X-20611829Y19713804D02*
X-23579540Y19713804D01*
X-20247059Y19349034D02*
X-20611829Y19713804D01*
X-18451008Y21145085D02*
X-18737321Y21431398D01*
X-18737321Y21431398D02*
X-21157777Y21431398D01*
X-22586379Y22860000D02*
X-24656051Y22860000D01*
X-21157777Y21431398D02*
X-22586379Y22860000D01*
X-21145085Y18451008D02*
X-21961974Y19267897D01*
X-21961974Y19267897D02*
X-24656051Y19267897D01*
X-19349034Y20247059D02*
X-20165923Y21063948D01*
X-20165923Y21063948D02*
X-22860000Y21063948D01*
X3399511Y1200489D02*
X2977269Y778247D01*
X2977269Y778247D02*
X2394132Y778247D01*
X3399511Y6200035D02*
X3399511Y1200489D01*
D58*
X6892432Y10079486D02*
X6913016Y10100070D01*
X3356489Y6243057D02*
X6892432Y9779000D01*
X6892432Y9779000D02*
X6892432Y10079486D01*
D60*
X3356489Y6243057D02*
X3399511Y6200035D01*
D58*
X27872082Y-19752918D02*
X26153812Y-19752918D01*
X26153812Y-19752918D02*
X25107947Y-18707053D01*
X31641051Y-15983949D02*
X29902049Y-15983949D01*
X29902049Y-15983949D02*
X27872082Y-18013916D01*
X27872082Y-18013916D02*
X27872082Y-19016522D01*
X27872082Y-19016522D02*
X27872082Y-19752918D01*
X14526770Y-20876770D02*
X16223001Y-20876769D01*
X18097500Y-21018500D02*
X18182304Y-20933696D01*
X16223001Y-20876769D02*
X16353558Y-21007326D01*
X13335000Y-19685000D02*
X14526770Y-20876770D01*
X18182304Y-20933696D02*
X18182304Y-20876770D01*
X18086326Y-21007326D02*
X18097500Y-21018500D01*
X18182304Y-20876770D02*
X18562373Y-20496701D01*
X16353558Y-21007326D02*
X18086326Y-21007326D01*
X14383285Y-17627600D02*
X17620138Y-17627600D01*
X13900685Y-17145000D02*
X14383285Y-17627600D01*
X13335000Y-17145000D02*
X13900685Y-17145000D01*
X17620138Y-17627600D02*
X18208820Y-18216282D01*
X17855266Y-18569835D02*
X17421031Y-18135600D01*
X17421031Y-18135600D02*
X13778400Y-18135600D01*
X13512800Y-17870000D02*
X12627892Y-17870000D01*
X13778400Y-18135600D02*
X13512800Y-17870000D01*
X21618291Y-17440783D02*
X21618291Y-17116709D01*
X-15971758Y10078864D02*
X-15074947Y9182053D01*
X19428579Y-20143148D02*
X19808648Y-20523217D01*
X17734003Y-17034358D02*
X18562373Y-17862728D01*
D59*
X7406008Y-8396608D02*
X7406008Y-8749510D01*
D58*
X19808648Y-20523217D02*
X19808648Y-20929600D01*
X20489239Y-18569835D02*
X20878800Y-18180274D01*
X20878800Y-18180274D02*
X21132800Y-17926274D01*
X21132800Y-17926274D02*
X21618291Y-17440783D01*
X17604054Y-22400946D02*
X18337302Y-22400946D01*
D59*
X7406008Y-8749510D02*
X8734715Y-10078217D01*
D58*
X22157082Y-25467918D02*
X19090110Y-22400946D01*
X21983747Y-19824653D02*
X21983747Y-18777221D01*
D59*
X8710431Y-10053934D02*
X8710431Y-11248423D01*
D58*
X17734003Y-16911597D02*
X17734003Y-17034358D01*
X-16365043Y10078864D02*
X-15971758Y10078864D01*
X21983747Y-18777221D02*
X21443726Y-18237200D01*
X18337302Y-22400946D02*
X19808648Y-20929600D01*
X21443726Y-18237200D02*
X20935726Y-18237200D01*
X19808648Y-20929600D02*
X19808648Y-21299972D01*
X19090110Y-22400946D02*
X17604054Y-22400946D01*
X19922529Y-21413853D02*
X19922529Y-21885885D01*
D59*
X8710431Y-11248423D02*
X9081011Y-11619003D01*
D58*
X20935726Y-18237200D02*
X20878800Y-18180274D01*
X19808648Y-21299972D02*
X19922529Y-21413853D01*
X14808200Y-20091400D02*
X16846354Y-20091400D01*
X16846354Y-20091400D02*
X17501713Y-19436041D01*
D60*
X1042756Y7059798D02*
X1042756Y6931503D01*
D58*
X-10807443Y12147441D02*
X-10807443Y14385420D01*
X-14272006Y13373981D02*
X-13670966Y12772941D01*
X-12327739Y15636464D02*
X-14272006Y13692197D01*
D60*
X1042756Y6931503D02*
X1179751Y6794508D01*
D58*
X-8107997Y11085999D02*
X-9746001Y11085999D01*
X-9746001Y11085999D02*
X-10807443Y12147441D01*
D60*
X-4133998Y7112000D02*
X862259Y7112000D01*
D58*
X-14272006Y13692197D02*
X-14272006Y13373981D01*
D60*
X862259Y7112000D02*
X1179751Y6794508D01*
X-7654999Y10633001D02*
X-4133998Y7112000D01*
D58*
X-7654999Y10633001D02*
X-8107997Y11085999D01*
X-12058487Y15636464D02*
X-12327739Y15636464D01*
X-10807443Y14385420D02*
X-12058487Y15636464D01*
X-11874915Y14568992D02*
X-11273875Y13967952D01*
X-11273875Y11647636D02*
X-5457219Y5830980D01*
X-4091940Y5830980D02*
X-3910409Y6012511D01*
D60*
X-5457219Y5830980D02*
X-4091940Y5830980D01*
D58*
X-3910409Y6012511D02*
X-932511Y6012511D01*
X-11273875Y13967952D02*
X-11273875Y11647636D01*
X-932511Y6012511D02*
X-699500Y5779500D01*
X20906618Y22726351D02*
X21454625Y23274358D01*
X21454625Y23274358D02*
X21454625Y23732345D01*
X21454625Y23732345D02*
X20166010Y25020960D01*
X20166010Y25020960D02*
X19685000Y25020960D01*
D59*
X18758088Y22950878D02*
X19569233Y22139733D01*
D58*
X20172509Y22139733D02*
X19788553Y21608286D01*
D61*
X21233090Y24138880D02*
X21233090Y23052839D01*
X19788553Y20953047D02*
X19788553Y21608286D01*
X20351010Y25020960D02*
X21233090Y24138880D01*
D59*
X19569233Y22139733D02*
X20172509Y22139733D01*
X19685000Y25020960D02*
X19119315Y25020960D01*
X19788553Y20953047D02*
X19788553Y21755777D01*
X19119315Y25020960D02*
X18758088Y24659733D01*
D61*
X19788553Y21608286D02*
X20297509Y22117242D01*
X19685000Y25020960D02*
X20351010Y25020960D01*
D59*
X19788553Y21755777D02*
X20172509Y22139733D01*
D61*
X25686970Y19685000D02*
X22036510Y23335460D01*
X27940000Y19685000D02*
X25686970Y19685000D01*
D59*
X18758088Y24659733D02*
X18758088Y22950878D01*
D58*
X20906618Y22726351D02*
X20172509Y22139733D01*
D61*
X22036510Y23335460D02*
X21515711Y23335460D01*
X21515711Y23335460D02*
X21233090Y23052839D01*
D59*
X17217198Y25472198D02*
X17217198Y22039460D01*
X19823891Y19432767D02*
X20495661Y19432767D01*
D61*
X21696590Y19839353D02*
X22136002Y20278765D01*
D59*
X17888949Y26143949D02*
X17217198Y25472198D01*
X22852651Y17888949D02*
X20902247Y19839353D01*
D61*
X20902247Y19839353D02*
X21696590Y19839353D01*
D59*
X26143949Y17888949D02*
X22852651Y17888949D01*
X17217198Y22039460D02*
X19823891Y19432767D01*
X22187780Y20153765D02*
X22293622Y20259607D01*
X20495661Y19432767D02*
X20902247Y19839353D01*
D61*
X22136002Y20278765D02*
X22745103Y20887866D01*
D59*
X20902247Y19839353D02*
X21873368Y19839353D01*
D58*
X22745095Y20887874D02*
X21696574Y19839353D01*
X21696574Y19839353D02*
X20902247Y19839353D01*
D59*
X21873368Y19839353D02*
X22187780Y20153765D01*
D58*
X24442151Y23009194D02*
X25785654Y21665691D01*
X23027938Y24423407D02*
X24442151Y23009194D01*
X21260171Y26191174D02*
X23027938Y24423407D01*
X21260171Y26191174D02*
X21684435Y25766910D01*
X4287932Y2286000D02*
X4287932Y1270000D01*
X4572000Y3302000D02*
X4287932Y3017932D01*
X4287932Y3017932D02*
X4287932Y2286000D01*
X4287931Y852855D02*
X4009968Y574892D01*
D60*
X3399511Y-5744489D02*
X3175000Y-5969000D01*
X3399511Y-1197835D02*
X3396857Y-1200489D01*
D58*
X3387912Y-226500D02*
X3935008Y320596D01*
D60*
X3399511Y-1200489D02*
X3399511Y-5744489D01*
D58*
X4287932Y1270000D02*
X4287931Y852855D01*
D60*
X3387912Y-226500D02*
X3399511Y-238099D01*
D58*
X4287932Y1270000D02*
X4287932Y852856D01*
D60*
X3396857Y-1200489D02*
X3399511Y-1200489D01*
D58*
X4009968Y574892D02*
X4009969Y552589D01*
D60*
X3399511Y-238099D02*
X3399511Y-1197835D01*
D58*
X3935008Y320596D02*
X3935009Y477629D01*
X4009969Y552589D02*
X3935009Y477629D01*
X4287932Y852856D02*
X4009968Y574892D01*
X4737942Y667162D02*
X4459479Y388699D01*
X4737942Y977058D02*
X4737942Y667163D01*
X4737942Y667163D02*
X4708152Y637372D01*
X4708152Y637372D02*
X4459479Y388699D01*
D60*
X4737942Y977058D02*
X6093543Y2332659D01*
X6093543Y2332659D02*
X6093543Y3812457D01*
D58*
X4883990Y-949410D02*
X4273533Y-1559867D01*
D60*
X4883990Y153790D02*
X7120105Y2389905D01*
D58*
X4273533Y-1559867D02*
X4273533Y-2504133D01*
X10864998Y-14478000D02*
X13335000Y-14478000D01*
X4650019Y-3599369D02*
X4650019Y-8331609D01*
X7493988Y-11106990D02*
X10864998Y-14478000D01*
X4650019Y-8331609D02*
X7425400Y-11106990D01*
X4273533Y-2504133D02*
X4274489Y-2505089D01*
D60*
X7120105Y2389905D02*
X7120105Y4839019D01*
D58*
X4883990Y153790D02*
X4883990Y-949410D01*
X13335000Y-14478000D02*
X14478000Y-13335000D01*
X7425400Y-11106990D02*
X7493988Y-11106990D01*
X4274489Y-3223839D02*
X4650019Y-3599369D01*
X4274489Y-2505089D02*
X4274489Y-3223839D01*
X29845000Y-14187898D02*
X27595102Y-14187898D01*
X27595102Y-14187898D02*
X26035000Y-15748000D01*
D60*
X-22114067Y17623939D02*
X-25081765Y17623939D01*
X-22043111Y17552983D02*
X-22114067Y17623939D01*
X-23914053Y15278053D02*
X-22937032Y15278053D01*
X-21972154Y16242931D02*
X-21972154Y17482026D01*
X-25081765Y17623939D02*
X-26725723Y19267897D01*
X-26725723Y19267897D02*
X-28248153Y19267897D01*
X-22937032Y15278053D02*
X-21972154Y16242931D01*
X-21972154Y17482026D02*
X-22043111Y17552983D01*
X-22941136Y16654957D02*
X-23908937Y16654957D01*
X-23908937Y16654957D02*
X-24599947Y15963947D01*
X-22941136Y16654957D02*
X-25635213Y16654957D01*
X-25635213Y16654957D02*
X-26452102Y17471846D01*
X27559000Y-2286000D02*
X28575000Y-1270000D01*
X24519245Y6658489D02*
X26352500Y8491744D01*
X27492511Y9966511D02*
X26352500Y8826500D01*
X26352500Y8826500D02*
X27559000Y10033000D01*
X27559000Y10033000D02*
X29972000Y10033000D01*
X31115000Y8890000D02*
X30038489Y9966511D01*
X30038489Y9966511D02*
X27492511Y9966511D01*
X29972000Y10033000D02*
X31115000Y8890000D01*
X26352500Y8491744D02*
X26352500Y8826500D01*
X6712978Y-26397978D02*
X8890000Y-28575000D01*
X6712978Y-22749490D02*
X6712978Y-26397978D01*
X6585978Y-22622490D02*
X6712978Y-22749490D01*
X4826000Y-25654000D02*
X4826000Y-27559000D01*
X4826000Y-27559000D02*
X3810000Y-28575000D01*
X1250000Y-22078000D02*
X4826000Y-25654000D01*
X2326511Y-27518489D02*
X1270000Y-28575000D01*
X750000Y-22136978D02*
X2326511Y-23713489D01*
X2326511Y-23713489D02*
X2326511Y-27518489D01*
X-750000Y-22727582D02*
X-2366511Y-24344093D01*
X-2366511Y-27478489D02*
X-1270000Y-28575000D01*
X-2366511Y-24344093D02*
X-2366511Y-27478489D01*
X-1250000Y-22765826D02*
X-3810000Y-25325826D01*
X-3810000Y-25325826D02*
X-3810000Y-28575000D01*
X-6350000Y-26797000D02*
X-6350000Y-28575000D01*
X-6223000Y-26670000D02*
X-6350000Y-26797000D01*
X6912489Y-22487245D02*
X7039489Y-22614245D01*
X7039489Y-22614245D02*
X7039489Y-25202071D01*
X10033000Y-28195582D02*
X10033000Y-29972000D01*
X7039489Y-25202071D02*
X10033000Y-28195582D01*
X10033000Y-29972000D02*
X8890000Y-31115000D01*
X5273489Y-28129093D02*
X5273489Y-30038489D01*
X5273489Y-30038489D02*
X6350000Y-31115000D01*
X5904093Y-27498489D02*
X5273489Y-28129093D01*
X4946978Y-29978022D02*
X3810000Y-31115000D01*
X4946978Y-27993848D02*
X4946978Y-29978022D01*
X5152511Y-27788315D02*
X4946978Y-27993848D01*
X133022Y-29978022D02*
X1270000Y-31115000D01*
X-193489Y-30038489D02*
X-1270000Y-31115000D01*
X-5273489Y-30038489D02*
X-6350000Y-31115000D01*
X-24735222Y-3810000D02*
X-28575000Y-3810000D01*
X-27051000Y-2794000D02*
X-28575000Y-1270000D01*
X-24180978Y-2794000D02*
X-27051000Y-2794000D01*
X-27305000Y2540000D02*
X-28575000Y1270000D01*
X-28067000Y3302000D02*
X-28575000Y3810000D01*
X-27305000Y3556000D02*
X-27559000Y3302000D01*
X-27559000Y3302000D02*
X-28067000Y3302000D01*
X-24384000Y3556000D02*
X-27305000Y3556000D01*
X-30038489Y-5273489D02*
X-31115000Y-6350000D01*
X-25349977Y-4886511D02*
X-30038489Y-4886511D01*
X-30038489Y-4886511D02*
X-31115000Y-3810000D01*
X-25195470Y4390934D02*
X-25691047Y4886511D01*
X-30038489Y4886511D02*
X-31115000Y3810000D01*
X-25691047Y4886511D02*
X-30038489Y4886511D01*
X-25060225Y4717445D02*
X-25555802Y5213022D01*
X-25555802Y5213022D02*
X-29978022Y5213022D01*
X-29978022Y5213022D02*
X-31115000Y6350000D01*
X-1250000Y26015000D02*
X-3810000Y28575000D01*
X1250000Y26015000D02*
X3810000Y28575000D01*
X8809244Y28575000D02*
X8890000Y28575000D01*
X7039489Y26805245D02*
X8809244Y28575000D01*
X-5273489Y30038489D02*
X-6350000Y31115000D01*
X-193489Y30038489D02*
X-1270000Y31115000D01*
X193489Y28129093D02*
X193489Y30038489D01*
X250000Y28072582D02*
X193489Y28129093D01*
X193489Y30038489D02*
X1270000Y31115000D01*
D58*
X-20700265Y-24960580D02*
X-20134580Y-24960580D01*
X-23202947Y-25107947D02*
X-22905963Y-25404931D01*
X-22905963Y-25404931D02*
X-22587749Y-25404931D01*
X-22143398Y-24960580D02*
X-20700265Y-24960580D01*
X-22587749Y-25404931D02*
X-22143398Y-24960580D01*
X-25404931Y-22905963D02*
X-25107947Y-23202947D01*
X-24056340Y-18811240D02*
X-24765000Y-19519900D01*
X-24765000Y-21947818D02*
X-25404931Y-22587749D01*
X-24765000Y-19519900D02*
X-24765000Y-21947818D01*
X-25404931Y-22587749D02*
X-25404931Y-22905963D01*
X-23463655Y-21297947D02*
X-23721882Y-21556174D01*
X-22567947Y-21297947D02*
X-23463655Y-21297947D01*
X-22567947Y-21297947D02*
X-21297947Y-22567947D01*
D60*
X-12153947Y-8166053D02*
X-12153947Y-9466941D01*
X-16314431Y-10126969D02*
X-16421053Y-10020347D01*
X-12153947Y-9466941D02*
X-12813975Y-10126969D01*
X-12813975Y-10126969D02*
X-16314431Y-10126969D01*
D58*
X25467918Y-20438812D02*
X24422053Y-19392947D01*
X6301153Y-7317153D02*
X7317153Y-6301153D01*
X10937817Y-10937817D02*
X11094123Y-10937817D01*
X11094123Y-10937817D02*
X12143153Y-11986847D01*
X6428153Y-8903026D02*
X6428153Y-7219459D01*
X20608423Y-21199992D02*
X20608423Y-20615885D01*
X20608423Y-20615885D02*
X19782132Y-19789594D01*
X21192529Y-20615885D02*
X21192529Y-20492884D01*
X21192529Y-20492884D02*
X20135686Y-19436041D01*
D61*
X11383293Y-11383293D02*
X10937817Y-10937817D01*
X11201400Y-13208000D02*
X11201400Y-12928600D01*
X11201400Y-12928600D02*
X12143153Y-11986847D01*
D58*
X25467918Y-22157082D02*
X24062082Y-22157082D01*
X24062082Y-22157082D02*
X23495000Y-21590000D01*
X25467918Y-22157082D02*
X25467918Y-20438812D01*
X23495000Y-21590000D02*
X20998432Y-21590000D01*
X20998432Y-21590000D02*
X20608423Y-21199991D01*
X23495000Y-21590000D02*
X22166643Y-21590000D01*
X22166643Y-21590000D02*
X21192529Y-20615886D01*
D60*
X-8953547Y-11442747D02*
X-8928147Y-11442747D01*
D59*
X11201400Y-13055600D02*
X12101192Y-12155808D01*
X11015134Y-11015134D02*
X11015134Y-11069750D01*
D58*
X1207500Y2357942D02*
X1207500Y2293260D01*
D59*
X11201400Y-13208000D02*
X11201400Y-13055600D01*
X11015134Y-11069750D02*
X12101192Y-12155808D01*
D61*
X11040534Y-11040534D02*
X11436787Y-11436787D01*
X11436787Y-11436787D02*
X11436787Y-12972613D01*
D58*
X19392947Y-24422053D02*
X19342053Y-24422053D01*
D61*
X11436787Y-12972613D02*
X11201400Y-13208000D01*
D58*
X-14389053Y9867947D02*
X-14389053Y9898925D01*
X7431127Y-9906000D02*
X6428153Y-8903026D01*
X-14389053Y9898925D02*
X-15467017Y10976889D01*
X19342053Y-24422053D02*
X18415000Y-23495000D01*
X2062911Y3213353D02*
X1207500Y2357942D01*
M02*
